<?xml version='1.0' encoding='ascii'?>
<svg xmlns="http://www.w3.org/2000/svg" version="1.1" width="1920" height="1080">
    <g id="ViewLayer_LineSet" xmlns:inkscape="http://www.inkscape.org/namespaces/inkscape" inkscape:groupmode="lineset" inkscape:label="ViewLayer_LineSet">
        <g xmlns:inkscape="http://www.inkscape.org/namespaces/inkscape" inkscape:groupmode="layer" id="strokes" inkscape:label="strokes">
            <path fill="none" stroke-width="3.0" stroke-linecap="butt" stroke-opacity="1.0" stroke="rgb(0, 0, 0)" stroke-linejoin="bevel" d=" M 852.430, 513.180 852.430, 523.180 852.430, 533.180 852.430, 543.180 852.430, 553.180 852.430, 563.180 852.430, 566.820 862.430, 566.820 872.430, 566.820 882.430, 566.820 892.430, 566.820 902.430, 566.820 912.430, 566.820 922.430, 566.820 932.430, 566.820 942.430, 566.820 952.430, 566.820 962.430, 566.820 972.430, 566.820 982.430, 566.820 992.430, 566.820 1002.430, 566.820 1012.430, 566.820 1022.430, 566.820 1032.430, 566.820 1042.430, 566.820 1052.430, 566.820 1062.430, 566.820 1066.986, 566.820 1066.986, 556.820 1066.986, 546.820 1066.986, 536.820 1066.986, 526.820 1066.986, 516.820 1066.986, 513.180 1056.986, 513.180 1046.986, 513.180 1036.986, 513.180 1026.986, 513.180 1016.986, 513.180 1006.986, 513.180 996.986, 513.180 986.986, 513.180 976.986, 513.180 966.986, 513.180 956.986, 513.180 946.986, 513.180 936.986, 513.180 926.986, 513.180 916.986, 513.180 906.986, 513.180 896.986, 513.180 886.986, 513.180 876.986, 513.180 866.986, 513.180 856.986, 513.180 852.430, 513.180 " />
            <path fill="none" stroke-width="3.0" stroke-linecap="butt" stroke-opacity="1.0" stroke="rgb(0, 0, 0)" stroke-linejoin="bevel" d=" M 975.488, 532.113 975.488, 542.113 975.488, 543.944 975.488, 553.944 975.488, 555.774 965.488, 555.774 955.488, 555.774 945.488, 555.774 943.939, 555.774 943.939, 547.887 943.939, 537.887 943.939, 536.056 943.939, 526.056 943.939, 524.226 953.939, 524.226 963.939, 524.226 973.939, 524.226 975.488, 524.226 975.488, 532.113 " />
            <path fill="none" stroke-width="3.0" stroke-linecap="butt" stroke-opacity="1.0" stroke="rgb(0, 0, 0)" stroke-linejoin="bevel" d=" M 895.341, 550.516 885.341, 550.516 875.584, 550.516 875.584, 540.516 875.584, 530.516 875.584, 529.484 885.584, 529.484 895.341, 529.484 " />
            <path fill="none" stroke-width="3.0" stroke-linecap="butt" stroke-opacity="1.0" stroke="rgb(0, 0, 0)" stroke-linejoin="bevel" d=" M 1024.075, 529.484 1034.075, 529.484 1043.844, 529.484 1043.844, 539.484 1043.844, 549.484 1043.844, 550.516 1033.844, 550.516 1024.075, 550.516 " />
            <path fill="none" stroke-width="3.0" stroke-linecap="butt" stroke-opacity="1.0" stroke="rgb(0, 0, 0)" stroke-linejoin="bevel" d=" M 873.886, 550.728 873.886, 540.728 873.886, 530.728 873.886, 529.272 " />
            <path fill="none" stroke-width="3.0" stroke-linecap="butt" stroke-opacity="1.0" stroke="rgb(0, 0, 0)" stroke-linejoin="bevel" d=" M 943.616, 556.092 943.616, 546.092 943.616, 544.023 943.616, 534.023 943.616, 531.954 943.616, 523.908 " />
            <path fill="none" stroke-width="3.0" stroke-linecap="butt" stroke-opacity="1.0" stroke="rgb(0, 0, 0)" stroke-linejoin="bevel" d=" M 895.341, 529.272 895.341, 529.484 895.341, 539.484 895.341, 545.364 895.341, 550.516 895.341, 550.728 " />
            <path fill="none" stroke-width="3.0" stroke-linecap="butt" stroke-opacity="1.0" stroke="rgb(0, 0, 0)" stroke-linejoin="bevel" d=" M 975.800, 523.908 975.800, 533.908 975.800, 535.977 975.800, 545.977 975.800, 548.046 975.800, 556.092 " />
            <path fill="none" stroke-width="3.0" stroke-linecap="butt" stroke-opacity="1.0" stroke="rgb(0, 0, 0)" stroke-linejoin="bevel" d=" M 1045.530, 550.728 1035.530, 550.728 1025.530, 550.728 1024.075, 550.728 1024.075, 550.516 1024.075, 540.516 1024.075, 534.636 1024.075, 529.484 1024.075, 529.272 " />
            <path fill="none" stroke-width="3.0" stroke-linecap="butt" stroke-opacity="1.0" stroke="rgb(0, 0, 0)" stroke-linejoin="bevel" d=" M 895.341, 550.728 885.341, 550.728 875.341, 550.728 873.886, 550.728 875.584, 550.516 " />
            <path fill="none" stroke-width="3.0" stroke-linecap="butt" stroke-opacity="1.0" stroke="rgb(0, 0, 0)" stroke-linejoin="bevel" d=" M 975.488, 555.774 975.800, 556.092 965.800, 556.092 955.800, 556.092 945.800, 556.092 943.616, 556.092 943.939, 555.774 " />
            <path fill="none" stroke-width="3.0" stroke-linecap="butt" stroke-opacity="1.0" stroke="rgb(0, 0, 0)" stroke-linejoin="bevel" d=" M 875.584, 529.484 873.886, 529.272 883.886, 529.272 893.886, 529.272 895.341, 529.272 " />
            <path fill="none" stroke-width="3.0" stroke-linecap="butt" stroke-opacity="1.0" stroke="rgb(0, 0, 0)" stroke-linejoin="bevel" d=" M 943.939, 524.226 943.616, 523.908 953.616, 523.908 963.616, 523.908 973.616, 523.908 975.800, 523.908 975.488, 524.226 " />
            <path fill="none" stroke-width="3.0" stroke-linecap="butt" stroke-opacity="1.0" stroke="rgb(0, 0, 0)" stroke-linejoin="bevel" d=" M 1024.075, 529.272 1034.075, 529.272 1044.075, 529.272 1045.530, 529.272 " />
            <path fill="none" stroke-width="3.0" stroke-linecap="butt" stroke-opacity="1.0" stroke="rgb(0, 0, 0)" stroke-linejoin="bevel" d=" M 1043.844, 529.484 1045.530, 529.272 1045.530, 539.272 1045.530, 549.272 1045.530, 550.728 1043.844, 550.516 " />
        </g>
    </g>
</svg>
