<?xml version='1.0' encoding='ascii'?>
<svg xmlns="http://www.w3.org/2000/svg" version="1.1" width="1920" height="1080">
    <g id="ViewLayer_LineSet" xmlns:inkscape="http://www.inkscape.org/namespaces/inkscape" inkscape:groupmode="lineset" inkscape:label="ViewLayer_LineSet">
        <g xmlns:inkscape="http://www.inkscape.org/namespaces/inkscape" inkscape:groupmode="layer" id="strokes" inkscape:label="strokes">
            <path fill="none" stroke-width="3.0" stroke-linecap="butt" stroke-opacity="1.0" stroke="rgb(0, 0, 0)" stroke-linejoin="bevel" d=" M 960.000, 721.812 960.000, 720.641 " />
            <path fill="none" stroke-width="3.0" stroke-linecap="butt" stroke-opacity="1.0" stroke="rgb(0, 0, 0)" stroke-linejoin="bevel" d=" M 969.235, 524.005 969.309, 523.876 " />
            <path fill="none" stroke-width="3.0" stroke-linecap="butt" stroke-opacity="1.0" stroke="rgb(0, 0, 0)" stroke-linejoin="bevel" d=" M 962.826, 523.972 962.826, 523.971 962.843, 523.876 " />
            <path fill="none" stroke-width="3.0" stroke-linecap="butt" stroke-opacity="1.0" stroke="rgb(0, 0, 0)" stroke-linejoin="bevel" d=" M 957.191, 524.069 957.157, 523.876 " />
            <path fill="none" stroke-width="3.0" stroke-linecap="butt" stroke-opacity="1.0" stroke="rgb(0, 0, 0)" stroke-linejoin="bevel" d=" M 944.069, 530.802 943.876, 530.691 " />
            <path fill="none" stroke-width="3.0" stroke-linecap="butt" stroke-opacity="1.0" stroke="rgb(0, 0, 0)" stroke-linejoin="bevel" d=" M 944.069, 534.201 943.876, 534.131 " />
            <path fill="none" stroke-width="3.0" stroke-linecap="butt" stroke-opacity="1.0" stroke="rgb(0, 0, 0)" stroke-linejoin="bevel" d=" M 944.069, 537.191 943.876, 537.157 " />
            <path fill="none" stroke-width="3.0" stroke-linecap="butt" stroke-opacity="1.0" stroke="rgb(0, 0, 0)" stroke-linejoin="bevel" d=" M 944.069, 545.799 943.876, 545.869 " />
            <path fill="none" stroke-width="3.0" stroke-linecap="butt" stroke-opacity="1.0" stroke="rgb(0, 0, 0)" stroke-linejoin="bevel" d=" M 954.131, 556.124 954.201, 555.931 " />
            <path fill="none" stroke-width="3.0" stroke-linecap="butt" stroke-opacity="1.0" stroke="rgb(0, 0, 0)" stroke-linejoin="bevel" d=" M 957.191, 555.931 957.157, 556.124 " />
            <path fill="none" stroke-width="3.0" stroke-linecap="butt" stroke-opacity="1.0" stroke="rgb(0, 0, 0)" stroke-linejoin="bevel" d=" M 915.201, 794.067 916.323, 794.026 917.557, 793.725 918.855, 793.174 920.168, 792.394 921.444, 791.415 922.636, 790.276 923.696, 789.019 924.585, 787.693 929.659, 779.076 932.988, 773.422 933.457, 772.761 934.060, 772.139 934.774, 771.579 935.571, 771.104 936.421, 770.731 937.291, 770.474 938.147, 770.345 938.958, 770.346 940.723, 770.501 941.522, 770.640 942.343, 770.916 943.155, 771.320 943.927, 771.835 944.630, 772.441 945.235, 773.116 945.721, 773.834 946.068, 774.566 949.569, 783.933 951.865, 790.080 952.511, 791.540 953.337, 792.962 954.312, 794.291 955.399, 795.476 956.556, 796.472 957.739, 797.240 958.902, 797.752 960.000, 797.986 961.098, 797.752 962.261, 797.241 963.444, 796.472 964.601, 795.476 965.688, 794.291 966.663, 792.962 967.489, 791.540 968.135, 790.080 971.635, 780.712 973.932, 774.566 974.279, 773.834 974.765, 773.116 975.370, 772.442 976.073, 771.835 976.845, 771.320 977.657, 770.917 978.478, 770.640 979.277, 770.501 981.042, 770.347 981.853, 770.345 982.709, 770.475 983.579, 770.731 984.429, 771.104 985.226, 771.579 985.940, 772.139 986.543, 772.761 987.012, 773.422 992.086, 782.039 995.415, 787.693 996.304, 789.019 997.364, 790.276 998.556, 791.415 999.832, 792.394 1001.145, 793.174 1002.443, 793.725 1003.677, 794.027 1004.799, 794.067 1005.840, 793.645 1006.896, 792.940 1007.927, 791.978 1008.894, 790.796 1009.759, 789.440 1010.488, 787.962 1011.055, 786.418 1011.437, 784.868 1013.258, 775.035 1014.452, 768.583 1014.667, 767.802 1015.021, 767.011 1015.500, 766.241 1016.086, 765.522 1016.757, 764.881 1017.487, 764.342 1018.248, 763.927 1019.010, 763.652 1020.722, 763.193 1021.520, 763.051 1022.386, 763.030 1023.287, 763.131 1024.189, 763.351 1025.056, 763.681 1025.856, 764.108 1026.558, 764.616 1027.135, 765.185 1033.628, 772.790 1037.888, 777.780 1038.994, 778.932 1040.257, 779.985 1041.628, 780.901 1043.055, 781.643 1044.483, 782.183 1045.857, 782.500 1047.124, 782.583 1048.236, 782.428 1049.188, 781.832 1050.106, 780.954 1050.955, 779.827 1051.701, 778.496 1052.318, 777.010 1052.779, 775.427 1053.069, 773.809 1053.176, 772.216 1053.262, 762.216 1053.318, 755.655 1053.394, 754.848 1053.605, 754.008 1053.943, 753.167 1054.396, 752.356 1054.945, 751.608 1055.571, 750.951 1056.247, 750.411 1056.950, 750.007 1058.557, 749.258 1059.317, 748.979 1060.167, 748.808 1061.072, 748.752 1061.998, 748.811 1062.910, 748.986 1063.772, 749.267 1064.551, 749.645 1065.218, 750.106 1072.933, 756.468 1077.995, 760.643 1079.284, 761.585 1080.710, 762.403 1082.220, 763.066 1083.754, 763.549 1085.254, 763.833 1086.662, 763.907 1087.925, 763.769 1088.993, 763.423 1089.827, 762.671 1090.578, 761.646 1091.218, 760.390 1091.723, 758.949 1092.071, 757.378 1092.251, 755.740 1092.256, 754.095 1092.085, 752.508 1090.432, 742.646 1089.348, 736.174 1089.283, 735.367 1089.345, 734.502 1089.532, 733.615 1089.837, 732.738 1090.248, 731.906 1090.750, 731.151 1091.323, 730.501 1091.944, 729.981 1093.396, 728.965 1094.097, 728.558 1094.904, 728.242 1095.786, 728.029 1096.708, 727.927 1097.636, 727.940 1098.534, 728.068 1099.367, 728.305 1100.104, 728.643 1108.806, 733.569 1114.517, 736.801 1115.949, 737.505 1117.496, 738.063 1119.098, 738.454 1120.693, 738.664 1122.219, 738.683 1123.619, 738.511 1124.838, 738.155 1125.830, 737.629 1126.521, 736.743 1127.083, 735.604 1127.495, 734.256 1127.741, 732.749 1127.812, 731.142 1127.705, 729.497 1127.424, 727.876 1126.980, 726.343 1123.640, 716.918 1121.448, 710.733 1121.244, 709.949 1121.155, 709.087 1121.185, 708.181 1121.333, 707.264 1121.594, 706.374 1121.957, 705.542 1122.408, 704.803 1122.930, 704.183 1124.183, 702.930 1124.803, 702.408 1125.542, 701.957 1126.374, 701.594 1127.264, 701.333 1128.181, 701.185 1129.087, 701.155 1129.949, 701.244 1130.733, 701.449 1140.159, 704.788 1146.343, 706.980 1147.876, 707.424 1149.497, 707.705 1151.142, 707.812 1152.749, 707.741 1154.256, 707.495 1155.604, 707.083 1156.743, 706.521 1157.629, 705.830 1158.155, 704.838 1158.511, 703.619 1158.683, 702.219 1158.663, 700.693 1158.454, 699.098 1158.063, 697.496 1157.505, 695.949 1156.801, 694.517 1151.875, 685.814 1148.643, 680.104 1148.305, 679.367 1148.068, 678.534 1147.940, 677.636 1147.927, 676.708 1148.029, 675.786 1148.242, 674.904 1148.558, 674.097 1148.965, 673.396 1149.981, 671.945 1150.501, 671.323 1151.151, 670.750 1151.906, 670.248 1152.739, 669.837 1153.615, 669.532 1154.502, 669.345 1155.367, 669.283 1156.174, 669.348 1166.037, 671.001 1172.508, 672.085 1174.095, 672.256 1175.740, 672.251 1177.378, 672.071 1178.949, 671.723 1180.390, 671.218 1181.646, 670.578 1182.671, 669.827 1183.422, 668.993 1183.769, 667.925 1183.907, 666.662 1183.833, 665.254 1183.549, 663.754 1183.066, 662.220 1182.403, 660.710 1181.585, 659.284 1180.643, 657.995 1174.281, 650.280 1170.106, 645.218 1169.646, 644.551 1169.267, 643.772 1168.985, 642.910 1168.811, 641.998 1168.751, 641.072 1168.808, 640.167 1168.979, 639.317 1169.258, 638.557 1170.007, 636.950 1170.411, 636.247 1170.951, 635.571 1171.608, 634.945 1172.356, 634.396 1173.167, 633.943 1174.008, 633.605 1174.848, 633.394 1175.655, 633.318 1185.655, 633.232 1192.216, 633.176 1193.808, 633.069 1195.427, 632.779 1197.010, 632.318 1198.496, 631.701 1199.827, 630.955 1200.954, 630.106 1201.832, 629.188 1202.428, 628.236 1202.583, 627.124 1202.500, 625.857 1202.183, 624.483 1201.643, 623.055 1200.901, 621.628 1199.985, 620.257 1198.932, 618.994 1197.780, 617.888 1190.175, 611.395 1185.185, 607.135 1184.616, 606.558 1184.108, 605.856 1183.681, 605.056 1183.351, 604.189 1183.131, 603.287 1183.030, 602.386 1183.051, 601.520 1183.193, 600.722 1183.652, 599.010 1183.927, 598.248 1184.342, 597.487 1184.881, 596.757 1185.522, 596.086 1186.241, 595.500 1187.011, 595.021 1187.802, 594.667 1188.583, 594.452 1198.416, 592.632 1204.868, 591.437 1206.418, 591.055 1207.962, 590.488 1209.440, 589.759 1210.796, 588.894 1211.978, 587.927 1212.940, 586.896 1213.645, 585.840 1214.067, 584.799 1214.027, 583.677 1213.725, 582.443 1213.174, 581.145 1212.394, 579.832 1211.415, 578.556 1210.276, 577.364 1209.019, 576.304 1207.693, 575.415 1199.076, 570.341 1193.422, 567.012 1192.761, 566.543 1192.139, 565.940 1191.579, 565.226 1191.104, 564.429 1190.731, 563.579 1190.474, 562.709 1190.345, 561.853 1190.347, 561.042 1190.501, 559.277 1190.640, 558.478 1190.917, 557.657 1191.320, 556.845 1191.835, 556.073 1192.442, 555.370 1193.116, 554.765 1193.834, 554.279 1194.566, 553.932 1203.933, 550.431 1210.080, 548.135 1211.540, 547.489 1212.962, 546.663 1214.291, 545.688 1215.476, 544.601 1216.472, 543.444 1217.241, 542.261 1217.752, 541.098 1217.986, 540.000 1217.752, 538.902 1217.241, 537.739 1216.472, 536.556 1215.476, 535.399 1214.291, 534.312 1212.962, 533.337 1211.540, 532.511 1210.080, 531.865 1200.712, 528.365 1194.566, 526.068 1193.834, 525.721 1193.116, 525.235 1192.442, 524.630 1191.835, 523.927 1191.320, 523.155 1190.917, 522.343 1190.640, 521.522 1190.501, 520.723 1190.347, 518.958 1190.345, 518.147 1190.474, 517.291 1190.731, 516.421 1191.104, 515.571 1191.579, 514.774 1192.139, 514.060 1192.761, 513.457 1193.422, 512.988 1202.039, 507.914 1207.693, 504.585 1209.019, 503.696 1210.276, 502.636 1211.415, 501.444 1212.394, 500.168 1213.174, 498.855 1213.725, 497.557 1214.027, 496.323 1214.067, 495.201 1213.645, 494.160 1212.940, 493.104 1211.978, 492.073 1210.796, 491.106 1209.440, 490.241 1207.962, 489.512 1206.418, 488.945 1204.868, 488.563 1195.035, 486.742 1188.583, 485.548 1187.802, 485.333 1187.011, 484.979 1186.241, 484.500 1185.522, 483.914 1184.881, 483.243 1184.342, 482.513 1183.927, 481.752 1183.652, 480.990 1183.193, 479.278 1183.051, 478.480 1183.030, 477.614 1183.131, 476.713 1183.351, 475.811 1183.681, 474.944 1184.108, 474.144 1184.616, 473.442 1185.185, 472.865 1192.790, 466.372 1197.780, 462.112 1198.932, 461.006 1199.985, 459.743 1200.901, 458.372 1201.643, 456.945 1202.183, 455.517 1202.500, 454.143 1202.583, 452.876 1202.428, 451.764 1201.832, 450.812 1200.954, 449.894 1199.827, 449.045 1198.496, 448.299 1197.010, 447.682 1195.427, 447.221 1193.808, 446.931 1192.216, 446.824 1182.216, 446.738 1175.655, 446.682 1174.848, 446.606 1174.008, 446.395 1173.167, 446.057 1172.356, 445.604 1171.608, 445.055 1170.951, 444.430 1170.411, 443.753 1170.007, 443.050 1169.258, 441.444 1168.979, 440.683 1168.808, 439.833 1168.751, 438.928 1168.811, 438.002 1168.985, 437.090 1169.267, 436.228 1169.646, 435.449 1170.106, 434.782 1176.468, 427.067 1180.643, 422.005 1181.585, 420.716 1182.403, 419.290 1183.066, 417.780 1183.549, 416.246 1183.833, 414.746 1183.907, 413.338 1183.769, 412.075 1183.422, 411.007 " />
            <path fill="none" stroke-width="3.0" stroke-linecap="butt" stroke-opacity="1.0" stroke="rgb(0, 0, 0)" stroke-linejoin="bevel" d=" M 960.000, 657.285 961.518, 657.136 963.031, 656.677 964.425, 655.932 965.646, 654.930 966.649, 653.708 967.395, 652.313 967.854, 650.800 968.009, 649.227 967.855, 647.653 967.797, 647.464 967.396, 646.140 966.651, 644.745 965.649, 643.523 964.428, 642.519 963.034, 641.773 961.522, 641.314 960.000, 641.164 " />
            <path fill="none" stroke-width="3.0" stroke-linecap="butt" stroke-opacity="1.0" stroke="rgb(0, 0, 0)" stroke-linejoin="bevel" d=" M 960.000, 641.164 960.000, 640.951 960.000, 630.951 960.000, 625.022 " />
            <path fill="none" stroke-width="3.0" stroke-linecap="butt" stroke-opacity="1.0" stroke="rgb(0, 0, 0)" stroke-linejoin="bevel" d=" M 960.000, 625.022 961.526, 624.872 963.038, 624.413 964.432, 623.668 965.654, 622.666 966.657, 621.444 967.402, 620.049 967.861, 618.536 968.017, 616.963 967.862, 615.389 967.404, 613.876 966.659, 612.481 965.657, 611.258 964.435, 610.255 963.042, 609.509 961.529, 609.050 960.000, 608.899 960.000, 609.072 " />
            <path fill="none" stroke-width="3.0" stroke-linecap="butt" stroke-opacity="1.0" stroke="rgb(0, 0, 0)" stroke-linejoin="bevel" d=" M 960.000, 608.899 960.000, 598.899 960.000, 588.899 960.000, 578.899 960.000, 568.899 960.000, 558.899 960.000, 556.124 " />
            <path fill="none" stroke-width="3.0" stroke-linecap="butt" stroke-opacity="1.0" stroke="rgb(0, 0, 0)" stroke-linejoin="bevel" d=" M 960.000, 556.124 962.844, 556.124 962.845, 556.124 965.869, 556.124 965.869, 556.124 969.309, 556.124 969.309, 556.124 973.530, 556.124 973.530, 556.124 976.124, 556.124 976.124, 553.530 976.124, 553.530 " />
            <path fill="none" stroke-width="3.0" stroke-linecap="butt" stroke-opacity="1.0" stroke="rgb(0, 0, 0)" stroke-linejoin="bevel" d=" M 962.843, 556.124 962.809, 555.931 962.843, 556.124 964.580, 565.972 966.316, 575.820 968.053, 585.668 969.789, 595.516 971.526, 605.365 973.262, 615.213 974.998, 625.061 976.735, 634.909 978.471, 644.757 980.208, 654.605 981.944, 664.453 983.681, 674.301 985.417, 684.149 987.154, 693.997 988.890, 703.845 990.627, 713.693 992.363, 723.541 994.100, 733.390 995.836, 743.238 997.573, 753.086 999.309, 762.934 1001.046, 772.782 1002.782, 782.630 1004.799, 794.067 " />
            <path fill="none" stroke-width="3.0" stroke-linecap="butt" stroke-opacity="1.0" stroke="rgb(0, 0, 0)" stroke-linejoin="bevel" d=" M 960.000, 797.986 960.000, 787.986 960.000, 777.986 960.000, 767.986 960.000, 757.986 960.000, 747.986 960.000, 737.986 960.000, 727.986 960.000, 721.812 " />
            <path fill="none" stroke-width="3.0" stroke-linecap="butt" stroke-opacity="1.0" stroke="rgb(0, 0, 0)" stroke-linejoin="bevel" d=" M 960.000, 721.812 961.503, 721.664 963.016, 721.206 964.410, 720.461 965.632, 719.458 966.634, 718.236 967.380, 716.842 967.839, 715.328 967.994, 713.755 967.907, 712.867 967.840, 712.181 967.381, 710.668 966.637, 709.273 965.634, 708.051 964.413, 707.047 963.019, 706.302 961.507, 705.842 960.000, 705.693 959.934, 705.687 958.361, 705.841 956.849, 706.300 955.455, 707.045 954.233, 708.048 953.230, 709.270 952.484, 710.664 952.052, 712.092 951.994, 712.280 951.870, 713.751 952.025, 715.324 952.483, 716.838 953.228, 718.232 954.230, 719.455 955.451, 720.458 956.845, 721.204 958.357, 721.664 959.930, 721.819 960.000, 721.812 960.000, 720.641 " />
            <path fill="none" stroke-width="3.0" stroke-linecap="butt" stroke-opacity="1.0" stroke="rgb(0, 0, 0)" stroke-linejoin="bevel" d=" M 960.000, 657.285 960.000, 667.285 960.000, 673.429 " />
            <path fill="none" stroke-width="3.0" stroke-linecap="butt" stroke-opacity="1.0" stroke="rgb(0, 0, 0)" stroke-linejoin="bevel" d=" M 960.000, 689.549 960.000, 699.549 960.000, 704.710 960.000, 705.693 " />
            <path fill="none" stroke-width="3.0" stroke-linecap="butt" stroke-opacity="1.0" stroke="rgb(0, 0, 0)" stroke-linejoin="bevel" d=" M 960.000, 689.549 961.511, 689.400 963.023, 688.942 964.417, 688.197 965.639, 687.194 966.642, 685.972 967.387, 684.577 967.846, 683.064 968.002, 681.491 967.847, 679.917 967.846, 679.914 967.389, 678.404 966.644, 677.009 965.642, 675.787 964.420, 674.783 963.027, 674.038 961.514, 673.578 960.000, 673.429 959.941, 673.423 958.369, 673.577 956.856, 674.036 955.462, 674.781 954.240, 675.784 953.237, 677.006 952.492, 678.400 952.115, 679.641 952.033, 679.913 951.878, 681.487 952.032, 683.060 952.490, 684.574 953.235, 685.968 954.238, 687.191 955.459, 688.194 956.853, 688.940 958.365, 689.399 959.938, 689.555 960.000, 689.549 960.000, 688.763 " />
            <path fill="none" stroke-width="3.0" stroke-linecap="butt" stroke-opacity="1.0" stroke="rgb(0, 0, 0)" stroke-linejoin="bevel" d=" M 960.000, 555.931 960.000, 556.124 957.159, 556.124 957.158, 556.124 " />
            <path fill="none" stroke-width="3.0" stroke-linecap="butt" stroke-opacity="1.0" stroke="rgb(0, 0, 0)" stroke-linejoin="bevel" d=" M 960.000, 625.008 960.000, 635.008 960.000, 640.951 " />
            <path fill="none" stroke-width="3.0" stroke-linecap="butt" stroke-opacity="1.0" stroke="rgb(0, 0, 0)" stroke-linejoin="bevel" d=" M 960.000, 625.008 960.000, 625.022 959.953, 625.027 958.380, 624.871 956.868, 624.412 955.474, 623.666 954.253, 622.663 953.250, 621.440 952.505, 620.045 952.047, 618.532 951.893, 616.958 952.048, 615.385 952.507, 613.872 953.252, 612.478 954.255, 611.256 955.477, 610.253 956.871, 609.508 958.384, 609.049 959.956, 608.895 960.000, 608.899 " />
            <path fill="none" stroke-width="3.0" stroke-linecap="butt" stroke-opacity="1.0" stroke="rgb(0, 0, 0)" stroke-linejoin="bevel" d=" M 960.000, 656.886 960.000, 657.285 959.945, 657.291 958.372, 657.135 956.860, 656.676 955.466, 655.930 954.245, 654.927 953.243, 653.704 952.498, 652.309 952.040, 650.796 951.885, 649.223 952.040, 647.649 952.499, 646.136 952.580, 645.985 953.245, 644.742 954.248, 643.520 955.470, 642.517 956.864, 641.772 958.376, 641.313 959.949, 641.159 960.000, 641.164 960.000, 640.951 " />
            <path fill="none" stroke-width="3.0" stroke-linecap="butt" stroke-opacity="1.0" stroke="rgb(0, 0, 0)" stroke-linejoin="bevel" d=" M 967.907, 712.867 967.772, 714.233 967.319, 715.727 966.582, 717.105 965.591, 718.313 964.384, 719.303 963.007, 720.040 961.512, 720.493 960.000, 720.641 959.958, 720.645 958.404, 720.492 956.910, 720.038 955.533, 719.301 954.326, 718.310 953.336, 717.102 952.600, 715.724 952.147, 714.229 951.994, 712.674 952.052, 712.092 " />
            <path fill="none" stroke-width="3.0" stroke-linecap="butt" stroke-opacity="1.0" stroke="rgb(0, 0, 0)" stroke-linejoin="bevel" d=" M 976.124, 534.131 975.931, 534.201 975.931, 537.191 975.931, 540.000 975.931, 542.809 975.931, 545.799 975.931, 549.198 975.931, 553.368 975.931, 555.931 973.368, 555.931 969.198, 555.931 965.799, 555.931 962.809, 555.931 960.000, 555.931 957.191, 555.931 954.201, 555.931 950.802, 555.931 946.632, 555.931 944.069, 555.931 944.069, 553.368 944.069, 549.198 944.069, 545.799 944.069, 542.809 944.069, 540.000 944.069, 537.191 944.069, 534.201 944.069, 530.802 944.069, 526.632 944.069, 524.069 946.632, 524.069 950.802, 524.069 954.201, 524.069 957.191, 524.069 960.000, 524.069 962.809, 524.069 965.799, 524.069 969.198, 524.069 973.368, 524.069 975.931, 524.069 975.931, 526.632 975.931, 530.802 975.931, 534.201 " />
            <path fill="none" stroke-width="3.0" stroke-linecap="butt" stroke-opacity="1.0" stroke="rgb(0, 0, 0)" stroke-linejoin="bevel" d=" M 960.000, 609.072 961.538, 609.224 963.032, 609.678 964.409, 610.415 965.616, 611.406 966.606, 612.614 967.342, 613.992 967.795, 615.487 967.948, 617.042 967.794, 618.597 967.341, 620.092 966.604, 621.469 965.613, 622.677 964.406, 623.668 963.029, 624.404 961.534, 624.857 960.000, 625.008 959.980, 625.010 958.426, 624.856 956.932, 624.402 955.555, 623.665 954.348, 622.674 953.358, 621.466 952.622, 620.088 952.169, 618.593 952.016, 617.038 952.170, 615.483 952.623, 613.988 953.360, 612.611 954.351, 611.403 955.558, 610.412 956.935, 609.676 958.430, 609.223 959.984, 609.070 960.000, 609.072 " />
            <path fill="none" stroke-width="3.0" stroke-linecap="butt" stroke-opacity="1.0" stroke="rgb(0, 0, 0)" stroke-linejoin="bevel" d=" M 967.846, 679.914 967.933, 680.799 967.780, 682.354 967.326, 683.849 966.590, 685.227 965.599, 686.434 964.391, 687.425 963.014, 688.161 961.520, 688.614 960.000, 688.763 959.965, 688.767 958.411, 688.613 956.917, 688.159 955.540, 687.423 954.333, 686.431 953.343, 685.223 952.607, 683.845 952.154, 682.350 952.002, 680.795 952.115, 679.641 " />
            <path fill="none" stroke-width="3.0" stroke-linecap="butt" stroke-opacity="1.0" stroke="rgb(0, 0, 0)" stroke-linejoin="bevel" d=" M 967.797, 647.464 967.940, 648.921 967.787, 650.475 967.333, 651.970 966.597, 653.348 965.606, 654.555 964.399, 655.546 963.021, 656.282 961.527, 656.735 960.000, 656.886 959.973, 656.888 958.419, 656.735 956.925, 656.281 955.548, 655.544 954.341, 654.552 953.350, 653.345 952.615, 651.966 952.162, 650.471 952.009, 648.916 952.162, 647.362 952.580, 645.985 " />
            <path fill="none" stroke-width="3.0" stroke-linecap="butt" stroke-opacity="1.0" stroke="rgb(0, 0, 0)" stroke-linejoin="bevel" d=" M 965.869, 556.124 965.799, 555.931 965.869, 556.124 969.289, 565.521 972.709, 574.918 976.129, 584.315 979.549, 593.712 982.970, 603.109 986.390, 612.506 989.810, 621.903 993.230, 631.300 996.651, 640.696 1000.071, 650.093 1003.491, 659.490 1006.911, 668.887 1010.331, 678.284 1013.752, 687.681 1017.172, 697.078 1020.592, 706.475 1024.012, 715.872 1027.432, 725.269 1030.853, 734.666 1034.273, 744.063 1037.693, 753.460 1041.113, 762.857 1044.533, 772.253 1048.236, 782.428 " />
            <path fill="none" stroke-width="3.0" stroke-linecap="butt" stroke-opacity="1.0" stroke="rgb(0, 0, 0)" stroke-linejoin="bevel" d=" M 969.309, 556.124 969.198, 555.931 969.309, 556.124 974.309, 564.784 979.309, 573.445 984.309, 582.105 989.309, 590.765 994.309, 599.425 999.309, 608.086 1004.309, 616.746 1009.309, 625.406 1014.309, 634.066 1019.309, 642.727 1024.309, 651.387 1029.309, 660.047 1034.309, 668.707 1039.309, 677.368 1044.309, 686.028 1049.309, 694.688 1054.309, 703.348 1059.309, 712.009 1064.309, 720.669 1069.309, 729.329 1074.309, 737.989 1079.309, 746.650 1084.309, 755.310 1088.993, 763.423 " />
            <path fill="none" stroke-width="3.0" stroke-linecap="butt" stroke-opacity="1.0" stroke="rgb(0, 0, 0)" stroke-linejoin="bevel" d=" M 973.530, 556.124 973.368, 555.931 973.530, 556.124 979.958, 563.785 986.385, 571.445 992.813, 579.105 999.241, 586.766 1005.669, 594.426 1012.097, 602.087 1018.525, 609.747 1024.953, 617.408 1031.381, 625.068 1037.808, 632.729 1044.236, 640.389 1050.664, 648.049 1057.092, 655.710 1063.520, 663.370 1069.948, 671.031 1076.376, 678.691 1082.804, 686.352 1089.232, 694.012 1095.659, 701.673 1102.087, 709.333 1108.515, 716.993 1114.943, 724.654 1121.371, 732.314 1125.830, 737.629 " />
            <path fill="none" stroke-width="3.0" stroke-linecap="butt" stroke-opacity="1.0" stroke="rgb(0, 0, 0)" stroke-linejoin="bevel" d=" M 975.931, 553.368 976.124, 553.530 983.785, 559.958 991.445, 566.385 999.105, 572.813 1006.766, 579.241 1014.426, 585.669 1022.087, 592.097 1029.747, 598.525 1037.408, 604.953 1045.068, 611.381 1052.729, 617.809 1060.389, 624.236 1068.049, 630.664 1075.710, 637.092 1083.370, 643.520 1091.031, 649.948 1098.691, 656.376 1106.352, 662.804 1114.012, 669.232 1121.673, 675.659 1129.333, 682.087 1136.993, 688.515 1144.654, 694.943 1152.314, 701.371 1157.629, 705.830 " />
            <path fill="none" stroke-width="3.0" stroke-linecap="butt" stroke-opacity="1.0" stroke="rgb(0, 0, 0)" stroke-linejoin="bevel" d=" M 975.931, 549.198 976.124, 549.309 984.784, 554.309 993.445, 559.309 1002.105, 564.309 1010.765, 569.309 1019.425, 574.309 1028.086, 579.309 1036.746, 584.309 1045.406, 589.309 1054.066, 594.309 1062.727, 599.309 1071.387, 604.309 1080.047, 609.309 1088.707, 614.309 1097.368, 619.309 1106.028, 624.309 1114.688, 629.309 1123.349, 634.309 1132.009, 639.309 1140.669, 644.309 1149.329, 649.309 1157.990, 654.309 1166.650, 659.309 1175.310, 664.309 1183.422, 668.993 " />
            <path fill="none" stroke-width="3.0" stroke-linecap="butt" stroke-opacity="1.0" stroke="rgb(0, 0, 0)" stroke-linejoin="bevel" d=" M 976.124, 553.530 976.124, 549.309 976.124, 549.309 " />
            <path fill="none" stroke-width="3.0" stroke-linecap="butt" stroke-opacity="1.0" stroke="rgb(0, 0, 0)" stroke-linejoin="bevel" d=" M 975.931, 545.799 976.124, 545.869 985.521, 549.289 994.918, 552.709 1004.315, 556.129 1013.712, 559.549 1023.109, 562.970 1032.506, 566.390 1041.903, 569.810 1051.300, 573.230 1060.696, 576.651 1070.093, 580.071 1079.490, 583.491 1088.887, 586.911 1098.284, 590.331 1107.681, 593.752 1117.078, 597.172 1126.475, 600.592 1135.872, 604.012 1145.269, 607.432 1154.666, 610.853 1164.063, 614.273 1173.460, 617.693 1182.856, 621.113 1192.253, 624.533 1202.428, 628.236 " />
            <path fill="none" stroke-width="3.0" stroke-linecap="butt" stroke-opacity="1.0" stroke="rgb(0, 0, 0)" stroke-linejoin="bevel" d=" M 976.124, 549.309 976.124, 545.869 976.124, 545.869 " />
            <path fill="none" stroke-width="3.0" stroke-linecap="butt" stroke-opacity="1.0" stroke="rgb(0, 0, 0)" stroke-linejoin="bevel" d=" M 975.931, 542.809 976.124, 542.843 985.972, 544.580 995.820, 546.316 1005.668, 548.053 1015.516, 549.789 1025.365, 551.526 1035.213, 553.262 1045.061, 554.998 1054.909, 556.735 1064.757, 558.471 1074.605, 560.208 1084.453, 561.944 1094.301, 563.681 1104.149, 565.417 1113.997, 567.154 1123.845, 568.890 1133.693, 570.627 1143.542, 572.363 1153.390, 574.100 1163.238, 575.836 1173.086, 577.573 1182.934, 579.309 1192.782, 581.046 1202.630, 582.782 1214.067, 584.799 " />
            <path fill="none" stroke-width="3.0" stroke-linecap="butt" stroke-opacity="1.0" stroke="rgb(0, 0, 0)" stroke-linejoin="bevel" d=" M 976.124, 545.869 976.124, 542.843 976.124, 542.843 " />
            <path fill="none" stroke-width="3.0" stroke-linecap="butt" stroke-opacity="1.0" stroke="rgb(0, 0, 0)" stroke-linejoin="bevel" d=" M 976.124, 540.000 975.931, 540.000 976.124, 540.000 986.124, 540.000 996.124, 540.000 1006.124, 540.000 1016.124, 540.000 1026.124, 540.000 1028.930, 540.000 1029.871, 540.000 " />
            <path fill="none" stroke-width="3.0" stroke-linecap="butt" stroke-opacity="1.0" stroke="rgb(0, 0, 0)" stroke-linejoin="bevel" d=" M 1029.871, 540.000 1030.026, 541.573 1030.485, 543.085 1031.230, 544.479 1032.233, 545.701 1033.454, 546.703 1034.848, 547.448 1036.338, 547.900 1036.360, 547.907 1037.933, 548.062 1039.506, 547.907 1041.019, 547.448 1042.412, 546.703 1043.634, 545.701 1044.637, 544.479 1045.382, 543.085 1045.840, 541.573 1046.018, 540.003 1045.995, 540.000 1045.995, 540.000 1045.840, 538.427 1045.382, 536.915 1044.637, 535.521 1043.634, 534.299 1042.412, 533.297 1041.019, 532.552 1039.506, 532.093 1037.933, 531.938 1036.360, 532.093 1036.338, 532.100 1034.848, 532.552 1033.454, 533.297 1032.233, 534.299 1031.230, 535.521 1030.485, 536.915 1030.026, 538.427 1029.882, 539.893 1029.871, 540.000 " />
            <path fill="none" stroke-width="3.0" stroke-linecap="butt" stroke-opacity="1.0" stroke="rgb(0, 0, 0)" stroke-linejoin="bevel" d=" M 1045.995, 540.000 1044.968, 540.000 1046.018, 540.003 1056.018, 540.001 1060.793, 540.000 1062.120, 540.000 " />
            <path fill="none" stroke-width="3.0" stroke-linecap="butt" stroke-opacity="1.0" stroke="rgb(0, 0, 0)" stroke-linejoin="bevel" d=" M 1062.120, 540.000 1062.274, 541.573 1062.733, 543.085 1063.478, 544.479 1064.481, 545.701 1065.703, 546.703 1067.096, 547.448 1068.609, 547.907 1069.034, 547.949 1070.182, 548.062 1071.754, 547.907 1073.267, 547.448 1074.661, 546.703 1075.882, 545.701 1076.885, 544.479 1077.630, 543.085 1078.089, 541.573 1078.351, 540.000 1078.276, 540.000 1078.244, 540.000 1078.089, 538.427 1077.630, 536.915 1076.885, 535.521 1075.882, 534.299 1074.661, 533.297 1073.267, 532.552 1071.754, 532.093 1070.182, 531.938 1069.034, 532.051 1068.609, 532.093 1067.096, 532.552 1065.703, 533.297 1064.481, 534.299 1063.478, 535.521 1062.733, 536.915 1062.274, 538.427 1062.130, 539.893 1062.120, 540.000 " />
            <path fill="none" stroke-width="3.0" stroke-linecap="butt" stroke-opacity="1.0" stroke="rgb(0, 0, 0)" stroke-linejoin="bevel" d=" M 1214.903, 540.000 1204.903, 540.000 1194.903, 540.000 1184.903, 540.000 1174.903, 540.000 1164.903, 540.000 1154.903, 540.000 1144.903, 540.000 1142.740, 540.000 1140.557, 540.000 1142.836, 540.001 1152.836, 540.001 1162.836, 540.001 1172.836, 540.000 1182.836, 540.000 1192.836, 540.000 1202.836, 540.000 1212.836, 540.000 1217.986, 540.000 " />
            <path fill="none" stroke-width="3.0" stroke-linecap="butt" stroke-opacity="1.0" stroke="rgb(0, 0, 0)" stroke-linejoin="bevel" d=" M 1142.585, 541.573 1142.836, 540.001 1142.740, 540.000 1142.740, 540.000 1142.585, 538.427 1142.126, 536.915 1141.381, 535.521 1140.379, 534.299 1139.157, 533.297 1137.763, 532.552 1136.251, 532.093 1134.678, 531.938 1133.208, 532.062 1133.127, 532.087 1131.593, 532.552 1130.199, 533.297 1128.977, 534.299 1127.975, 535.521 1127.230, 536.915 1126.771, 538.427 1126.509, 540.000 1126.616, 540.000 1126.771, 541.573 1127.230, 543.085 1127.975, 544.479 1128.977, 545.701 1130.199, 546.703 1131.593, 547.448 1133.105, 547.907 1133.146, 547.911 1134.678, 548.062 1136.251, 547.907 1137.763, 547.448 1139.157, 546.703 1140.379, 545.701 1141.381, 544.479 1142.126, 543.085 1142.585, 541.573 " />
            <path fill="none" stroke-width="3.0" stroke-linecap="butt" stroke-opacity="1.0" stroke="rgb(0, 0, 0)" stroke-linejoin="bevel" d=" M 1110.599, 540.000 1108.694, 540.000 1110.599, 540.000 1120.599, 540.000 1124.625, 540.000 1126.616, 540.000 " />
            <path fill="none" stroke-width="3.0" stroke-linecap="butt" stroke-opacity="1.0" stroke="rgb(0, 0, 0)" stroke-linejoin="bevel" d=" M 1110.337, 541.573 1110.599, 540.000 1110.599, 540.000 1110.546, 540.000 1110.492, 540.000 1110.337, 538.427 1109.878, 536.915 1109.133, 535.521 1108.131, 534.299 1106.909, 533.297 1105.515, 532.552 1104.003, 532.093 1102.430, 531.938 1101.090, 532.070 1100.857, 532.093 1099.345, 532.552 1097.951, 533.297 1096.729, 534.299 1095.726, 535.521 1094.981, 536.915 1094.523, 538.427 1094.260, 540.000 1094.368, 540.000 1094.523, 541.573 1094.981, 543.085 1095.726, 544.479 1096.729, 545.701 1097.951, 546.703 1099.345, 547.448 1100.857, 547.907 1101.090, 547.930 1102.430, 548.062 1104.003, 547.907 1105.515, 547.448 1106.909, 546.703 1108.131, 545.701 1109.133, 544.479 1109.878, 543.085 1110.337, 541.573 " />
            <path fill="none" stroke-width="3.0" stroke-linecap="butt" stroke-opacity="1.0" stroke="rgb(0, 0, 0)" stroke-linejoin="bevel" d=" M 1078.351, 540.000 1088.351, 540.000 1092.656, 540.000 1094.368, 540.000 1092.656, 540.000 1082.656, 540.000 1078.276, 540.000 1076.831, 540.000 1078.351, 540.000 " />
            <path fill="none" stroke-width="3.0" stroke-linecap="butt" stroke-opacity="1.0" stroke="rgb(0, 0, 0)" stroke-linejoin="bevel" d=" M 1126.616, 540.000 1124.625, 540.000 1114.625, 540.000 1110.546, 540.000 1108.694, 540.000 " />
            <path fill="none" stroke-width="3.0" stroke-linecap="butt" stroke-opacity="1.0" stroke="rgb(0, 0, 0)" stroke-linejoin="bevel" d=" M 1101.090, 532.070 1102.282, 532.187 1103.776, 532.641 1105.154, 533.377 1106.361, 534.367 1107.351, 535.574 1108.087, 536.952 1108.541, 538.446 1108.799, 539.990 1108.694, 540.000 1108.541, 541.554 1108.087, 543.048 1107.351, 544.426 1106.361, 545.633 1105.154, 546.623 1103.776, 547.359 1102.282, 547.813 1101.090, 547.930 " />
            <path fill="none" stroke-width="3.0" stroke-linecap="butt" stroke-opacity="1.0" stroke="rgb(0, 0, 0)" stroke-linejoin="bevel" d=" M 1069.034, 532.051 1070.419, 532.187 1071.913, 532.641 1073.291, 533.377 1074.498, 534.367 1075.488, 535.574 1076.224, 536.952 1076.678, 538.446 1076.937, 540.000 1076.831, 540.000 1076.678, 541.554 1076.224, 543.048 1075.488, 544.426 1074.498, 545.633 1073.291, 546.623 1071.913, 547.359 1070.419, 547.813 1069.034, 547.949 " />
            <path fill="none" stroke-width="3.0" stroke-linecap="butt" stroke-opacity="1.0" stroke="rgb(0, 0, 0)" stroke-linejoin="bevel" d=" M 1036.338, 532.100 1037.002, 532.034 1038.556, 532.187 1040.050, 532.641 1041.428, 533.377 1042.635, 534.367 1043.625, 535.574 1044.361, 536.952 1044.815, 538.446 1045.074, 540.000 1044.968, 540.000 1044.815, 541.554 1044.361, 543.048 1043.625, 544.426 1042.635, 545.633 1041.428, 546.623 1040.050, 547.359 1038.556, 547.813 1037.002, 547.966 1036.338, 547.900 " />
            <path fill="none" stroke-width="3.0" stroke-linecap="butt" stroke-opacity="1.0" stroke="rgb(0, 0, 0)" stroke-linejoin="bevel" d=" M 1133.127, 532.087 1134.145, 532.187 1135.639, 532.641 1137.016, 533.377 1138.224, 534.367 1139.214, 535.574 1139.950, 536.952 1140.404, 538.446 1140.546, 539.894 1140.557, 540.000 1140.404, 541.554 1139.950, 543.048 1139.214, 544.426 1138.224, 545.633 1137.016, 546.623 1135.639, 547.359 1134.145, 547.813 1133.146, 547.911 " />
            <path fill="none" stroke-width="3.0" stroke-linecap="butt" stroke-opacity="1.0" stroke="rgb(0, 0, 0)" stroke-linejoin="bevel" d=" M 976.124, 537.157 975.931, 537.191 976.124, 537.157 985.972, 535.420 995.820, 533.684 1005.668, 531.947 1015.516, 530.211 1025.365, 528.474 1035.213, 526.738 1045.061, 525.002 1054.909, 523.265 1064.757, 521.529 1074.605, 519.792 1084.453, 518.056 1094.301, 516.319 1104.149, 514.583 1113.997, 512.846 1123.845, 511.110 1133.693, 509.373 1143.542, 507.637 1153.390, 505.900 1163.238, 504.164 1173.086, 502.427 1182.934, 500.691 1192.782, 498.954 1202.630, 497.218 1214.067, 495.201 " />
            <path fill="none" stroke-width="3.0" stroke-linecap="butt" stroke-opacity="1.0" stroke="rgb(0, 0, 0)" stroke-linejoin="bevel" d=" M 976.124, 542.843 976.124, 540.000 976.124, 540.000 976.124, 537.157 976.124, 537.157 976.124, 534.131 976.124, 534.131 976.124, 530.691 976.124, 530.691 " />
            <path fill="none" stroke-width="3.0" stroke-linecap="butt" stroke-opacity="1.0" stroke="rgb(0, 0, 0)" stroke-linejoin="bevel" d=" M 976.124, 534.131 985.521, 530.711 994.918, 527.291 1004.315, 523.871 1013.712, 520.451 1023.109, 517.030 1032.506, 513.610 1041.903, 510.190 1051.300, 506.770 1060.696, 503.349 1070.093, 499.929 1079.490, 496.509 1088.887, 493.089 1098.284, 489.669 1107.681, 486.248 1117.078, 482.828 1126.475, 479.408 1135.872, 475.988 1145.269, 472.568 1154.666, 469.147 1164.063, 465.727 1173.460, 462.307 1182.856, 458.887 1192.253, 455.467 1202.428, 451.764 " />
            <path fill="none" stroke-width="3.0" stroke-linecap="butt" stroke-opacity="1.0" stroke="rgb(0, 0, 0)" stroke-linejoin="bevel" d=" M 915.201, 285.933 916.323, 285.973 917.557, 286.275 918.855, 286.826 920.168, 287.606 921.444, 288.585 922.636, 289.724 923.696, 290.981 924.585, 292.307 929.659, 300.924 932.988, 306.578 933.457, 307.239 934.060, 307.861 934.774, 308.421 935.571, 308.896 936.421, 309.269 937.291, 309.526 938.147, 309.655 938.958, 309.654 940.723, 309.499 941.522, 309.360 942.343, 309.084 943.155, 308.680 943.927, 308.165 944.630, 307.559 945.235, 306.884 945.721, 306.166 946.068, 305.434 949.569, 296.067 951.865, 289.920 952.510, 288.460 953.337, 287.038 954.312, 285.709 955.399, 284.524 956.556, 283.528 957.739, 282.759 958.902, 282.248 960.000, 282.014 961.098, 282.248 962.261, 282.759 963.444, 283.528 964.601, 284.524 965.688, 285.709 966.663, 287.038 967.489, 288.460 968.135, 289.920 971.635, 299.288 973.932, 305.434 974.279, 306.166 974.765, 306.884 975.370, 307.559 976.073, 308.165 976.845, 308.680 977.657, 309.084 978.478, 309.360 979.277, 309.499 981.042, 309.654 981.853, 309.655 982.709, 309.526 983.579, 309.269 984.429, 308.896 985.226, 308.421 985.940, 307.861 986.543, 307.239 987.012, 306.578 992.086, 297.961 995.415, 292.307 996.304, 290.981 997.364, 289.724 998.556, 288.585 999.832, 287.606 1001.145, 286.826 1002.443, 286.275 1003.677, 285.973 1004.799, 285.933 1005.840, 286.355 1006.896, 287.060 1007.927, 288.022 1008.894, 289.204 1009.759, 290.560 1010.488, 292.038 1011.055, 293.582 1011.437, 295.132 1013.258, 304.965 1014.452, 311.417 1014.667, 312.198 1015.021, 312.989 1015.500, 313.759 1016.086, 314.478 1016.757, 315.119 1017.487, 315.658 1018.248, 316.073 1019.010, 316.348 1020.722, 316.807 1021.520, 316.949 1022.386, 316.970 1023.287, 316.869 1024.189, 316.649 1025.056, 316.319 1025.856, 315.892 1026.558, 315.384 1027.135, 314.815 1033.628, 307.210 1037.888, 302.220 1038.994, 301.068 1040.256, 300.015 1041.628, 299.099 1043.055, 298.357 1044.483, 297.817 1045.857, 297.500 1047.124, 297.417 1048.236, 297.572 1049.188, 298.168 1050.106, 299.046 1050.955, 300.173 1051.701, 301.504 1052.318, 302.990 1052.779, 304.573 1053.069, 306.192 1053.176, 307.784 1053.262, 317.784 1053.318, 324.345 1053.394, 325.152 1053.605, 325.992 1053.943, 326.833 1054.396, 327.644 1054.945, 328.392 1055.570, 329.049 1056.247, 329.589 1056.950, 329.993 1058.557, 330.742 1059.317, 331.021 1060.167, 331.192 1061.072, 331.249 1061.998, 331.189 1062.910, 331.015 1063.772, 330.733 1064.551, 330.355 1065.218, 329.894 1072.933, 323.532 1077.995, 319.357 1079.284, 318.416 1080.710, 317.597 1082.219, 316.934 1083.754, 316.451 1085.254, 316.167 1086.662, 316.093 1087.925, 316.231 1088.993, 316.578 1089.827, 317.330 1090.578, 318.354 1091.218, 319.610 1091.723, 321.051 1092.071, 322.622 1092.251, 324.260 1092.256, 325.905 1092.085, 327.492 1090.432, 337.354 1089.348, 343.826 1089.283, 344.633 1089.345, 345.498 1089.532, 346.385 1089.837, 347.262 1090.248, 348.094 1090.750, 348.849 1091.323, 349.499 1091.944, 350.019 1093.396, 351.035 1094.097, 351.442 1094.904, 351.758 1095.786, 351.971 1096.708, 352.073 1097.636, 352.060 1098.534, 351.932 1099.367, 351.695 1100.104, 351.357 1108.806, 346.431 1114.517, 343.199 1115.949, 342.495 1117.496, 341.937 1119.098, 341.546 1120.693, 341.337 1122.219, 341.317 1123.619, 341.489 1124.838, 341.845 1125.830, 342.371 1126.521, 343.257 1127.083, 344.396 1127.495, 345.744 1127.741, 347.251 1127.812, 348.858 1127.705, 350.503 1127.424, 352.124 1126.980, 353.657 1123.640, 363.083 1121.448, 369.267 1121.244, 370.051 1121.155, 370.913 1121.185, 371.819 1121.333, 372.736 1121.594, 373.626 1121.957, 374.458 1122.408, 375.197 1122.930, 375.817 1124.183, 377.070 1124.803, 377.592 1125.542, 378.044 1126.374, 378.406 1127.264, 378.667 1128.181, 378.815 1129.087, 378.845 1129.949, 378.756 1130.733, 378.552 1140.159, 375.212 1146.343, 373.020 1147.876, 372.576 1149.497, 372.295 1151.142, 372.188 1152.749, 372.259 1154.256, 372.505 1155.604, 372.917 1156.743, 373.479 1157.629, 374.170 1158.155, 375.162 1158.511, 376.381 1158.683, 377.781 1158.663, 379.307 1158.454, 380.902 1158.063, 382.504 1157.505, 384.051 1156.801, 385.483 1151.875, 394.186 1148.643, 399.896 1148.305, 400.633 1148.068, 401.466 1147.940, 402.364 1147.927, 403.292 1148.029, 404.214 1148.242, 405.096 1148.558, 405.903 1148.965, 406.604 1149.981, 408.056 1150.501, 408.677 1151.151, 409.250 1151.906, 409.752 1152.738, 410.163 1153.615, 410.468 1154.502, 410.655 1155.366, 410.717 1156.174, 410.652 1166.037, 409.000 1172.508, 407.915 1174.095, 407.744 1175.740, 407.749 1177.378, 407.929 1178.948, 408.278 1180.390, 408.782 1181.646, 409.422 1182.670, 410.173 1183.422, 411.007 1180.753, 412.548 1172.093, 417.548 1163.432, 422.548 1154.772, 427.548 1146.112, 432.548 1137.452, 437.548 1128.791, 442.548 1120.131, 447.548 1111.471, 452.548 1102.811, 457.548 1094.150, 462.548 1085.490, 467.548 1076.830, 472.548 1068.170, 477.548 1059.509, 482.548 1050.849, 487.548 1042.189, 492.548 1033.529, 497.548 1024.868, 502.548 1016.208, 507.548 1007.548, 512.548 998.888, 517.548 990.227, 522.548 981.567, 527.548 976.124, 530.691 975.931, 530.802 " />
            <path fill="none" stroke-width="3.0" stroke-linecap="butt" stroke-opacity="1.0" stroke="rgb(0, 0, 0)" stroke-linejoin="bevel" d=" M 975.931, 526.632 976.124, 526.470 983.785, 520.042 991.445, 513.615 999.105, 507.187 1006.766, 500.759 1014.426, 494.331 1022.087, 487.903 1029.747, 481.475 1037.408, 475.047 1045.068, 468.619 1052.729, 462.191 1060.389, 455.764 1068.049, 449.336 1075.710, 442.908 1083.370, 436.480 1091.031, 430.052 1098.691, 423.624 1106.352, 417.196 1114.012, 410.768 1121.673, 404.341 1129.333, 397.913 1136.993, 391.485 1144.654, 385.057 1152.314, 378.629 1157.629, 374.170 " />
            <path fill="none" stroke-width="3.0" stroke-linecap="butt" stroke-opacity="1.0" stroke="rgb(0, 0, 0)" stroke-linejoin="bevel" d=" M 976.124, 526.470 976.124, 523.876 973.530, 523.876 973.530, 523.876 969.308, 523.876 969.307, 523.876 969.306, 523.876 965.868, 523.876 965.867, 523.876 962.842, 523.876 962.841, 523.876 962.840, 523.876 960.000, 523.876 " />
            <path fill="none" stroke-width="3.0" stroke-linecap="butt" stroke-opacity="1.0" stroke="rgb(0, 0, 0)" stroke-linejoin="bevel" d=" M 973.368, 524.069 973.530, 523.876 979.958, 516.215 986.385, 508.555 992.813, 500.895 999.241, 493.234 1005.669, 485.574 1012.097, 477.913 1018.525, 470.253 1024.953, 462.592 1031.381, 454.932 1037.808, 447.271 1044.236, 439.611 1050.664, 431.951 1057.092, 424.290 1063.520, 416.630 1069.948, 408.969 1076.376, 401.309 1082.804, 393.648 1089.232, 385.988 1095.659, 378.327 1102.087, 370.667 1108.515, 363.007 1114.943, 355.346 1121.371, 347.686 1125.830, 342.371 " />
            <path fill="none" stroke-width="3.0" stroke-linecap="butt" stroke-opacity="1.0" stroke="rgb(0, 0, 0)" stroke-linejoin="bevel" d=" M 976.124, 530.691 976.124, 526.470 976.124, 526.470 " />
            <path fill="none" stroke-width="3.0" stroke-linecap="butt" stroke-opacity="1.0" stroke="rgb(0, 0, 0)" stroke-linejoin="bevel" d=" M 973.368, 524.069 973.530, 523.876 " />
            <path fill="none" stroke-width="3.0" stroke-linecap="butt" stroke-opacity="1.0" stroke="rgb(0, 0, 0)" stroke-linejoin="bevel" d=" M 969.309, 523.876 969.198, 524.069 969.309, 523.876 974.309, 515.216 979.309, 506.555 984.309, 497.895 989.309, 489.235 994.309, 480.575 999.309, 471.914 1004.309, 463.254 1009.309, 454.594 1014.309, 445.934 1019.309, 437.273 1024.309, 428.613 1029.309, 419.953 1034.309, 411.293 1039.309, 402.632 1044.309, 393.972 1049.309, 385.312 1054.309, 376.652 1059.309, 367.991 1064.309, 359.331 1069.309, 350.671 1074.309, 342.011 1079.309, 333.350 1084.309, 324.690 1088.993, 316.578 " />
            <path fill="none" stroke-width="3.0" stroke-linecap="butt" stroke-opacity="1.0" stroke="rgb(0, 0, 0)" stroke-linejoin="bevel" d=" M 965.799, 524.069 965.869, 523.876 969.289, 514.479 972.709, 505.082 976.129, 495.685 979.549, 486.288 982.970, 476.891 986.390, 467.494 989.810, 458.097 993.230, 448.700 996.651, 439.304 1000.071, 429.907 1003.491, 420.510 1006.911, 411.113 1010.331, 401.716 1013.752, 392.319 1017.172, 382.922 1020.592, 373.525 1024.012, 364.128 1027.432, 354.731 1030.853, 345.334 1034.273, 335.937 1037.693, 326.540 1041.113, 317.143 1044.533, 307.747 1048.236, 297.572 " />
            <path fill="none" stroke-width="3.0" stroke-linecap="butt" stroke-opacity="1.0" stroke="rgb(0, 0, 0)" stroke-linejoin="bevel" d=" M 965.799, 524.069 965.869, 523.876 " />
            <path fill="none" stroke-width="3.0" stroke-linecap="butt" stroke-opacity="1.0" stroke="rgb(0, 0, 0)" stroke-linejoin="bevel" d=" M 962.809, 524.069 962.826, 523.973 962.843, 523.876 964.580, 514.028 965.311, 509.879 967.048, 500.031 968.784, 490.183 970.521, 480.335 972.257, 470.487 973.994, 460.639 975.730, 450.791 977.466, 440.943 979.203, 431.095 980.939, 421.247 982.676, 411.398 984.412, 401.550 986.149, 391.702 987.885, 381.854 989.622, 372.006 991.358, 362.158 993.095, 352.310 994.831, 342.462 996.568, 332.614 998.304, 322.766 1000.041, 312.918 1001.777, 303.070 1003.514, 293.222 1004.799, 285.933 " />
            <path fill="none" stroke-width="3.0" stroke-linecap="butt" stroke-opacity="1.0" stroke="rgb(0, 0, 0)" stroke-linejoin="bevel" d=" M 962.809, 524.069 962.843, 523.876 " />
            <path fill="none" stroke-width="3.0" stroke-linecap="butt" stroke-opacity="1.0" stroke="rgb(0, 0, 0)" stroke-linejoin="bevel" d=" M 960.000, 358.188 960.000, 359.359 960.000, 358.188 960.000, 348.188 960.000, 338.188 960.000, 328.188 960.000, 318.188 960.000, 308.188 960.000, 298.188 960.000, 288.188 960.000, 282.014 " />
            <path fill="none" stroke-width="3.0" stroke-linecap="butt" stroke-opacity="1.0" stroke="rgb(0, 0, 0)" stroke-linejoin="bevel" d=" M 960.000, 358.188 958.497, 358.336 956.984, 358.794 955.590, 359.539 954.368, 360.542 953.366, 361.764 952.620, 363.158 952.161, 364.672 952.006, 366.245 952.086, 367.202 952.129, 367.716 952.619, 369.332 953.363, 370.727 954.366, 371.949 955.587, 372.953 956.981, 373.698 958.493, 374.158 960.000, 374.307 960.066, 374.313 961.639, 374.159 963.151, 373.700 964.545, 372.955 965.767, 371.952 966.770, 370.730 967.516, 369.336 967.960, 367.871 968.006, 367.720 968.130, 366.249 967.975, 364.676 967.517, 363.162 966.772, 361.768 965.770, 360.545 964.548, 359.542 963.155, 358.796 961.643, 358.336 960.070, 358.181 960.000, 358.188 " />
            <path fill="none" stroke-width="3.0" stroke-linecap="butt" stroke-opacity="1.0" stroke="rgb(0, 0, 0)" stroke-linejoin="bevel" d=" M 960.000, 523.876 960.000, 524.069 960.000, 523.876 960.000, 513.876 960.000, 503.876 960.000, 493.876 960.000, 483.876 960.000, 473.876 960.000, 471.101 960.000, 470.928 " />
            <path fill="none" stroke-width="3.0" stroke-linecap="butt" stroke-opacity="1.0" stroke="rgb(0, 0, 0)" stroke-linejoin="bevel" d=" M 960.000, 471.101 960.044, 471.105 961.616, 470.951 963.129, 470.492 964.523, 469.747 965.745, 468.744 966.748, 467.522 967.493, 466.128 967.952, 464.615 968.107, 463.042 967.953, 461.468 967.495, 459.955 966.750, 458.560 965.747, 457.337 964.526, 456.334 963.132, 455.588 961.620, 455.129 960.047, 454.973 960.000, 454.978 958.474, 455.128 956.962, 455.587 955.568, 456.332 954.346, 457.334 953.343, 458.556 952.598, 459.951 952.139, 461.464 951.983, 463.037 952.138, 464.611 952.596, 466.124 953.341, 467.519 954.343, 468.742 955.565, 469.745 956.958, 470.491 958.471, 470.950 960.000, 471.101 " />
            <path fill="none" stroke-width="3.0" stroke-linecap="butt" stroke-opacity="1.0" stroke="rgb(0, 0, 0)" stroke-linejoin="bevel" d=" M 960.000, 391.237 960.000, 390.451 960.000, 380.451 960.000, 374.307 960.000, 375.290 " />
            <path fill="none" stroke-width="3.0" stroke-linecap="butt" stroke-opacity="1.0" stroke="rgb(0, 0, 0)" stroke-linejoin="bevel" d=" M 960.000, 390.451 958.489, 390.600 956.977, 391.058 955.583, 391.803 954.361, 392.806 953.358, 394.028 952.613, 395.423 952.154, 396.936 951.998, 398.509 952.153, 400.083 952.154, 400.086 952.611, 401.596 953.356, 402.991 954.358, 404.213 955.580, 405.217 956.973, 405.962 958.486, 406.422 960.000, 406.571 960.059, 406.577 961.631, 406.423 963.144, 405.964 964.538, 405.219 965.760, 404.216 966.763, 402.994 967.508, 401.600 967.885, 400.359 967.967, 400.087 968.122, 398.513 967.968, 396.940 967.510, 395.426 966.765, 394.032 965.762, 392.809 964.541, 391.806 963.147, 391.060 961.635, 390.601 960.062, 390.445 960.000, 390.451 " />
            <path fill="none" stroke-width="3.0" stroke-linecap="butt" stroke-opacity="1.0" stroke="rgb(0, 0, 0)" stroke-linejoin="bevel" d=" M 960.000, 422.715 960.000, 423.114 960.000, 422.715 960.000, 412.715 960.000, 406.571 960.000, 407.169 " />
            <path fill="none" stroke-width="3.0" stroke-linecap="butt" stroke-opacity="1.0" stroke="rgb(0, 0, 0)" stroke-linejoin="bevel" d=" M 960.000, 422.715 958.482, 422.864 956.969, 423.323 955.575, 424.068 954.354, 425.070 953.351, 426.292 952.605, 427.687 952.146, 429.200 951.991, 430.773 952.145, 432.347 952.203, 432.536 952.604, 433.860 953.349, 435.255 954.351, 436.477 955.572, 437.481 956.966, 438.227 958.478, 438.686 960.000, 438.836 960.051, 438.841 961.624, 438.687 963.136, 438.228 964.530, 437.483 965.752, 436.480 966.755, 435.258 967.420, 434.015 967.501, 433.864 967.960, 432.351 968.115, 430.777 967.960, 429.204 967.502, 427.691 966.757, 426.296 965.755, 425.073 964.534, 424.070 963.140, 423.324 961.628, 422.865 960.055, 422.709 960.000, 422.715 " />
            <path fill="none" stroke-width="3.0" stroke-linecap="butt" stroke-opacity="1.0" stroke="rgb(0, 0, 0)" stroke-linejoin="bevel" d=" M 960.000, 454.992 960.000, 454.978 960.000, 444.978 960.000, 438.836 " />
            <path fill="none" stroke-width="3.0" stroke-linecap="butt" stroke-opacity="1.0" stroke="rgb(0, 0, 0)" stroke-linejoin="bevel" d=" M 960.000, 391.237 960.000, 390.451 " />
            <path fill="none" stroke-width="3.0" stroke-linecap="butt" stroke-opacity="1.0" stroke="rgb(0, 0, 0)" stroke-linejoin="bevel" d=" M 960.000, 423.114 960.000, 422.715 " />
            <path fill="none" stroke-width="3.0" stroke-linecap="butt" stroke-opacity="1.0" stroke="rgb(0, 0, 0)" stroke-linejoin="bevel" d=" M 952.086, 367.202 952.228, 365.767 952.681, 364.273 953.418, 362.895 954.409, 361.687 955.616, 360.697 956.993, 359.961 958.488, 359.507 960.000, 359.359 960.042, 359.355 961.596, 359.508 963.090, 359.962 964.467, 360.699 965.674, 361.690 966.664, 362.898 967.400, 364.276 967.853, 365.771 968.006, 367.326 967.960, 367.871 " />
            <path fill="none" stroke-width="3.0" stroke-linecap="butt" stroke-opacity="1.0" stroke="rgb(0, 0, 0)" stroke-linejoin="bevel" d=" M 960.016, 470.930 960.000, 470.928 958.462, 470.776 956.968, 470.322 955.591, 469.585 954.384, 468.594 953.394, 467.386 952.658, 466.008 952.205, 464.513 952.052, 462.958 952.206, 461.403 952.659, 459.908 953.396, 458.531 954.387, 457.323 955.594, 456.332 956.971, 455.596 958.466, 455.143 960.000, 454.992 960.020, 454.990 961.574, 455.144 963.068, 455.598 964.445, 456.335 965.652, 457.326 966.642, 458.534 967.378, 459.912 967.831, 461.407 967.984, 462.962 967.830, 464.517 967.377, 466.012 966.640, 467.389 965.649, 468.597 964.442, 469.588 963.065, 470.324 961.570, 470.777 960.016, 470.930 " />
            <path fill="none" stroke-width="3.0" stroke-linecap="butt" stroke-opacity="1.0" stroke="rgb(0, 0, 0)" stroke-linejoin="bevel" d=" M 960.038, 375.294 960.000, 375.290 " />
            <path fill="none" stroke-width="3.0" stroke-linecap="butt" stroke-opacity="1.0" stroke="rgb(0, 0, 0)" stroke-linejoin="bevel" d=" M 952.154, 400.086 952.067, 399.201 952.220, 397.646 952.674, 396.151 953.410, 394.773 954.401, 393.566 955.609, 392.575 956.986, 391.839 958.480, 391.386 960.000, 391.237 960.035, 391.233 961.589, 391.387 963.083, 391.841 964.460, 392.577 965.667, 393.569 966.657, 394.777 967.393, 396.155 967.846, 397.650 967.998, 399.205 967.885, 400.359 " />
            <path fill="none" stroke-width="3.0" stroke-linecap="butt" stroke-opacity="1.0" stroke="rgb(0, 0, 0)" stroke-linejoin="bevel" d=" M 960.031, 407.172 960.000, 407.169 " />
            <path fill="none" stroke-width="3.0" stroke-linecap="butt" stroke-opacity="1.0" stroke="rgb(0, 0, 0)" stroke-linejoin="bevel" d=" M 952.203, 432.536 952.060, 431.079 952.213, 429.525 952.667, 428.030 953.403, 426.652 954.394, 425.445 955.601, 424.454 956.979, 423.718 958.473, 423.265 960.000, 423.114 960.027, 423.112 961.581, 423.265 963.075, 423.719 964.452, 424.456 965.659, 425.448 966.650, 426.655 967.385, 428.034 967.838, 429.529 967.991, 431.083 967.838, 432.638 967.420, 434.015 " />
            <path fill="none" stroke-width="3.0" stroke-linecap="butt" stroke-opacity="1.0" stroke="rgb(0, 0, 0)" stroke-linejoin="bevel" d=" M 960.023, 439.051 960.000, 439.049 " />
            <path fill="none" stroke-width="3.0" stroke-linecap="butt" stroke-opacity="1.0" stroke="rgb(0, 0, 0)" stroke-linejoin="bevel" d=" M 871.764, 297.572 872.876, 297.417 874.143, 297.500 875.517, 297.817 876.945, 298.357 878.372, 299.099 879.743, 300.015 881.006, 301.068 882.112, 302.220 888.605, 309.825 892.865, 314.815 893.442, 315.385 894.144, 315.892 894.944, 316.319 895.811, 316.649 896.713, 316.869 897.614, 316.970 898.480, 316.949 899.278, 316.807 900.990, 316.348 901.752, 316.073 902.513, 315.658 903.243, 315.120 903.914, 314.478 904.500, 313.759 904.979, 312.989 905.333, 312.198 905.548, 311.417 907.368, 301.584 908.563, 295.132 908.945, 293.582 909.512, 292.039 910.241, 290.560 911.106, 289.204 912.073, 288.022 913.104, 287.060 914.160, 286.355 915.201, 285.933 915.736, 288.969 917.473, 298.817 919.209, 308.665 920.946, 318.513 922.682, 328.361 924.419, 338.210 926.155, 348.058 927.892, 357.906 929.628, 367.754 931.365, 377.602 933.101, 387.450 934.838, 397.298 936.574, 407.146 938.311, 416.994 940.047, 426.842 941.784, 436.690 943.520, 446.538 945.257, 456.386 946.993, 466.234 948.730, 476.083 950.466, 485.931 952.203, 495.779 953.939, 505.627 955.676, 515.475 957.157, 523.876 957.191, 524.069 957.157, 523.876 " />
            <path fill="none" stroke-width="3.0" stroke-linecap="butt" stroke-opacity="1.0" stroke="rgb(0, 0, 0)" stroke-linejoin="bevel" d=" M 957.156, 523.876 957.155, 523.876 954.130, 523.876 954.129, 523.876 950.691, 523.876 950.691, 523.876 946.470, 523.876 946.470, 523.876 943.876, 523.876 943.876, 526.470 943.876, 526.470 943.876, 526.470 943.876, 526.470 943.876, 530.691 " />
            <path fill="none" stroke-width="3.0" stroke-linecap="butt" stroke-opacity="1.0" stroke="rgb(0, 0, 0)" stroke-linejoin="bevel" d=" M 831.007, 316.578 832.075, 316.231 833.338, 316.093 834.746, 316.167 836.246, 316.451 837.780, 316.934 839.290, 317.597 840.716, 318.416 842.005, 319.357 849.720, 325.720 854.782, 329.894 855.449, 330.355 856.228, 330.733 857.090, 331.015 858.002, 331.189 858.928, 331.249 859.833, 331.192 860.683, 331.021 861.444, 330.742 863.050, 329.993 863.753, 329.589 864.430, 329.049 865.055, 328.392 865.604, 327.644 866.057, 326.834 866.395, 325.992 866.606, 325.152 866.682, 324.345 866.768, 314.346 866.824, 307.784 866.931, 306.192 867.221, 304.573 867.682, 302.990 868.299, 301.504 869.045, 300.173 869.894, 299.046 870.812, 298.168 871.764, 297.572 872.818, 300.469 876.238, 309.866 879.658, 319.263 883.078, 328.660 886.499, 338.057 889.919, 347.454 893.339, 356.851 896.759, 366.248 900.180, 375.645 903.600, 385.041 907.020, 394.438 910.440, 403.835 913.860, 413.232 917.281, 422.629 920.701, 432.026 924.121, 441.423 927.541, 450.820 930.961, 460.217 934.382, 469.614 937.802, 479.011 941.222, 488.408 944.642, 497.805 948.062, 507.201 951.483, 516.598 954.131, 523.876 954.201, 524.069 954.131, 523.876 " />
            <path fill="none" stroke-width="3.0" stroke-linecap="butt" stroke-opacity="1.0" stroke="rgb(0, 0, 0)" stroke-linejoin="bevel" d=" M 794.170, 342.371 795.162, 341.845 796.381, 341.489 797.781, 341.317 799.307, 341.337 800.902, 341.546 802.504, 341.937 804.051, 342.495 805.483, 343.199 814.186, 348.125 819.896, 351.357 820.633, 351.695 821.466, 351.932 822.364, 352.060 823.292, 352.073 824.214, 351.971 825.096, 351.758 825.903, 351.442 826.604, 351.035 828.056, 350.019 828.677, 349.499 829.250, 348.849 829.752, 348.094 830.163, 347.262 830.468, 346.385 830.655, 345.498 830.717, 344.634 830.652, 343.826 829.000, 333.963 827.915, 327.492 827.744, 325.905 827.749, 324.260 827.929, 322.622 828.278, 321.052 828.782, 319.610 829.422, 318.354 830.173, 317.330 831.007, 316.578 832.548, 319.247 837.548, 327.907 842.548, 336.568 847.548, 345.228 852.548, 353.888 857.548, 362.548 862.548, 371.209 867.548, 379.869 872.548, 388.529 877.548, 397.189 882.548, 405.850 887.548, 414.510 892.548, 423.170 897.548, 431.831 902.548, 440.491 907.548, 449.151 912.548, 457.811 917.548, 466.471 922.548, 475.132 927.548, 483.792 932.548, 492.452 937.548, 501.112 942.548, 509.773 947.548, 518.433 950.691, 523.876 950.802, 524.069 950.691, 523.876 " />
            <path fill="none" stroke-width="3.0" stroke-linecap="butt" stroke-opacity="1.0" stroke="rgb(0, 0, 0)" stroke-linejoin="bevel" d=" M 762.371, 374.170 763.257, 373.479 764.396, 372.917 765.744, 372.505 767.251, 372.259 768.858, 372.188 770.503, 372.295 772.124, 372.576 773.657, 373.021 783.083, 376.360 789.267, 378.552 790.051, 378.756 790.913, 378.845 791.819, 378.815 792.736, 378.667 793.626, 378.406 794.458, 378.044 795.197, 377.592 795.817, 377.070 797.070, 375.817 797.592, 375.197 798.044, 374.458 798.406, 373.626 798.667, 372.736 798.815, 371.820 798.845, 370.913 798.756, 370.051 798.552, 369.267 795.212, 359.841 793.020, 353.657 792.576, 352.124 792.295, 350.503 792.188, 348.858 792.259, 347.251 792.505, 345.744 792.917, 344.396 793.479, 343.257 794.170, 342.371 796.151, 344.733 802.579, 352.393 809.007, 360.054 815.435, 367.714 821.863, 375.374 828.291, 383.035 834.719, 390.695 841.146, 398.356 847.574, 406.016 854.002, 413.677 860.430, 421.337 866.858, 428.998 873.286, 436.658 879.714, 444.318 886.141, 451.979 892.569, 459.639 898.997, 467.300 905.425, 474.960 911.853, 482.621 918.281, 490.281 924.709, 497.942 931.137, 505.602 937.565, 513.262 943.992, 520.923 946.470, 523.876 946.632, 524.069 946.470, 523.876 " />
            <path fill="none" stroke-width="3.0" stroke-linecap="butt" stroke-opacity="1.0" stroke="rgb(0, 0, 0)" stroke-linejoin="bevel" d=" M 736.578, 411.007 737.330, 410.173 738.354, 409.422 739.610, 408.782 741.052, 408.278 742.622, 407.929 744.260, 407.749 745.905, 407.744 747.492, 407.915 757.355, 409.568 763.826, 410.652 764.634, 410.717 765.498, 410.655 766.385, 410.468 767.262, 410.163 768.094, 409.752 768.849, 409.250 769.499, 408.677 770.019, 408.056 771.035, 406.604 771.442, 405.903 771.758, 405.096 771.971, 404.215 772.073, 403.292 772.060, 402.364 771.932, 401.466 771.695, 400.633 771.357, 399.896 766.431, 391.194 763.199, 385.483 762.495, 384.051 761.937, 382.504 761.546, 380.902 761.337, 379.307 761.317, 377.781 761.489, 376.381 761.845, 375.162 762.371, 374.170 764.733, 376.151 772.393, 382.579 780.054, 389.007 787.714, 395.435 795.374, 401.863 803.035, 408.291 810.695, 414.719 818.356, 421.146 826.016, 427.574 833.677, 434.002 841.337, 440.430 848.998, 446.858 856.658, 453.286 864.318, 459.714 871.979, 466.142 879.639, 472.569 887.300, 478.997 894.960, 485.425 902.621, 491.853 910.281, 498.281 917.942, 504.709 925.602, 511.137 933.199, 517.511 933.199, 517.511 940.860, 523.939 943.876, 526.470 943.973, 526.552 " />
            <path fill="none" stroke-width="3.0" stroke-linecap="butt" stroke-opacity="1.0" stroke="rgb(0, 0, 0)" stroke-linejoin="bevel" d=" M 717.572, 451.764 718.168, 450.812 719.046, 449.894 720.173, 449.045 721.504, 448.299 722.990, 447.683 724.573, 447.221 726.192, 446.931 727.784, 446.824 737.784, 446.738 744.345, 446.682 745.152, 446.606 745.992, 446.395 746.833, 446.057 747.644, 445.604 748.392, 445.055 749.049, 444.430 749.589, 443.753 749.993, 443.050 750.742, 441.444 751.021, 440.683 751.192, 439.833 751.249, 438.928 751.189, 438.002 751.015, 437.091 750.733, 436.228 750.355, 435.449 749.894, 434.782 743.532, 427.067 739.357, 422.005 738.416, 420.716 737.597, 419.290 736.934, 417.781 736.451, 416.246 736.167, 414.746 736.093, 413.338 736.231, 412.075 736.578, 411.007 739.247, 412.548 747.907, 417.548 756.568, 422.548 765.228, 427.548 773.888, 432.548 782.548, 437.548 791.209, 442.548 799.869, 447.548 808.529, 452.548 817.189, 457.548 825.850, 462.548 834.510, 467.548 843.170, 472.548 851.830, 477.548 860.491, 482.548 869.151, 487.548 877.811, 492.548 886.471, 497.548 895.132, 502.548 903.792, 507.548 912.452, 512.548 921.112, 517.548 929.773, 522.548 938.433, 527.548 943.876, 530.691 944.069, 530.802 943.876, 530.691 " />
            <path fill="none" stroke-width="3.0" stroke-linecap="butt" stroke-opacity="1.0" stroke="rgb(0, 0, 0)" stroke-linejoin="bevel" d=" M 943.876, 530.691 943.876, 530.691 943.876, 530.691 943.876, 534.131 " />
            <path fill="none" stroke-width="3.0" stroke-linecap="butt" stroke-opacity="1.0" stroke="rgb(0, 0, 0)" stroke-linejoin="bevel" d=" M 705.933, 495.201 706.355, 494.160 707.060, 493.104 708.022, 492.073 709.204, 491.106 710.560, 490.241 712.039, 489.512 713.582, 488.945 715.132, 488.563 724.965, 486.742 731.417, 485.548 732.198, 485.333 732.989, 484.979 733.759, 484.500 734.478, 483.914 735.120, 483.243 735.658, 482.513 736.073, 481.752 736.348, 480.990 736.807, 479.278 736.950, 478.480 736.970, 477.614 736.869, 476.713 736.649, 475.811 736.320, 474.944 735.892, 474.144 735.385, 473.442 734.815, 472.865 727.210, 466.372 722.220, 462.112 721.069, 461.006 720.015, 459.744 719.099, 458.372 718.357, 456.945 717.817, 455.517 717.500, 454.143 717.417, 452.876 717.572, 451.764 720.469, 452.818 729.866, 456.238 739.263, 459.658 748.660, 463.079 758.057, 466.499 767.454, 469.919 776.851, 473.339 786.248, 476.759 795.645, 480.180 805.042, 483.600 814.438, 487.020 823.835, 490.440 833.232, 493.860 842.629, 497.281 852.026, 500.701 861.423, 504.121 870.820, 507.541 880.217, 510.961 889.614, 514.382 899.011, 517.802 908.408, 521.222 917.805, 524.642 927.202, 528.062 936.598, 531.483 943.876, 534.131 944.069, 534.201 " />
            <path fill="none" stroke-width="3.0" stroke-linecap="butt" stroke-opacity="1.0" stroke="rgb(0, 0, 0)" stroke-linejoin="bevel" d=" M 943.876, 534.131 944.069, 534.201 943.876, 534.131 " />
            <path fill="none" stroke-width="3.0" stroke-linecap="butt" stroke-opacity="1.0" stroke="rgb(0, 0, 0)" stroke-linejoin="bevel" d=" M 943.876, 534.131 943.876, 534.131 943.876, 537.157 " />
            <path fill="none" stroke-width="3.0" stroke-linecap="butt" stroke-opacity="1.0" stroke="rgb(0, 0, 0)" stroke-linejoin="bevel" d=" M 702.014, 540.000 702.248, 538.902 702.759, 537.739 703.528, 536.556 704.524, 535.399 705.709, 534.312 707.038, 533.337 708.460, 532.511 709.920, 531.865 719.288, 528.365 725.434, 526.068 726.166, 525.721 726.884, 525.235 727.559, 524.630 728.165, 523.927 728.680, 523.155 729.084, 522.343 729.360, 521.522 729.499, 520.723 729.654, 518.958 729.655, 518.147 729.526, 517.291 729.269, 516.421 728.896, 515.571 728.421, 514.774 727.861, 514.060 727.239, 513.457 726.578, 512.988 717.961, 507.914 712.307, 504.585 710.981, 503.696 709.724, 502.636 708.585, 501.444 707.606, 500.168 706.826, 498.855 706.275, 497.557 705.973, 496.323 705.933, 495.201 708.969, 495.737 718.817, 497.473 728.665, 499.209 738.513, 500.946 748.361, 502.682 758.210, 504.419 768.058, 506.155 777.906, 507.892 787.754, 509.628 797.602, 511.365 807.450, 513.101 817.298, 514.838 827.146, 516.574 836.994, 518.311 846.842, 520.047 856.690, 521.784 866.538, 523.520 876.386, 525.257 886.235, 526.993 896.083, 528.730 905.931, 530.466 915.779, 532.203 925.627, 533.939 935.475, 535.676 943.876, 537.157 944.069, 537.191 " />
            <path fill="none" stroke-width="3.0" stroke-linecap="butt" stroke-opacity="1.0" stroke="rgb(0, 0, 0)" stroke-linejoin="bevel" d=" M 943.876, 537.157 944.069, 537.191 943.876, 537.157 " />
            <path fill="none" stroke-width="3.0" stroke-linecap="butt" stroke-opacity="1.0" stroke="rgb(0, 0, 0)" stroke-linejoin="bevel" d=" M 943.876, 537.157 943.876, 537.157 943.876, 540.000 943.876, 540.000 943.876, 542.843 " />
            <path fill="none" stroke-width="3.0" stroke-linecap="butt" stroke-opacity="1.0" stroke="rgb(0, 0, 0)" stroke-linejoin="bevel" d=" M 890.236, 540.000 890.964, 540.000 900.964, 540.000 910.964, 540.000 920.964, 540.000 930.964, 540.000 940.964, 540.000 943.876, 540.000 944.069, 540.000 " />
            <path fill="none" stroke-width="3.0" stroke-linecap="butt" stroke-opacity="1.0" stroke="rgb(0, 0, 0)" stroke-linejoin="bevel" d=" M 890.236, 540.000 890.129, 540.000 889.974, 538.427 889.515, 536.915 888.770, 535.521 887.767, 534.299 886.546, 533.297 885.152, 532.552 883.662, 532.100 883.640, 532.093 882.067, 531.938 880.494, 532.093 878.981, 532.552 877.588, 533.297 876.366, 534.299 875.363, 535.521 874.618, 536.915 874.160, 538.427 873.897, 540.000 874.005, 540.000 874.005, 540.002 874.005, 540.002 874.160, 541.573 874.618, 543.085 875.363, 544.479 876.366, 545.701 877.588, 546.703 878.981, 547.448 880.494, 547.907 882.067, 548.062 883.640, 547.907 883.662, 547.900 885.152, 547.448 886.546, 546.703 887.767, 545.701 888.770, 544.479 889.515, 543.085 889.974, 541.573 890.236, 540.000 " />
            <path fill="none" stroke-width="3.0" stroke-linecap="butt" stroke-opacity="1.0" stroke="rgb(0, 0, 0)" stroke-linejoin="bevel" d=" M 874.005, 540.000 864.005, 540.000 859.101, 540.000 857.988, 540.000 859.101, 540.000 869.101, 540.000 874.005, 540.000 875.003, 540.003 874.005, 540.002 " />
            <path fill="none" stroke-width="3.0" stroke-linecap="butt" stroke-opacity="1.0" stroke="rgb(0, 0, 0)" stroke-linejoin="bevel" d=" M 857.988, 540.000 857.880, 540.000 857.726, 538.427 857.267, 536.915 856.522, 535.521 855.519, 534.299 854.297, 533.297 852.904, 532.552 851.391, 532.093 850.966, 532.051 849.818, 531.938 848.246, 532.093 846.733, 532.552 845.339, 533.297 844.118, 534.299 843.115, 535.521 842.370, 536.915 841.911, 538.427 841.649, 540.000 841.745, 540.000 841.756, 540.000 841.911, 541.573 842.370, 543.085 843.115, 544.479 844.118, 545.701 845.339, 546.703 846.733, 547.448 848.246, 547.907 849.818, 548.062 850.966, 547.949 851.391, 547.907 852.904, 547.448 854.297, 546.703 855.519, 545.701 856.522, 544.479 857.267, 543.085 857.726, 541.573 857.988, 540.000 " />
            <path fill="none" stroke-width="3.0" stroke-linecap="butt" stroke-opacity="1.0" stroke="rgb(0, 0, 0)" stroke-linejoin="bevel" d=" M 777.270, 539.893 777.260, 540.000 777.260, 540.000 777.415, 541.573 777.874, 543.085 778.619, 544.479 779.621, 545.701 780.843, 546.703 782.237, 547.448 783.749, 547.907 785.322, 548.062 786.792, 547.938 786.873, 547.913 788.407, 547.448 789.801, 546.703 791.023, 545.701 792.025, 544.479 792.770, 543.085 793.229, 541.573 793.416, 540.003 793.384, 540.000 793.229, 538.427 792.770, 536.915 792.025, 535.521 791.023, 534.299 789.801, 533.297 788.407, 532.552 786.895, 532.093 786.852, 532.089 785.215, 531.948 783.749, 532.093 782.237, 532.552 780.843, 533.297 779.621, 534.299 778.619, 535.521 777.874, 536.915 777.415, 538.427 777.270, 539.893 " />
            <path fill="none" stroke-width="3.0" stroke-linecap="butt" stroke-opacity="1.0" stroke="rgb(0, 0, 0)" stroke-linejoin="bevel" d=" M 705.933, 584.799 705.974, 583.677 706.275, 582.443 706.826, 581.145 707.606, 579.832 708.585, 578.556 709.724, 577.364 710.981, 576.304 712.307, 575.415 720.924, 570.341 726.578, 567.012 727.239, 566.543 727.861, 565.940 728.421, 565.226 728.896, 564.429 729.269, 563.579 729.526, 562.709 729.655, 561.853 729.654, 561.042 729.499, 559.277 729.360, 558.478 729.084, 557.657 728.680, 556.845 728.165, 556.073 727.559, 555.370 726.884, 554.765 726.166, 554.279 725.434, 553.932 716.067, 550.431 709.920, 548.135 708.460, 547.490 707.038, 546.663 705.709, 545.688 704.524, 544.601 703.528, 543.444 702.760, 542.261 702.248, 541.098 702.014, 540.000 705.097, 540.000 715.097, 540.000 725.097, 540.000 735.097, 540.000 745.097, 540.000 755.097, 540.000 765.097, 540.000 775.097, 540.000 777.260, 540.000 779.337, 540.000 " />
            <path fill="none" stroke-width="3.0" stroke-linecap="butt" stroke-opacity="1.0" stroke="rgb(0, 0, 0)" stroke-linejoin="bevel" d=" M 827.238, 540.000 825.740, 540.000 827.238, 540.000 837.238, 540.000 841.756, 540.000 843.063, 540.000 " />
            <path fill="none" stroke-width="3.0" stroke-linecap="butt" stroke-opacity="1.0" stroke="rgb(0, 0, 0)" stroke-linejoin="bevel" d=" M 825.740, 540.000 825.632, 540.000 825.477, 538.427 825.019, 536.915 824.273, 535.521 823.271, 534.299 822.049, 533.297 820.655, 532.552 819.143, 532.093 818.910, 532.070 817.570, 531.938 815.997, 532.093 814.485, 532.552 813.091, 533.297 811.869, 534.299 810.867, 535.521 810.122, 536.915 809.663, 538.427 809.401, 539.990 809.508, 540.000 809.508, 540.000 809.508, 540.000 809.663, 541.573 810.122, 543.085 810.867, 544.479 811.869, 545.701 813.091, 546.703 814.485, 547.448 815.997, 547.907 817.570, 548.062 818.910, 547.930 819.143, 547.907 820.655, 547.448 822.049, 546.703 823.271, 545.701 824.273, 544.479 825.019, 543.085 825.477, 541.573 825.740, 540.000 " />
            <path fill="none" stroke-width="3.0" stroke-linecap="butt" stroke-opacity="1.0" stroke="rgb(0, 0, 0)" stroke-linejoin="bevel" d=" M 795.375, 540.000 805.375, 540.000 809.508, 540.000 811.200, 540.000 809.508, 540.000 799.508, 540.002 795.375, 540.002 793.416, 540.003 795.375, 540.000 " />
            <path fill="none" stroke-width="3.0" stroke-linecap="butt" stroke-opacity="1.0" stroke="rgb(0, 0, 0)" stroke-linejoin="bevel" d=" M 779.337, 540.000 777.260, 540.000 " />
            <path fill="none" stroke-width="3.0" stroke-linecap="butt" stroke-opacity="1.0" stroke="rgb(0, 0, 0)" stroke-linejoin="bevel" d=" M 944.069, 540.000 943.876, 540.000 " />
            <path fill="none" stroke-width="3.0" stroke-linecap="butt" stroke-opacity="1.0" stroke="rgb(0, 0, 0)" stroke-linejoin="bevel" d=" M 875.003, 540.003 874.005, 540.002 " />
            <path fill="none" stroke-width="3.0" stroke-linecap="butt" stroke-opacity="1.0" stroke="rgb(0, 0, 0)" stroke-linejoin="bevel" d=" M 843.063, 540.000 841.745, 540.000 831.745, 540.000 827.238, 540.000 " />
            <path fill="none" stroke-width="3.0" stroke-linecap="butt" stroke-opacity="1.0" stroke="rgb(0, 0, 0)" stroke-linejoin="bevel" d=" M 786.873, 547.913 785.855, 547.813 784.361, 547.359 782.984, 546.623 781.776, 545.633 780.786, 544.426 780.050, 543.048 779.596, 541.554 779.337, 540.000 779.443, 540.000 779.596, 538.446 780.050, 536.952 780.786, 535.574 781.776, 534.367 782.984, 533.377 784.361, 532.641 785.855, 532.187 786.852, 532.089 " />
            <path fill="none" stroke-width="3.0" stroke-linecap="butt" stroke-opacity="1.0" stroke="rgb(0, 0, 0)" stroke-linejoin="bevel" d=" M 795.481, 540.000 795.375, 540.000 795.375, 540.002 " />
            <path fill="none" stroke-width="3.0" stroke-linecap="butt" stroke-opacity="1.0" stroke="rgb(0, 0, 0)" stroke-linejoin="bevel" d=" M 818.910, 547.930 817.718, 547.813 816.224, 547.359 814.846, 546.623 813.639, 545.633 812.649, 544.426 811.913, 543.048 811.459, 541.554 811.200, 540.000 811.306, 540.000 811.459, 538.446 811.913, 536.952 812.649, 535.574 813.639, 534.367 814.846, 533.377 816.224, 532.641 817.718, 532.187 818.910, 532.070 " />
            <path fill="none" stroke-width="3.0" stroke-linecap="butt" stroke-opacity="1.0" stroke="rgb(0, 0, 0)" stroke-linejoin="bevel" d=" M 883.662, 547.900 882.998, 547.966 881.444, 547.813 879.950, 547.359 878.572, 546.623 877.365, 545.633 876.375, 544.426 875.638, 543.048 875.185, 541.554 875.003, 540.003 875.032, 540.000 875.185, 538.446 875.638, 536.952 876.375, 535.574 877.365, 534.367 878.572, 533.377 879.950, 532.641 881.444, 532.187 882.998, 532.034 883.662, 532.100 " />
            <path fill="none" stroke-width="3.0" stroke-linecap="butt" stroke-opacity="1.0" stroke="rgb(0, 0, 0)" stroke-linejoin="bevel" d=" M 827.344, 540.000 827.238, 540.000 827.238, 540.000 " />
            <path fill="none" stroke-width="3.0" stroke-linecap="butt" stroke-opacity="1.0" stroke="rgb(0, 0, 0)" stroke-linejoin="bevel" d=" M 850.966, 547.949 849.581, 547.813 848.087, 547.359 846.709, 546.623 845.502, 545.633 844.512, 544.426 843.776, 543.048 843.322, 541.554 843.063, 540.000 843.169, 540.000 843.322, 538.446 843.776, 536.952 844.512, 535.574 845.502, 534.367 846.709, 533.377 848.087, 532.641 849.581, 532.187 850.966, 532.051 " />
            <path fill="none" stroke-width="3.0" stroke-linecap="butt" stroke-opacity="1.0" stroke="rgb(0, 0, 0)" stroke-linejoin="bevel" d=" M 717.573, 628.236 717.417, 627.124 717.500, 625.857 717.817, 624.483 718.357, 623.055 719.099, 621.628 720.015, 620.257 721.069, 618.994 722.220, 617.888 729.825, 611.395 734.815, 607.135 735.385, 606.558 735.893, 605.856 736.320, 605.056 736.649, 604.189 736.869, 603.287 736.970, 602.386 736.949, 601.520 736.807, 600.722 736.348, 599.010 736.073, 598.248 735.658, 597.487 735.120, 596.757 734.478, 596.086 733.759, 595.500 732.989, 595.021 732.198, 594.667 731.417, 594.452 721.584, 592.632 715.132, 591.437 713.582, 591.055 712.039, 590.488 710.560, 589.759 709.204, 588.894 708.022, 587.927 707.060, 586.896 706.355, 585.840 705.933, 584.799 708.969, 584.264 718.817, 582.527 728.665, 580.791 738.513, 579.054 748.362, 577.318 758.210, 575.581 768.058, 573.845 777.906, 572.108 787.754, 570.372 797.602, 568.635 807.450, 566.899 817.298, 565.162 827.146, 563.426 836.994, 561.689 846.842, 559.953 856.690, 558.216 866.538, 556.480 876.386, 554.743 886.235, 553.007 896.083, 551.270 905.931, 549.534 915.779, 547.797 925.627, 546.061 935.475, 544.324 943.876, 542.843 944.069, 542.809 " />
            <path fill="none" stroke-width="3.0" stroke-linecap="butt" stroke-opacity="1.0" stroke="rgb(0, 0, 0)" stroke-linejoin="bevel" d=" M 943.876, 542.843 944.069, 542.809 943.876, 542.843 " />
            <path fill="none" stroke-width="3.0" stroke-linecap="butt" stroke-opacity="1.0" stroke="rgb(0, 0, 0)" stroke-linejoin="bevel" d=" M 859.101, 540.000 859.101, 540.000 " />
            <path fill="none" stroke-width="3.0" stroke-linecap="butt" stroke-opacity="1.0" stroke="rgb(0, 0, 0)" stroke-linejoin="bevel" d=" M 943.876, 542.843 943.876, 542.843 943.876, 545.869 " />
            <path fill="none" stroke-width="3.0" stroke-linecap="butt" stroke-opacity="1.0" stroke="rgb(0, 0, 0)" stroke-linejoin="bevel" d=" M 736.578, 668.993 736.232, 667.925 736.093, 666.662 736.167, 665.254 736.451, 663.754 736.934, 662.220 737.597, 660.710 738.416, 659.284 739.357, 657.995 745.720, 650.280 749.894, 645.218 750.355, 644.551 750.733, 643.772 751.015, 642.910 751.189, 641.998 751.249, 641.072 751.192, 640.167 751.021, 639.317 750.742, 638.556 749.993, 636.950 749.589, 636.247 749.049, 635.570 748.392, 634.945 747.644, 634.396 746.834, 633.943 745.992, 633.605 745.152, 633.394 744.345, 633.318 734.346, 633.232 727.784, 633.176 726.192, 633.069 724.573, 632.779 722.990, 632.317 721.505, 631.701 720.173, 630.955 719.046, 630.106 718.168, 629.188 717.573, 628.236 720.469, 627.182 729.866, 623.762 739.263, 620.342 748.660, 616.922 758.057, 613.501 767.454, 610.081 776.851, 606.661 786.248, 603.241 795.645, 599.820 805.042, 596.400 814.438, 592.980 823.835, 589.560 833.232, 586.140 842.629, 582.719 852.026, 579.299 861.423, 575.879 870.820, 572.459 880.217, 569.039 889.614, 565.618 899.011, 562.198 908.408, 558.778 917.805, 555.358 927.202, 551.938 936.598, 548.517 943.876, 545.869 944.069, 545.799 943.876, 545.869 " />
            <path fill="none" stroke-width="3.0" stroke-linecap="butt" stroke-opacity="1.0" stroke="rgb(0, 0, 0)" stroke-linejoin="bevel" d=" M 943.876, 545.869 943.876, 545.869 943.876, 549.307 943.876, 549.308 " />
            <path fill="none" stroke-width="3.0" stroke-linecap="butt" stroke-opacity="1.0" stroke="rgb(0, 0, 0)" stroke-linejoin="bevel" d=" M 762.371, 705.830 761.845, 704.838 761.489, 703.619 761.317, 702.219 761.337, 700.693 761.546, 699.098 761.937, 697.496 762.495, 695.949 763.199, 694.517 768.125, 685.814 771.357, 680.104 771.695, 679.367 771.932, 678.534 772.060, 677.636 772.073, 676.708 771.971, 675.786 771.758, 674.904 771.442, 674.097 771.035, 673.396 770.019, 671.944 769.499, 671.323 768.849, 670.750 768.094, 670.248 767.262, 669.837 766.385, 669.532 765.498, 669.345 764.634, 669.283 763.826, 669.348 753.963, 671.000 747.492, 672.085 745.905, 672.256 744.261, 672.251 742.622, 672.071 741.052, 671.722 739.610, 671.218 738.354, 670.578 737.330, 669.827 736.578, 668.993 739.247, 667.452 747.907, 662.452 756.568, 657.452 765.228, 652.452 773.888, 647.452 782.548, 642.452 791.209, 637.452 799.869, 632.452 808.529, 627.452 817.190, 622.452 825.850, 617.452 834.510, 612.452 843.170, 607.452 851.831, 602.452 860.491, 597.452 869.151, 592.452 877.811, 587.452 886.472, 582.452 895.132, 577.452 903.792, 572.452 912.452, 567.452 921.113, 562.452 929.773, 557.452 938.433, 552.452 943.876, 549.309 944.005, 549.235 " />
            <path fill="none" stroke-width="3.0" stroke-linecap="butt" stroke-opacity="1.0" stroke="rgb(0, 0, 0)" stroke-linejoin="bevel" d=" M 944.005, 549.235 944.069, 549.198 943.876, 549.309 " />
            <path fill="none" stroke-width="3.0" stroke-linecap="butt" stroke-opacity="1.0" stroke="rgb(0, 0, 0)" stroke-linejoin="bevel" d=" M 943.876, 549.309 943.876, 549.309 943.876, 553.530 943.876, 553.530 943.876, 556.124 946.470, 556.124 946.470, 556.124 946.470, 556.124 950.691, 556.124 " />
            <path fill="none" stroke-width="3.0" stroke-linecap="butt" stroke-opacity="1.0" stroke="rgb(0, 0, 0)" stroke-linejoin="bevel" d=" M 957.191, 555.931 957.157, 556.124 955.420, 565.972 953.684, 575.820 951.947, 585.668 950.211, 595.516 948.474, 605.365 946.738, 615.213 945.002, 625.061 943.265, 634.909 941.529, 644.757 939.792, 654.605 938.056, 664.453 936.319, 674.301 934.583, 684.149 932.846, 693.997 931.110, 703.845 929.373, 713.693 927.637, 723.541 925.900, 733.390 924.164, 743.238 922.427, 753.086 920.691, 762.934 918.954, 772.782 917.218, 782.630 915.737, 791.031 915.201, 794.067 914.160, 793.645 913.104, 792.940 912.073, 791.978 911.106, 790.796 910.241, 789.440 909.512, 787.961 908.945, 786.418 908.563, 784.868 906.743, 775.035 905.548, 768.583 905.333, 767.802 904.979, 767.011 904.500, 766.241 903.914, 765.522 903.243, 764.880 902.513, 764.342 901.752, 763.927 900.990, 763.652 899.278, 763.193 898.480, 763.050 897.614, 763.030 896.713, 763.131 895.811, 763.351 894.944, 763.680 894.144, 764.107 893.442, 764.615 892.865, 765.185 886.372, 772.790 882.112, 777.780 881.006, 778.931 879.744, 779.985 878.372, 780.901 876.945, 781.643 875.517, 782.183 874.143, 782.500 872.876, 782.583 871.764, 782.427 870.812, 781.832 869.894, 780.954 869.045, 779.827 868.299, 778.496 867.683, 777.010 867.221, 775.427 866.931, 773.808 866.824, 772.216 866.738, 762.216 866.682, 755.655 866.606, 754.848 866.395, 754.008 866.057, 753.166 865.604, 752.356 865.055, 751.608 864.430, 750.951 863.753, 750.411 863.050, 750.007 861.444, 749.258 860.683, 748.979 859.833, 748.808 858.928, 748.751 858.002, 748.811 857.091, 748.985 856.229, 749.267 855.449, 749.645 854.782, 750.106 847.067, 756.468 842.005, 760.643 840.716, 761.584 839.290, 762.403 837.781, 763.066 836.246, 763.549 834.746, 763.833 833.338, 763.907 832.075, 763.768 831.007, 763.422 830.173, 762.670 829.422, 761.646 828.782, 760.390 828.278, 758.948 827.929, 757.378 827.749, 755.740 827.744, 754.095 827.915, 752.508 829.568, 742.645 830.652, 736.174 830.717, 735.366 830.655, 734.502 830.468, 733.615 830.163, 732.738 829.752, 731.906 829.250, 731.151 828.677, 730.501 828.056, 729.981 826.604, 728.965 825.903, 728.558 825.096, 728.242 824.215, 728.029 823.292, 727.927 822.364, 727.940 821.466, 728.068 820.633, 728.305 819.896, 728.643 811.194, 733.569 805.483, 736.801 804.051, 737.505 802.504, 738.063 800.902, 738.454 799.307, 738.663 797.781, 738.683 796.381, 738.511 795.162, 738.155 794.170, 737.629 793.479, 736.743 792.917, 735.604 792.505, 734.256 792.259, 732.749 792.188, 731.142 792.295, 729.497 792.576, 727.876 793.021, 726.343 796.360, 716.917 798.552, 710.733 798.756, 709.949 798.845, 709.087 798.815, 708.181 798.667, 707.264 798.406, 706.374 798.044, 705.542 797.592, 704.803 797.070, 704.183 795.817, 702.930 795.197, 702.408 794.458, 701.956 793.627, 701.594 792.736, 701.333 791.820, 701.185 790.913, 701.155 790.051, 701.244 789.267, 701.448 779.842, 704.788 773.657, 706.979 772.124, 707.424 770.503, 707.705 768.858, 707.812 767.251, 707.741 765.744, 707.495 764.396, 707.083 763.257, 706.521 762.371, 705.830 764.733, 703.849 772.393, 697.421 780.054, 690.993 787.714, 684.565 795.375, 678.137 803.035, 671.709 810.695, 665.281 818.356, 658.854 826.016, 652.426 833.677, 645.998 841.337, 639.570 848.998, 633.142 856.658, 626.714 864.318, 620.286 871.979, 613.858 879.639, 607.431 887.300, 601.003 894.960, 594.575 902.621, 588.147 910.281, 581.719 917.942, 575.291 925.602, 568.863 933.262, 562.435 940.923, 556.008 943.876, 553.530 944.069, 553.368 943.876, 553.530 " />
            <path fill="none" stroke-width="3.0" stroke-linecap="butt" stroke-opacity="1.0" stroke="rgb(0, 0, 0)" stroke-linejoin="bevel" d=" M 946.632, 555.931 946.552, 556.027 946.470, 556.124 940.042, 563.785 933.615, 571.445 927.187, 579.105 920.759, 586.766 914.331, 594.426 907.903, 602.087 901.475, 609.747 895.047, 617.408 888.619, 625.068 882.191, 632.729 875.764, 640.389 869.336, 648.049 862.908, 655.710 856.480, 663.370 850.052, 671.031 843.624, 678.691 837.196, 686.352 830.768, 694.012 824.341, 701.673 817.913, 709.333 811.485, 716.993 805.057, 724.654 798.629, 732.314 794.170, 737.629 " />
            <path fill="none" stroke-width="3.0" stroke-linecap="butt" stroke-opacity="1.0" stroke="rgb(0, 0, 0)" stroke-linejoin="bevel" d=" M 946.632, 555.931 946.470, 556.124 " />
            <path fill="none" stroke-width="3.0" stroke-linecap="butt" stroke-opacity="1.0" stroke="rgb(0, 0, 0)" stroke-linejoin="bevel" d=" M 950.802, 555.931 950.691, 556.124 945.691, 564.784 940.691, 573.445 935.691, 582.105 930.691, 590.765 925.691, 599.425 920.691, 608.086 915.691, 616.746 910.691, 625.406 905.691, 634.066 900.691, 642.727 895.691, 651.387 890.691, 660.047 885.691, 668.707 880.691, 677.368 875.691, 686.028 870.691, 694.688 865.691, 703.348 860.691, 712.009 855.691, 720.669 850.691, 729.329 845.691, 737.989 840.691, 746.650 835.691, 755.310 831.007, 763.422 " />
            <path fill="none" stroke-width="3.0" stroke-linecap="butt" stroke-opacity="1.0" stroke="rgb(0, 0, 0)" stroke-linejoin="bevel" d=" M 950.802, 555.931 950.691, 556.124 " />
            <path fill="none" stroke-width="3.0" stroke-linecap="butt" stroke-opacity="1.0" stroke="rgb(0, 0, 0)" stroke-linejoin="bevel" d=" M 950.691, 556.124 950.691, 556.124 954.132, 556.124 954.133, 556.124 957.157, 556.124 " />
            <path fill="none" stroke-width="3.0" stroke-linecap="butt" stroke-opacity="1.0" stroke="rgb(0, 0, 0)" stroke-linejoin="bevel" d=" M 954.201, 555.931 954.131, 556.124 950.711, 565.521 947.291, 574.918 943.871, 584.315 940.451, 593.712 937.030, 603.109 933.610, 612.506 930.190, 621.903 926.770, 631.300 923.349, 640.696 919.929, 650.093 916.509, 659.490 913.089, 668.887 909.669, 678.284 906.248, 687.681 902.828, 697.078 899.408, 706.475 895.988, 715.872 892.568, 725.269 889.147, 734.666 885.727, 744.063 882.307, 753.460 878.887, 762.857 875.467, 772.253 871.764, 782.427 " />
            <path fill="none" stroke-width="3.0" stroke-linecap="butt" stroke-opacity="1.0" stroke="rgb(0, 0, 0)" stroke-linejoin="bevel" d=" M 954.201, 555.931 954.131, 556.124 " />
            <path fill="none" stroke-width="3.0" stroke-linecap="butt" stroke-opacity="1.0" stroke="rgb(0, 0, 0)" stroke-linejoin="bevel" d=" M 957.191, 555.931 957.157, 556.124 " />
            <path fill="none" stroke-width="3.0" stroke-linecap="butt" stroke-opacity="1.0" stroke="rgb(0, 0, 0)" stroke-linejoin="bevel" d=" M 959.962, 704.706 960.000, 704.710 " />
            <path fill="none" stroke-width="3.0" stroke-linecap="butt" stroke-opacity="1.0" stroke="rgb(0, 0, 0)" stroke-linejoin="bevel" d=" M 959.969, 672.828 960.000, 672.831 " />
            <path fill="none" stroke-width="3.0" stroke-linecap="butt" stroke-opacity="1.0" stroke="rgb(0, 0, 0)" stroke-linejoin="bevel" d=" M 959.977, 640.949 960.000, 640.951 " />
            <path fill="none" stroke-width="3.0" stroke-linecap="butt" stroke-opacity="1.0" stroke="rgb(0, 0, 0)" stroke-linejoin="bevel" d=" M 809.508, 540.000 811.200, 540.000 " />
            <path fill="none" stroke-width="3.0" stroke-linecap="butt" stroke-opacity="1.0" stroke="rgb(0, 0, 0)" stroke-linejoin="bevel" d=" M 943.876, 526.470 943.973, 526.552 " />
            <path fill="none" stroke-width="3.0" stroke-linecap="butt" stroke-opacity="1.0" stroke="rgb(0, 0, 0)" stroke-linejoin="bevel" d=" M 943.973, 526.552 943.876, 526.470 " />
            <path fill="none" stroke-width="3.0" stroke-linecap="butt" stroke-opacity="1.0" stroke="rgb(0, 0, 0)" stroke-linejoin="bevel" d=" M 943.876, 549.309 944.005, 549.235 " />
            <path fill="none" stroke-width="3.0" stroke-linecap="butt" stroke-opacity="1.0" stroke="rgb(0, 0, 0)" stroke-linejoin="bevel" d=" M 944.005, 549.235 943.876, 549.309 " />
            <path fill="none" stroke-width="3.0" stroke-linecap="butt" stroke-opacity="1.0" stroke="rgb(0, 0, 0)" stroke-linejoin="bevel" d=" M 943.876, 537.157 944.069, 537.191 " />
            <path fill="none" stroke-width="3.0" stroke-linecap="butt" stroke-opacity="1.0" stroke="rgb(0, 0, 0)" stroke-linejoin="bevel" d=" M 943.876, 534.131 944.069, 534.201 " />
            <path fill="none" stroke-width="3.0" stroke-linecap="butt" stroke-opacity="1.0" stroke="rgb(0, 0, 0)" stroke-linejoin="bevel" d=" M 943.876, 530.691 944.069, 530.802 " />
            <path fill="none" stroke-width="3.0" stroke-linecap="butt" stroke-opacity="1.0" stroke="rgb(0, 0, 0)" stroke-linejoin="bevel" d=" M 943.876, 526.470 944.069, 526.632 943.973, 526.552 " />
            <path fill="none" stroke-width="3.0" stroke-linecap="butt" stroke-opacity="1.0" stroke="rgb(0, 0, 0)" stroke-linejoin="bevel" d=" M 946.470, 556.124 946.552, 556.027 " />
            <path fill="none" stroke-width="3.0" stroke-linecap="butt" stroke-opacity="1.0" stroke="rgb(0, 0, 0)" stroke-linejoin="bevel" d=" M 950.691, 556.124 950.802, 555.931 " />
            <path fill="none" stroke-width="3.0" stroke-linecap="butt" stroke-opacity="1.0" stroke="rgb(0, 0, 0)" stroke-linejoin="bevel" d=" M 960.000, 523.876 957.157, 523.876 " />
            <path fill="none" stroke-width="3.0" stroke-linecap="butt" stroke-opacity="1.0" stroke="rgb(0, 0, 0)" stroke-linejoin="bevel" d=" M 960.000, 608.899 960.000, 609.072 " />
            <path fill="none" stroke-width="3.0" stroke-linecap="butt" stroke-opacity="1.0" stroke="rgb(0, 0, 0)" stroke-linejoin="bevel" d=" M 960.000, 689.549 960.000, 688.763 " />
            <path fill="none" stroke-width="3.0" stroke-linecap="butt" stroke-opacity="1.0" stroke="rgb(0, 0, 0)" stroke-linejoin="bevel" d=" M 1060.793, 540.000 1060.793, 540.000 " />
            <path fill="none" stroke-width="3.0" stroke-linecap="butt" stroke-opacity="1.0" stroke="rgb(0, 0, 0)" stroke-linejoin="bevel" d=" M 1092.656, 540.000 1092.656, 540.000 " />
            <path fill="none" stroke-width="3.0" stroke-linecap="butt" stroke-opacity="1.0" stroke="rgb(0, 0, 0)" stroke-linejoin="bevel" d=" M 1124.625, 540.000 1124.625, 540.000 1124.625, 540.000 " />
            <path fill="none" stroke-width="3.0" stroke-linecap="butt" stroke-opacity="1.0" stroke="rgb(0, 0, 0)" stroke-linejoin="bevel" d=" M 976.124, 526.470 975.931, 526.632 976.124, 526.470 " />
            <path fill="none" stroke-width="3.0" stroke-linecap="butt" stroke-opacity="1.0" stroke="rgb(0, 0, 0)" stroke-linejoin="bevel" d=" M 976.124, 553.530 975.931, 553.368 976.124, 553.530 " />
            <path fill="none" stroke-width="3.0" stroke-linecap="butt" stroke-opacity="1.0" stroke="rgb(0, 0, 0)" stroke-linejoin="bevel" d=" M 976.124, 530.691 975.931, 530.802 976.124, 530.691 " />
            <path fill="none" stroke-width="3.0" stroke-linecap="butt" stroke-opacity="1.0" stroke="rgb(0, 0, 0)" stroke-linejoin="bevel" d=" M 976.124, 549.309 975.931, 549.198 976.124, 549.309 " />
            <path fill="none" stroke-width="3.0" stroke-linecap="butt" stroke-opacity="1.0" stroke="rgb(0, 0, 0)" stroke-linejoin="bevel" d=" M 976.124, 530.691 975.931, 530.802 " />
            <path fill="none" stroke-width="3.0" stroke-linecap="butt" stroke-opacity="1.0" stroke="rgb(0, 0, 0)" stroke-linejoin="bevel" d=" M 976.124, 545.869 975.931, 545.799 976.124, 545.869 " />
            <path fill="none" stroke-width="3.0" stroke-linecap="butt" stroke-opacity="1.0" stroke="rgb(0, 0, 0)" stroke-linejoin="bevel" d=" M 976.124, 534.131 975.931, 534.201 " />
            <path fill="none" stroke-width="3.0" stroke-linecap="butt" stroke-opacity="1.0" stroke="rgb(0, 0, 0)" stroke-linejoin="bevel" d=" M 976.124, 542.843 975.931, 542.809 976.124, 542.843 " />
            <path fill="none" stroke-width="3.0" stroke-linecap="butt" stroke-opacity="1.0" stroke="rgb(0, 0, 0)" stroke-linejoin="bevel" d=" M 976.124, 542.843 975.931, 542.809 " />
        </g>
    </g>
</svg>
