<?xml version='1.0' encoding='ascii'?>
<svg xmlns="http://www.w3.org/2000/svg" version="1.1" width="1920" height="1080">
    <g id="ViewLayer_LineSet" xmlns:inkscape="http://www.inkscape.org/namespaces/inkscape" inkscape:groupmode="lineset" inkscape:label="ViewLayer_LineSet">
        <g xmlns:inkscape="http://www.inkscape.org/namespaces/inkscape" inkscape:groupmode="layer" id="strokes" inkscape:label="strokes">
            <path fill="none" stroke-width="3.0" stroke-linecap="butt" stroke-opacity="1.0" stroke="rgb(0, 0, 0)" stroke-linejoin="bevel" d=" M 924.419, 846.908 925.541, 846.868 926.775, 846.567 928.073, 846.015 929.385, 845.235 930.662, 844.257 931.853, 843.117 932.914, 841.860 933.803, 840.534 938.876, 831.917 942.206, 826.263 942.675, 825.602 943.278, 824.980 943.991, 824.421 944.788, 823.945 945.638, 823.572 946.508, 823.316 947.365, 823.186 948.175, 823.188 949.941, 823.342 950.739, 823.481 951.560, 823.758 952.372, 824.161 953.144, 824.676 953.847, 825.283 954.453, 825.958 954.938, 826.675 955.286, 827.407 958.786, 836.775 961.083, 842.921 961.728, 844.381 962.554, 845.803 963.529, 847.132 964.617, 848.318 965.774, 849.314 966.956, 850.082 968.119, 850.593 969.217, 850.827 970.315, 850.593 971.478, 850.082 972.661, 849.314 973.818, 848.318 974.905, 847.132 975.881, 845.803 976.707, 844.381 977.352, 842.921 980.852, 833.554 983.149, 827.408 983.496, 826.675 983.982, 825.958 984.588, 825.283 985.290, 824.676 986.062, 824.162 986.875, 823.758 987.696, 823.482 988.494, 823.343 990.260, 823.188 991.070, 823.186 991.927, 823.316 992.797, 823.572 993.646, 823.945 994.443, 824.421 995.157, 824.980 995.760, 825.602 996.229, 826.263 1001.303, 834.880 1004.632, 840.535 1005.521, 841.860 1006.582, 843.117 1007.773, 844.257 1009.049, 845.236 1010.362, 846.015 1011.660, 846.567 1012.894, 846.868 1014.016, 846.908 1015.057, 846.487 1016.113, 845.782 1017.145, 844.820 1018.111, 843.638 1018.976, 842.282 1019.706, 840.803 1020.272, 839.259 1020.654, 837.709 1022.475, 827.877 1023.669, 821.425 1023.884, 820.643 1024.238, 819.853 1024.717, 819.083 1025.304, 818.363 1025.975, 817.722 1026.705, 817.184 1027.465, 816.769 1028.227, 816.493 1029.939, 816.035 1030.737, 815.892 1031.603, 815.871 1032.504, 815.973 1033.406, 816.192 1034.274, 816.522 1035.074, 816.949 1035.775, 817.457 1036.352, 818.026 1042.845, 825.632 1047.106, 830.622 1048.211, 831.773 1049.474, 832.827 1050.845, 833.742 1052.272, 834.484 1053.700, 835.024 1055.074, 835.342 1056.342, 835.425 1057.454, 835.269 1058.406, 834.673 1059.323, 833.795 1060.172, 832.669 1060.919, 831.337 1061.535, 829.851 1061.997, 828.269 1062.287, 826.650 1062.394, 825.057 1062.479, 815.058 1062.535, 808.496 1062.611, 807.690 1062.822, 806.850 1063.161, 806.008 1063.613, 805.198 1064.163, 804.450 1064.788, 803.793 1065.465, 803.252 1066.167, 802.849 1067.774, 802.100 1068.535, 801.821 1069.384, 801.650 1070.289, 801.593 1071.215, 801.653 1072.127, 801.827 1072.989, 802.109 1073.768, 802.487 1074.435, 802.948 1082.150, 809.310 1087.212, 813.484 1088.501, 814.426 1089.928, 815.245 1091.437, 815.908 1092.971, 816.391 1094.471, 816.675 1095.880, 816.749 1097.142, 816.610 1098.210, 816.264 1099.044, 815.512 1099.796, 814.488 1100.436, 813.231 1100.940, 811.790 1101.289, 810.220 1101.469, 808.581 1101.473, 806.937 1101.302, 805.350 1099.650, 795.487 1098.566, 789.016 1098.500, 788.208 1098.562, 787.344 1098.749, 786.457 1099.054, 785.580 1099.466, 784.748 1099.967, 783.992 1100.540, 783.342 1101.162, 782.823 1102.614, 781.806 1103.315, 781.400 1104.121, 781.084 1105.003, 780.871 1105.925, 780.769 1106.853, 780.782 1107.751, 780.910 1108.584, 781.147 1109.321, 781.485 1118.024, 786.411 1123.734, 789.643 1125.167, 790.346 1126.714, 790.905 1128.315, 791.296 1129.910, 791.505 1131.437, 791.524 1132.837, 791.353 1134.056, 790.997 1135.048, 790.470 1135.738, 789.585 1136.300, 788.446 1136.713, 787.097 1136.959, 785.590 1137.030, 783.984 1136.922, 782.338 1136.641, 780.718 1136.197, 779.185 1132.857, 769.759 1130.666, 763.574 1130.461, 762.790 1130.372, 761.929 1130.402, 761.022 1130.551, 760.106 1130.811, 759.215 1131.174, 758.384 1131.625, 757.644 1132.147, 757.025 1133.401, 755.771 1134.020, 755.249 1134.760, 754.798 1135.591, 754.435 1136.482, 754.175 1137.398, 754.027 1138.304, 753.996 1139.166, 754.085 1139.950, 754.290 1149.376, 757.630 1155.561, 759.821 1157.094, 760.265 1158.714, 760.547 1160.359, 760.654 1161.966, 760.583 1163.473, 760.337 1164.822, 759.925 1165.961, 759.362 1166.846, 758.672 1167.373, 757.680 1167.728, 756.461 1167.900, 755.061 1167.881, 753.534 1167.672, 751.939 1167.280, 750.338 1166.722, 748.791 1166.018, 747.358 1161.093, 738.656 1157.861, 732.945 1157.523, 732.209 1157.286, 731.375 1157.158, 730.478 1157.145, 729.550 1157.247, 728.627 1157.460, 727.746 1157.775, 726.939 1158.182, 726.238 1159.199, 724.786 1159.718, 724.164 1160.368, 723.591 1161.124, 723.090 1161.956, 722.679 1162.832, 722.374 1163.720, 722.186 1164.584, 722.124 1165.391, 722.190 1175.254, 723.842 1181.725, 724.926 1183.312, 725.098 1184.957, 725.093 1186.596, 724.913 1188.166, 724.564 1189.607, 724.060 1190.864, 723.420 1191.888, 722.668 1192.640, 721.835 1192.986, 720.766 1193.125, 719.504 1193.051, 718.095 1192.767, 716.595 1192.284, 715.061 1191.620, 713.552 1190.802, 712.125 1189.860, 710.837 1183.498, 703.122 1179.323, 698.059 1178.863, 697.393 1178.484, 696.613 1178.203, 695.751 1178.029, 694.839 1177.969, 693.913 1178.026, 693.008 1178.197, 692.159 1178.475, 691.398 1179.224, 689.792 1179.628, 689.089 1180.169, 688.412 1180.826, 687.787 1181.574, 687.237 1182.384, 686.785 1183.225, 686.446 1184.066, 686.235 1184.872, 686.160 1194.872, 686.074 1201.433, 686.018 1203.026, 685.911 1204.645, 685.621 1206.227, 685.159 1207.713, 684.543 1209.045, 683.796 1210.171, 682.948 1211.049, 682.030 1211.645, 681.078 1211.800, 679.966 1211.718, 678.698 1211.400, 677.324 1210.860, 675.896 1210.118, 674.469 1209.203, 673.098 1208.149, 671.835 1206.998, 670.730 1199.392, 664.237 1194.402, 659.976 1193.833, 659.400 1193.325, 658.698 1192.898, 657.898 1192.568, 657.030 1192.348, 656.128 1192.247, 655.227 1192.268, 654.361 1192.410, 653.564 1192.869, 651.851 1193.145, 651.089 1193.560, 650.329 1194.098, 649.599 1194.739, 648.928 1195.458, 648.342 1196.228, 647.862 1197.019, 647.508 1197.801, 647.294 1207.633, 645.473 1214.085, 644.278 1215.635, 643.897 1217.179, 643.330 1218.657, 642.600 1220.013, 641.735 1221.195, 640.769 1222.157, 639.737 1222.863, 638.681 1223.284, 637.640 1223.244, 636.518 1222.943, 635.284 1222.391, 633.986 1221.611, 632.674 1220.633, 631.397 1219.493, 630.206 1218.236, 629.145 1216.910, 628.256 1208.293, 623.183 1202.639, 619.853 1201.978, 619.384 1201.356, 618.781 1200.797, 618.068 1200.321, 617.271 1199.948, 616.421 1199.692, 615.551 1199.562, 614.694 1199.564, 613.884 1199.718, 612.118 1199.857, 611.320 1200.134, 610.499 1200.537, 609.687 1201.052, 608.914 1201.659, 608.212 1202.334, 607.606 1203.051, 607.121 1203.783, 606.773 1213.151, 603.273 1219.297, 600.976 1220.757, 600.331 1222.179, 599.505 1223.508, 598.529 1224.694, 597.442 1225.690, 596.285 1226.458, 595.102 1226.969, 593.940 1227.203, 592.842 1226.969, 591.743 1226.458, 590.581 1225.690, 589.398 1224.694, 588.241 1223.508, 587.154 1222.179, 586.178 1220.757, 585.352 1219.297, 584.707 1209.930, 581.207 1203.783, 578.910 1203.051, 578.563 1202.334, 578.077 1201.659, 577.471 1201.052, 576.769 1200.537, 575.996 1200.134, 575.184 1199.857, 574.363 1199.718, 573.565 1199.564, 571.799 1199.562, 570.989 1199.692, 570.132 1199.948, 569.262 1200.321, 568.413 1200.797, 567.615 1201.356, 566.902 1201.978, 566.299 1202.639, 565.830 1211.256, 560.756 1216.910, 557.427 1218.236, 556.538 1219.493, 555.477 1220.633, 554.286 1221.611, 553.009 1222.391, 551.697 1222.943, 550.399 1223.244, 549.165 1223.284, 548.043 1222.863, 547.002 1222.157, 545.946 1221.195, 544.914 1220.013, 543.948 1218.657, 543.083 1217.179, 542.353 1215.635, 541.786 1214.085, 541.405 1204.252, 539.584 1197.801, 538.389 1197.019, 538.175 1196.228, 537.821 1195.458, 537.342 1194.739, 536.755 1194.098, 536.084 1193.560, 535.354 1193.145, 534.594 1192.869, 533.832 1192.410, 532.120 1192.268, 531.322 1192.247, 530.456 1192.348, 529.555 1192.568, 528.653 1192.898, 527.785 1193.325, 526.985 1193.833, 526.284 1194.402, 525.707 1202.007, 519.214 1206.998, 514.953 1208.149, 513.848 1209.203, 512.585 1210.118, 511.214 1210.860, 509.787 1211.400, 508.359 1211.718, 506.985 1211.800, 505.717 1211.645, 504.605 1211.049, 503.653 1210.171, 502.736 1209.045, 501.887 1207.713, 501.140 1206.227, 500.524 1204.645, 500.062 1203.026, 499.772 1201.433, 499.665 1191.433, 499.580 1184.872, 499.524 1184.066, 499.448 1183.225, 499.237 1182.384, 498.898 1181.574, 498.446 1180.826, 497.896 1180.169, 497.271 1179.628, 496.594 1179.224, 495.892 1178.475, 494.285 1178.197, 493.524 1178.026, 492.675 1177.969, 491.770 1178.029, 490.844 1178.203, 489.932 1178.484, 489.070 1178.863, 488.291 1179.323, 487.624 1185.685, 479.909 1189.860, 474.846 1190.802, 473.558 1191.620, 472.131 1192.284, 470.622 1192.767, 469.088 1193.051, 467.588 1193.125, 466.179 1192.986, 464.917 1192.640, 463.849 1191.888, 463.015 1190.864, 462.263 1189.607, 461.623 1188.166, 461.119 1186.596, 460.770 1184.957, 460.590 1183.312, 460.586 1181.725, 460.757 1171.863, 462.409 1165.391, 463.493 1164.584, 463.559 1163.720, 463.497 1162.832, 463.310 1161.956, 463.005 1161.124, 462.593 1160.368, 462.092 1159.718, 461.519 1159.199, 460.897 1158.182, 459.445 1157.775, 458.744 1157.459, 457.938 1157.247, 457.056 1157.145, 456.134 1157.158, 455.206 1157.286, 454.308 1157.523, 453.474 1157.860, 452.738 1162.786, 444.035 1166.018, 438.325 1166.722, 436.892 1167.280, 435.345 1167.672, 433.744 1167.881, 432.149 1167.900, 430.622 1167.728, 429.222 1167.373, 428.003 1166.846, 427.011 1165.961, 426.321 1164.822, 425.759 1163.473, 425.346 1161.966, 425.100 1160.359, 425.029 1158.714, 425.137 1157.094, 425.418 1155.561, 425.862 1146.135, 429.202 1139.950, 431.393 1139.166, 431.598 1138.304, 431.687 1137.398, 431.657 1136.482, 431.508 1135.591, 431.248 1134.760, 430.885 1134.020, 430.434 1133.401, 429.912 1132.147, 428.658 1131.625, 428.039 1131.174, 427.299 1130.811, 426.468 1130.551, 425.577 1130.402, 424.661 1130.372, 423.755 1130.461, 422.893 1130.666, 422.109 1134.006, 412.683 1136.197, 406.498 1136.641, 404.965 1136.922, 403.345 1137.030, 401.700 1136.959, 400.093 1136.713, 398.586 1136.300, 397.237 1135.738, 396.098 1135.048, 395.213 1134.056, 394.686 1132.836, 394.331 1131.437, 394.159 1129.910, 394.178 1128.315, 394.387 1126.714, 394.779 1125.167, 395.337 1123.734, 396.041 1115.031, 400.966 1109.321, 404.198 1108.584, 404.536 1107.751, 404.773 1106.853, 404.901 1105.925, 404.914 1105.003, 404.812 1104.121, 404.599 1103.315, 404.284 1102.614, 403.877 1101.162, 402.860 1100.540, 402.341 1099.967, 401.691 1099.466, 400.935 1099.054, 400.103 1098.749, 399.227 1098.562, 398.339 1098.500, 397.475 1098.566, 396.667 1100.218, 386.805 1101.302, 380.333 1101.473, 378.747 1101.469, 377.102 1101.289, 375.463 1100.940, 373.893 1100.436, 372.452 1099.796, 371.195 1099.044, 370.171 1098.210, 369.419 1097.142, 369.073 1095.880, 368.934 1094.471, 369.008 1092.971, 369.292 1091.437, 369.775 1089.928, 370.439 1088.501, 371.257 1087.212, 372.199 1079.497, 378.561 1074.435, 382.736 1073.768, 383.196 1072.989, 383.574 1072.127, 383.856 1071.215, 384.030 1070.289, 384.090 1069.384, 384.033 1068.535, 383.862 1067.774, 383.584 1066.167, 382.834 1065.465, 382.431 1064.788, 381.890 1064.163, 381.233 1063.613, 380.485 1063.161, 379.675 1062.822, 378.834 1062.611, 377.993 1062.535, 377.187 1062.450, 367.187 1062.394, 360.626 1062.287, 359.033 1061.997, 357.414 1061.535, 355.832 1060.919, 354.346 1060.172, 353.014 1059.323, 351.888 1058.406, 351.010 1057.454, 350.414 1056.342, 350.259 1055.074, 350.341 1053.700, 350.659 1052.272, 351.199 1050.845, 351.941 1049.474, 352.856 1048.211, 353.910 1047.106, 355.061 1040.612, 362.667 1036.352, 367.657 1035.775, 368.226 1035.074, 368.734 1034.273, 369.161 1033.406, 369.491 1032.504, 369.711 1031.603, 369.812 1030.737, 369.791 1029.939, 369.649 1028.227, 369.190 1027.465, 368.914 1026.705, 368.499 1025.975, 367.961 1025.304, 367.320 1024.717, 366.600 1024.238, 365.831 1023.884, 365.040 1023.669, 364.258 1021.849, 354.426 1020.654, 347.974 1020.272, 346.424 1019.706, 344.880 1018.976, 343.402 1018.111, 342.045 1017.145, 340.864 1016.113, 339.902 1015.057, 339.196 1014.016, 338.775 1012.894, 338.815 1011.660, 339.117 1010.362, 339.668 1009.049, 340.448 1007.773, 341.426 1006.582, 342.566 1005.521, 343.823 1004.632, 345.149 999.558, 353.766 996.229, 359.420 995.760, 360.081 995.157, 360.703 994.443, 361.262 993.646, 361.738 992.796, 362.111 991.927, 362.367 991.070, 362.497 990.260, 362.495 988.494, 362.341 987.696, 362.202 986.875, 361.925 986.062, 361.522 985.290, 361.007 984.588, 360.400 983.982, 359.725 983.496, 359.008 983.149, 358.276 979.649, 348.908 977.352, 342.762 976.707, 341.302 975.881, 339.880 974.905, 338.551 973.818, 337.365 972.661, 336.369 971.478, 335.601 970.315, 335.090 969.217, 334.856 968.119, 335.090 966.956, 335.601 965.774, 336.369 964.617, 337.365 963.529, 338.551 962.554, 339.880 961.728, 341.302 961.083, 342.762 957.582, 352.129 955.286, 358.276 954.938, 359.008 954.453, 359.725 953.847, 360.400 953.144, 361.007 952.372, 361.522 951.560, 361.925 950.739, 362.202 949.941, 362.341 948.175, 362.495 947.365, 362.497 946.508, 362.367 945.638, 362.111 944.788, 361.738 943.991, 361.262 943.278, 360.703 942.675, 360.081 942.206, 359.420 937.132, 350.803 933.802, 345.149 932.914, 343.823 931.853, 342.566 930.662, 341.426 929.385, 340.448 928.073, 339.668 926.775, 339.116 925.541, 338.815 924.419, 338.775 " />
            <path fill="none" stroke-width="3.0" stroke-linecap="butt" stroke-opacity="1.0" stroke="rgb(0, 0, 0)" stroke-linejoin="bevel" d=" M 969.107, 709.096 969.217, 710.127 970.735, 709.978 972.248, 709.519 973.642, 708.774 974.864, 707.771 975.867, 706.549 976.612, 705.155 977.071, 703.642 977.227, 702.068 977.072, 700.495 976.944, 700.071 976.614, 698.981 975.869, 697.587 974.867, 696.364 973.645, 695.361 972.251, 694.615 970.739, 694.156 969.217, 694.005 969.166, 694.000 967.593, 694.155 966.081, 694.613 964.687, 695.358 963.465, 696.361 962.462, 697.583 961.717, 698.978 961.258, 700.491 961.155, 701.526 961.102, 702.064 961.257, 703.638 961.715, 705.151 962.460, 706.546 963.462, 707.768 964.684, 708.772 966.078, 709.517 967.590, 709.977 969.107, 710.127 969.163, 710.132 969.217, 710.127 " />
            <path fill="none" stroke-width="3.0" stroke-linecap="butt" stroke-opacity="1.0" stroke="rgb(0, 0, 0)" stroke-linejoin="bevel" d=" M 969.217, 694.005 969.217, 693.172 969.217, 683.172 969.217, 677.863 " />
            <path fill="none" stroke-width="3.0" stroke-linecap="butt" stroke-opacity="1.0" stroke="rgb(0, 0, 0)" stroke-linejoin="bevel" d=" M 969.217, 677.863 970.743, 677.714 972.255, 677.255 973.649, 676.510 974.871, 675.507 975.874, 674.285 976.620, 672.891 977.079, 671.378 977.234, 669.804 977.079, 668.231 976.621, 666.717 976.585, 666.650 975.876, 665.323 974.874, 664.100 973.653, 663.097 972.259, 662.351 970.747, 661.891 969.217, 661.740 969.174, 661.736 967.601, 661.891 966.088, 662.349 964.694, 663.094 963.473, 664.097 962.470, 665.319 961.724, 666.713 961.265, 668.226 961.144, 669.455 961.110, 669.800 961.264, 671.374 961.723, 672.887 962.468, 674.282 963.470, 675.504 964.691, 676.508 966.085, 677.253 967.597, 677.713 969.107, 677.862 969.170, 677.868 969.217, 677.863 969.107, 677.218 " />
            <path fill="none" stroke-width="3.0" stroke-linecap="butt" stroke-opacity="1.0" stroke="rgb(0, 0, 0)" stroke-linejoin="bevel" d=" M 969.217, 661.740 969.217, 661.293 969.217, 651.293 969.217, 641.293 969.217, 631.293 969.217, 621.293 969.217, 611.293 969.217, 608.966 " />
            <path fill="none" stroke-width="3.0" stroke-linecap="butt" stroke-opacity="1.0" stroke="rgb(0, 0, 0)" stroke-linejoin="bevel" d=" M 969.217, 608.966 972.060, 608.966 972.062, 608.966 975.086, 608.966 975.206, 608.966 978.527, 608.966 978.781, 608.966 982.747, 608.966 983.167, 608.966 985.341, 608.966 985.341, 606.371 985.341, 605.832 985.341, 602.151 985.341, 601.583 985.341, 598.710 985.341, 598.119 985.341, 595.685 985.341, 595.073 985.341, 592.842 985.341, 592.210 985.341, 589.998 985.341, 589.348 985.341, 586.973 " />
            <path fill="none" stroke-width="3.0" stroke-linecap="butt" stroke-opacity="1.0" stroke="rgb(0, 0, 0)" stroke-linejoin="bevel" d=" M 972.062, 608.966 971.916, 608.142 972.060, 608.966 973.797, 618.814 975.533, 628.662 977.270, 638.510 979.006, 648.358 980.743, 658.206 982.479, 668.054 984.216, 677.902 985.952, 687.750 987.689, 697.598 989.425, 707.446 991.162, 717.295 992.898, 727.143 994.635, 736.991 996.371, 746.839 998.108, 756.687 999.844, 766.535 1001.581, 776.383 1003.317, 786.231 1005.054, 796.079 1006.790, 805.927 1008.527, 815.775 1010.263, 825.623 1012.000, 835.471 1014.016, 846.908 " />
            <path fill="none" stroke-width="3.0" stroke-linecap="butt" stroke-opacity="1.0" stroke="rgb(0, 0, 0)" stroke-linejoin="bevel" d=" M 969.217, 850.827 969.217, 840.827 969.217, 830.827 969.217, 820.827 969.217, 810.827 969.217, 800.827 969.217, 790.827 969.217, 780.827 969.217, 774.654 " />
            <path fill="none" stroke-width="3.0" stroke-linecap="butt" stroke-opacity="1.0" stroke="rgb(0, 0, 0)" stroke-linejoin="bevel" d=" M 969.217, 774.654 970.720, 774.506 972.233, 774.047 973.627, 773.302 974.849, 772.299 975.852, 771.077 976.597, 769.683 977.056, 768.170 977.212, 766.597 977.057, 765.023 977.029, 764.930 976.599, 763.510 975.854, 762.115 974.852, 760.892 973.630, 759.889 972.236, 759.143 970.724, 758.684 969.217, 758.535 " />
            <path fill="none" stroke-width="3.0" stroke-linecap="butt" stroke-opacity="1.0" stroke="rgb(0, 0, 0)" stroke-linejoin="bevel" d=" M 969.217, 726.270 969.217, 725.052 969.217, 715.052 969.217, 710.127 " />
            <path fill="none" stroke-width="3.0" stroke-linecap="butt" stroke-opacity="1.0" stroke="rgb(0, 0, 0)" stroke-linejoin="bevel" d=" M 969.217, 758.535 969.217, 756.931 969.217, 746.931 969.217, 742.390 " />
            <path fill="none" stroke-width="3.0" stroke-linecap="butt" stroke-opacity="1.0" stroke="rgb(0, 0, 0)" stroke-linejoin="bevel" d=" M 969.217, 742.390 970.728, 742.242 972.240, 741.783 973.634, 741.038 974.856, 740.035 975.859, 738.813 976.605, 737.419 977.064, 735.906 977.219, 734.332 977.065, 732.759 976.992, 732.520 976.606, 731.246 975.861, 729.851 974.859, 728.628 973.638, 727.625 972.244, 726.879 970.732, 726.420 969.217, 726.270 " />
            <path fill="none" stroke-width="3.0" stroke-linecap="butt" stroke-opacity="1.0" stroke="rgb(0, 0, 0)" stroke-linejoin="bevel" d=" M 969.107, 608.142 969.107, 608.966 " />
            <path fill="none" stroke-width="3.0" stroke-linecap="butt" stroke-opacity="1.0" stroke="rgb(0, 0, 0)" stroke-linejoin="bevel" d=" M 969.107, 608.142 969.217, 608.966 969.107, 608.966 966.374, 608.966 966.153, 608.966 963.349, 608.966 963.009, 608.966 959.908, 608.966 959.433, 608.966 955.688, 608.966 955.048, 608.966 953.093, 608.966 953.093, 606.371 953.093, 605.648 953.093, 602.151 953.093, 601.456 953.093, 598.710 953.093, 598.039 953.093, 595.685 953.093, 595.034 953.093, 592.842 953.093, 592.210 953.093, 589.998 953.093, 589.386 953.093, 586.973 953.093, 586.382 953.093, 583.532 953.093, 582.965 953.093, 579.312 953.093, 578.773 953.093, 576.717 953.176, 576.717 955.688, 576.717 959.908, 576.717 963.349, 576.717 966.374, 576.717 969.217, 576.717 972.060, 576.717 975.086, 576.717 978.527, 576.717 982.747, 576.717 985.039, 576.717 985.341, 576.717 985.341, 578.588 985.341, 579.312 985.341, 582.837 985.341, 583.532 985.341, 586.301 985.341, 586.973 985.039, 586.412 " />
            <path fill="none" stroke-width="3.0" stroke-linecap="butt" stroke-opacity="1.0" stroke="rgb(0, 0, 0)" stroke-linejoin="bevel" d=" M 969.107, 677.218 969.107, 677.862 " />
            <path fill="none" stroke-width="3.0" stroke-linecap="butt" stroke-opacity="1.0" stroke="rgb(0, 0, 0)" stroke-linejoin="bevel" d=" M 969.107, 709.096 969.107, 710.127 " />
            <path fill="none" stroke-width="3.0" stroke-linecap="butt" stroke-opacity="1.0" stroke="rgb(0, 0, 0)" stroke-linejoin="bevel" d=" M 969.107, 740.974 969.217, 742.390 969.155, 742.396 969.107, 742.392 967.582, 742.241 966.070, 741.782 964.676, 741.036 963.455, 740.032 962.453, 738.810 961.708, 737.415 961.249, 735.902 961.095, 734.328 961.167, 733.598 961.250, 732.755 961.709, 731.242 962.455, 729.847 963.458, 728.625 964.680, 727.623 966.073, 726.878 967.586, 726.419 969.159, 726.264 969.217, 726.270 969.107, 725.041 " />
            <path fill="none" stroke-width="3.0" stroke-linecap="butt" stroke-opacity="1.0" stroke="rgb(0, 0, 0)" stroke-linejoin="bevel" d=" M 969.107, 740.974 969.107, 742.392 " />
            <path fill="none" stroke-width="3.0" stroke-linecap="butt" stroke-opacity="1.0" stroke="rgb(0, 0, 0)" stroke-linejoin="bevel" d=" M 969.107, 772.851 969.217, 774.654 969.148, 774.660 969.107, 774.656 967.575, 774.505 966.062, 774.046 964.669, 773.300 963.447, 772.297 962.445, 771.074 961.700, 769.679 961.242, 768.166 961.087, 766.592 961.172, 765.598 961.212, 765.122 961.702, 763.506 962.447, 762.111 963.450, 760.889 964.672, 759.887 966.066, 759.142 967.578, 758.683 969.151, 758.528 969.217, 758.535 969.107, 756.920 " />
            <path fill="none" stroke-width="3.0" stroke-linecap="butt" stroke-opacity="1.0" stroke="rgb(0, 0, 0)" stroke-linejoin="bevel" d=" M 969.107, 772.851 969.107, 774.656 " />
            <path fill="none" stroke-width="3.0" stroke-linecap="butt" stroke-opacity="1.0" stroke="rgb(0, 0, 0)" stroke-linejoin="bevel" d=" M 977.033, 764.888 977.029, 764.930 976.879, 766.443 976.426, 767.938 975.689, 769.315 974.698, 770.523 973.491, 771.514 972.114, 772.250 970.619, 772.703 969.107, 772.851 969.065, 772.856 967.511, 772.702 966.017, 772.248 964.640, 771.511 963.433, 770.520 962.443, 769.312 961.707, 767.934 961.254, 766.439 961.172, 765.598 " />
            <path fill="none" stroke-width="3.0" stroke-linecap="butt" stroke-opacity="1.0" stroke="rgb(0, 0, 0)" stroke-linejoin="bevel" d=" M 985.039, 576.717 985.039, 578.842 985.039, 583.012 985.039, 586.412 985.039, 589.401 985.039, 592.210 985.039, 595.019 985.039, 598.009 985.039, 601.408 985.039, 605.578 985.039, 608.142 982.475, 608.142 978.305, 608.142 974.906, 608.142 971.916, 608.142 969.107, 608.142 966.298, 608.142 963.309, 608.142 959.909, 608.142 955.739, 608.142 953.176, 608.142 953.176, 605.578 953.176, 601.408 953.176, 598.009 953.176, 595.019 953.176, 592.210 953.176, 589.401 953.176, 586.412 953.176, 583.012 953.176, 578.842 953.176, 576.717 " />
            <path fill="none" stroke-width="3.0" stroke-linecap="butt" stroke-opacity="1.0" stroke="rgb(0, 0, 0)" stroke-linejoin="bevel" d=" M 976.992, 732.520 977.040, 733.009 976.887, 734.564 976.433, 736.059 975.697, 737.437 974.706, 738.644 973.499, 739.635 972.121, 740.371 970.627, 740.824 969.107, 740.974 969.073, 740.977 967.519, 740.823 966.024, 740.370 964.647, 739.633 963.441, 738.641 962.450, 737.433 961.714, 736.055 961.261, 734.560 961.167, 733.598 " />
            <path fill="none" stroke-width="3.0" stroke-linecap="butt" stroke-opacity="1.0" stroke="rgb(0, 0, 0)" stroke-linejoin="bevel" d=" M 976.585, 666.650 976.902, 667.697 977.055, 669.252 976.902, 670.807 976.448, 672.302 975.712, 673.680 974.721, 674.887 973.513, 675.878 972.136, 676.614 970.642, 677.067 969.107, 677.218 969.087, 677.220 967.534, 677.066 966.039, 676.612 964.662, 675.876 963.455, 674.884 962.465, 673.676 961.729, 672.298 961.276, 670.803 961.144, 669.455 " />
            <path fill="none" stroke-width="3.0" stroke-linecap="butt" stroke-opacity="1.0" stroke="rgb(0, 0, 0)" stroke-linejoin="bevel" d=" M 976.944, 700.071 977.048, 701.131 976.894, 702.686 976.441, 704.180 975.704, 705.558 974.713, 706.766 973.506, 707.756 972.129, 708.492 970.634, 708.946 969.107, 709.096 969.080, 709.098 967.526, 708.945 966.032, 708.491 964.655, 707.754 963.448, 706.763 962.458, 705.555 961.722, 704.177 961.269, 702.682 961.155, 701.526 " />
            <path fill="none" stroke-width="3.0" stroke-linecap="butt" stroke-opacity="1.0" stroke="rgb(0, 0, 0)" stroke-linejoin="bevel" d=" M 975.206, 608.966 974.906, 608.142 975.086, 608.966 978.506, 618.363 981.926, 627.760 985.347, 637.156 988.767, 646.553 992.187, 655.950 995.607, 665.347 999.027, 674.744 1002.448, 684.141 1005.868, 693.538 1009.288, 702.935 1012.708, 712.332 1016.128, 721.729 1019.549, 731.126 1022.969, 740.523 1026.389, 749.920 1029.809, 759.317 1033.229, 768.713 1036.650, 778.110 1040.070, 787.507 1043.490, 796.904 1046.910, 806.301 1050.331, 815.698 1053.751, 825.095 1057.454, 835.269 " />
            <path fill="none" stroke-width="3.0" stroke-linecap="butt" stroke-opacity="1.0" stroke="rgb(0, 0, 0)" stroke-linejoin="bevel" d=" M 978.781, 608.966 978.305, 608.142 978.527, 608.966 983.527, 617.626 988.527, 626.286 993.527, 634.946 998.527, 643.607 1003.527, 652.267 1008.527, 660.927 1013.527, 669.587 1018.527, 678.248 1023.527, 686.908 1028.527, 695.568 1033.527, 704.228 1038.527, 712.889 1043.527, 721.549 1048.527, 730.209 1053.527, 738.870 1058.527, 747.530 1063.527, 756.190 1068.527, 764.850 1073.527, 773.511 1078.527, 782.171 1083.527, 790.831 1088.527, 799.491 1093.527, 808.152 1098.210, 816.264 " />
            <path fill="none" stroke-width="3.0" stroke-linecap="butt" stroke-opacity="1.0" stroke="rgb(0, 0, 0)" stroke-linejoin="bevel" d=" M 983.167, 608.966 982.475, 608.142 982.747, 608.966 989.175, 616.626 995.603, 624.287 1002.031, 631.947 1008.459, 639.607 1014.887, 647.268 1021.314, 654.928 1027.742, 662.589 1034.170, 670.249 1040.598, 677.910 1047.026, 685.570 1053.454, 693.231 1059.882, 700.891 1066.310, 708.551 1072.737, 716.212 1079.165, 723.872 1085.593, 731.533 1092.021, 739.193 1098.449, 746.854 1104.877, 754.514 1111.305, 762.175 1117.733, 769.835 1124.160, 777.495 1130.588, 785.156 1135.048, 790.470 " />
            <path fill="none" stroke-width="3.0" stroke-linecap="butt" stroke-opacity="1.0" stroke="rgb(0, 0, 0)" stroke-linejoin="bevel" d=" M 985.341, 605.832 985.039, 605.578 985.341, 606.371 993.002, 612.799 1000.662, 619.227 1008.323, 625.655 1015.983, 632.083 1023.644, 638.511 1031.304, 644.939 1038.965, 651.366 1046.625, 657.794 1054.286, 664.222 1061.946, 670.650 1069.606, 677.078 1077.267, 683.506 1084.927, 689.934 1092.588, 696.362 1100.248, 702.789 1107.909, 709.217 1115.569, 715.645 1123.229, 722.073 1130.890, 728.501 1138.550, 734.929 1146.211, 741.357 1153.871, 747.785 1161.532, 754.212 1166.846, 758.672 " />
            <path fill="none" stroke-width="3.0" stroke-linecap="butt" stroke-opacity="1.0" stroke="rgb(0, 0, 0)" stroke-linejoin="bevel" d=" M 985.341, 601.583 985.039, 601.408 985.341, 602.151 994.002, 607.151 1002.662, 612.151 1011.322, 617.151 1019.983, 622.151 1028.643, 627.151 1037.303, 632.151 1045.963, 637.151 1054.624, 642.151 1063.284, 647.151 1071.944, 652.151 1080.604, 657.151 1089.265, 662.151 1097.925, 667.151 1106.585, 672.151 1115.245, 677.151 1123.906, 682.151 1132.566, 687.151 1141.226, 692.151 1149.886, 697.151 1158.547, 702.151 1167.207, 707.151 1175.867, 712.151 1184.527, 717.151 1192.640, 721.835 " />
            <path fill="none" stroke-width="3.0" stroke-linecap="butt" stroke-opacity="1.0" stroke="rgb(0, 0, 0)" stroke-linejoin="bevel" d=" M 985.341, 598.119 985.039, 598.009 985.341, 598.710 994.738, 602.130 1004.135, 605.551 1013.532, 608.971 1022.929, 612.391 1032.326, 615.811 1041.723, 619.231 1051.120, 622.652 1060.517, 626.072 1069.914, 629.492 1079.311, 632.912 1088.708, 636.332 1098.105, 639.753 1107.502, 643.173 1116.898, 646.593 1126.295, 650.013 1135.692, 653.434 1145.089, 656.854 1154.486, 660.274 1163.883, 663.694 1173.280, 667.114 1182.677, 670.535 1192.074, 673.955 1201.471, 677.375 1211.645, 681.078 " />
            <path fill="none" stroke-width="3.0" stroke-linecap="butt" stroke-opacity="1.0" stroke="rgb(0, 0, 0)" stroke-linejoin="bevel" d=" M 985.341, 595.073 985.039, 595.019 985.341, 595.685 995.190, 597.421 1005.038, 599.158 1014.886, 600.894 1024.734, 602.631 1034.582, 604.367 1044.430, 606.104 1054.278, 607.840 1064.126, 609.577 1073.974, 611.313 1083.822, 613.049 1093.670, 614.786 1103.518, 616.522 1113.367, 618.259 1123.215, 619.995 1133.063, 621.732 1142.911, 623.468 1152.759, 625.205 1162.607, 626.941 1172.455, 628.678 1182.303, 630.414 1192.151, 632.151 1201.999, 633.887 1211.847, 635.624 1223.284, 637.640 " />
            <path fill="none" stroke-width="3.0" stroke-linecap="butt" stroke-opacity="1.0" stroke="rgb(0, 0, 0)" stroke-linejoin="bevel" d=" M 985.341, 592.210 985.039, 592.210 985.341, 592.842 995.341, 592.842 1005.341, 592.842 1015.341, 592.842 1025.342, 592.842 1035.342, 592.842 1038.206, 592.842 1039.089, 592.842 " />
            <path fill="none" stroke-width="3.0" stroke-linecap="butt" stroke-opacity="1.0" stroke="rgb(0, 0, 0)" stroke-linejoin="bevel" d=" M 1039.089, 592.842 1039.244, 594.414 1039.702, 595.927 1040.447, 597.321 1041.450, 598.542 1042.031, 599.019 1042.672, 599.545 1044.065, 600.290 1045.578, 600.749 1047.151, 600.904 1048.724, 600.749 1050.236, 600.290 1051.630, 599.545 1052.851, 598.542 1053.854, 597.321 1054.599, 595.927 1055.058, 594.414 1055.235, 592.842 1055.213, 592.842 1055.212, 592.829 1055.151, 592.210 1055.058, 591.269 1054.599, 589.756 1053.854, 588.363 1052.851, 587.141 1051.630, 586.138 1050.236, 585.393 1050.089, 585.349 1048.724, 584.934 1047.151, 584.780 1045.578, 584.934 1044.065, 585.393 1042.672, 586.138 1041.450, 587.141 1040.447, 588.363 1039.702, 589.756 1039.244, 591.269 1039.099, 592.735 1039.089, 592.842 " />
            <path fill="none" stroke-width="3.0" stroke-linecap="butt" stroke-opacity="1.0" stroke="rgb(0, 0, 0)" stroke-linejoin="bevel" d=" M 1055.235, 592.842 1065.235, 592.842 1070.069, 592.842 1071.337, 592.842 " />
            <path fill="none" stroke-width="3.0" stroke-linecap="butt" stroke-opacity="1.0" stroke="rgb(0, 0, 0)" stroke-linejoin="bevel" d=" M 1071.337, 592.842 1071.492, 594.414 1071.951, 595.927 1072.696, 597.321 1073.698, 598.542 1074.920, 599.545 1075.021, 599.599 1076.314, 600.290 1077.826, 600.749 1079.399, 600.904 1080.972, 600.749 1082.484, 600.290 1083.878, 599.545 1085.100, 598.542 1086.102, 597.321 1086.847, 595.927 1087.306, 594.414 1087.568, 592.842 1087.461, 592.842 1087.457, 592.798 1087.399, 592.211 1087.306, 591.269 1086.847, 589.756 1086.102, 588.363 1085.100, 587.141 1083.878, 586.138 1082.484, 585.393 1081.446, 585.078 1080.972, 584.934 1079.399, 584.780 1077.826, 584.934 1076.314, 585.393 1074.920, 586.138 1073.698, 587.141 1072.696, 588.363 1071.951, 589.756 1071.492, 591.269 1071.347, 592.735 1071.337, 592.842 " />
            <path fill="none" stroke-width="3.0" stroke-linecap="butt" stroke-opacity="1.0" stroke="rgb(0, 0, 0)" stroke-linejoin="bevel" d=" M 1151.958, 592.842 1151.955, 592.815 1151.895, 592.210 1151.803, 591.269 1151.344, 589.756 1150.599, 588.363 1149.596, 587.141 1148.375, 586.138 1146.981, 585.393 1145.468, 584.934 1144.775, 584.866 1143.896, 584.780 1142.426, 584.904 1140.810, 585.393 1139.416, 586.138 1138.195, 587.141 1137.192, 588.363 1136.447, 589.756 1135.988, 591.269 1135.731, 592.811 1135.726, 592.842 1135.833, 592.842 1135.988, 594.414 1136.447, 595.927 1137.192, 597.321 1138.195, 598.542 1139.416, 599.545 1140.348, 600.043 1140.810, 600.290 1142.323, 600.749 1143.896, 600.904 1145.468, 600.749 1146.981, 600.290 1148.375, 599.545 1149.596, 598.542 1150.599, 597.321 1151.344, 595.927 1151.803, 594.414 1152.053, 592.841 " />
            <path fill="none" stroke-width="3.0" stroke-linecap="butt" stroke-opacity="1.0" stroke="rgb(0, 0, 0)" stroke-linejoin="bevel" d=" M 1119.817, 592.842 1129.817, 592.842 1133.783, 592.842 1135.833, 592.842 1135.731, 592.811 " />
            <path fill="none" stroke-width="3.0" stroke-linecap="butt" stroke-opacity="1.0" stroke="rgb(0, 0, 0)" stroke-linejoin="bevel" d=" M 1119.554, 594.414 1119.817, 592.842 1119.709, 592.842 1119.706, 592.807 1119.647, 592.211 1119.554, 591.269 1119.096, 589.756 1118.351, 588.363 1117.348, 587.141 1116.126, 586.138 1114.732, 585.393 1113.220, 584.934 1112.999, 584.913 1111.647, 584.780 1110.074, 584.934 1108.562, 585.393 1107.168, 586.138 1105.947, 587.141 1104.944, 588.363 1104.199, 589.756 1103.740, 591.269 1103.484, 592.805 1103.478, 592.842 1103.585, 592.842 1103.740, 594.414 1104.199, 595.927 1104.944, 597.321 1105.947, 598.542 1107.168, 599.545 1107.775, 599.869 1108.562, 600.290 1110.074, 600.749 1111.647, 600.904 1113.220, 600.749 1114.732, 600.290 1116.126, 599.545 1117.348, 598.542 1118.351, 597.321 1119.096, 595.927 1119.554, 594.414 " />
            <path fill="none" stroke-width="3.0" stroke-linecap="butt" stroke-opacity="1.0" stroke="rgb(0, 0, 0)" stroke-linejoin="bevel" d=" M 1087.568, 592.842 1097.568, 592.842 1101.919, 592.842 1103.585, 592.842 1103.484, 592.805 " />
            <path fill="none" stroke-width="3.0" stroke-linecap="butt" stroke-opacity="1.0" stroke="rgb(0, 0, 0)" stroke-linejoin="bevel" d=" M 1055.151, 592.210 1054.075, 592.210 1055.212, 592.829 " />
            <path fill="none" stroke-width="3.0" stroke-linecap="butt" stroke-opacity="1.0" stroke="rgb(0, 0, 0)" stroke-linejoin="bevel" d=" M 1119.647, 592.211 1117.801, 592.210 1119.706, 592.807 " />
            <path fill="none" stroke-width="3.0" stroke-linecap="butt" stroke-opacity="1.0" stroke="rgb(0, 0, 0)" stroke-linejoin="bevel" d=" M 1151.895, 592.210 1149.664, 592.210 1151.955, 592.815 " />
            <path fill="none" stroke-width="3.0" stroke-linecap="butt" stroke-opacity="1.0" stroke="rgb(0, 0, 0)" stroke-linejoin="bevel" d=" M 1087.399, 592.211 1085.938, 592.210 1087.457, 592.798 " />
            <path fill="none" stroke-width="3.0" stroke-linecap="butt" stroke-opacity="1.0" stroke="rgb(0, 0, 0)" stroke-linejoin="bevel" d=" M 1112.999, 584.913 1114.261, 585.587 1115.468, 586.578 1116.458, 587.785 1117.195, 589.162 1117.648, 590.656 1117.907, 592.200 1117.801, 592.210 1117.648, 593.764 1117.195, 595.259 1116.458, 596.636 1115.468, 597.843 1114.261, 598.833 1112.884, 599.570 1111.389, 600.023 1109.835, 600.176 1108.281, 600.023 1107.775, 599.869 " />
            <path fill="none" stroke-width="3.0" stroke-linecap="butt" stroke-opacity="1.0" stroke="rgb(0, 0, 0)" stroke-linejoin="bevel" d=" M 1144.775, 584.866 1146.124, 585.587 1147.331, 586.578 1148.321, 587.785 1149.057, 589.162 1149.511, 590.656 1149.653, 592.104 1149.664, 592.210 1149.511, 593.764 1149.057, 595.259 1148.321, 596.636 1147.331, 597.843 1146.124, 598.833 1144.747, 599.570 1143.252, 600.023 1141.698, 600.176 1140.348, 600.043 " />
            <path fill="none" stroke-width="3.0" stroke-linecap="butt" stroke-opacity="1.0" stroke="rgb(0, 0, 0)" stroke-linejoin="bevel" d=" M 1081.446, 585.078 1082.398, 585.587 1083.605, 586.578 1084.596, 587.785 1085.332, 589.162 1085.785, 590.656 1085.938, 592.210 1085.785, 593.764 1085.332, 595.259 1084.596, 596.636 1083.605, 597.843 1082.398, 598.833 1081.021, 599.570 1079.526, 600.023 1077.972, 600.176 1076.418, 600.023 1075.021, 599.599 " />
            <path fill="none" stroke-width="3.0" stroke-linecap="butt" stroke-opacity="1.0" stroke="rgb(0, 0, 0)" stroke-linejoin="bevel" d=" M 1050.089, 585.349 1050.535, 585.587 1051.742, 586.578 1052.733, 587.785 1053.469, 589.162 1053.922, 590.656 1054.075, 592.210 1053.922, 593.764 1053.469, 595.259 1052.733, 596.636 1051.742, 597.843 1050.535, 598.833 1049.158, 599.570 1047.663, 600.023 1046.109, 600.176 1044.555, 600.023 1043.061, 599.570 1042.031, 599.019 " />
            <path fill="none" stroke-width="3.0" stroke-linecap="butt" stroke-opacity="1.0" stroke="rgb(0, 0, 0)" stroke-linejoin="bevel" d=" M 985.341, 589.348 985.039, 589.401 985.341, 589.998 995.190, 588.262 1005.038, 586.525 1014.886, 584.789 1024.734, 583.053 1034.582, 581.316 1044.430, 579.580 1054.278, 577.843 1064.126, 576.107 1073.974, 574.370 1083.822, 572.634 1093.670, 570.897 1103.518, 569.161 1113.366, 567.424 1123.215, 565.688 1133.063, 563.951 1142.911, 562.215 1152.759, 560.478 1162.607, 558.742 1172.455, 557.005 1182.303, 555.269 1192.151, 553.532 1201.999, 551.796 1211.847, 550.059 1223.284, 548.043 " />
            <path fill="none" stroke-width="3.0" stroke-linecap="butt" stroke-opacity="1.0" stroke="rgb(0, 0, 0)" stroke-linejoin="bevel" d=" M 985.341, 586.973 994.738, 583.553 1004.135, 580.132 1013.532, 576.712 1022.929, 573.292 1032.326, 569.872 1041.723, 566.452 1051.120, 563.031 1060.517, 559.611 1069.914, 556.191 1079.311, 552.771 1088.708, 549.351 1098.105, 545.930 1107.502, 542.510 1116.898, 539.090 1126.295, 535.670 1135.692, 532.250 1145.089, 528.829 1154.486, 525.409 1163.883, 521.989 1173.280, 518.569 1182.677, 515.149 1192.074, 511.728 1201.471, 508.308 1211.645, 504.605 " />
            <path fill="none" stroke-width="3.0" stroke-linecap="butt" stroke-opacity="1.0" stroke="rgb(0, 0, 0)" stroke-linejoin="bevel" d=" M 985.341, 582.837 985.039, 583.012 985.341, 583.532 994.002, 578.532 1002.662, 573.532 1011.322, 568.532 1019.983, 563.532 1028.643, 558.532 1037.303, 553.532 1045.963, 548.532 1054.624, 543.532 1063.284, 538.532 1071.944, 533.532 1080.604, 528.532 1089.265, 523.532 1097.925, 518.532 1106.585, 513.532 1115.245, 508.532 1123.906, 503.532 1132.566, 498.532 1141.226, 493.532 1149.886, 488.532 1158.547, 483.532 1167.207, 478.532 1175.867, 473.532 1184.527, 468.532 1192.640, 463.849 " />
            <path fill="none" stroke-width="3.0" stroke-linecap="butt" stroke-opacity="1.0" stroke="rgb(0, 0, 0)" stroke-linejoin="bevel" d=" M 985.341, 578.588 985.039, 578.842 985.341, 579.312 993.002, 572.884 1000.662, 566.456 1008.323, 560.028 1015.983, 553.600 1023.644, 547.172 1031.304, 540.745 1038.965, 534.317 1046.625, 527.889 1054.286, 521.461 1061.946, 515.033 1069.606, 508.605 1077.267, 502.177 1084.927, 495.749 1092.588, 489.322 1100.248, 482.894 1107.909, 476.466 1115.569, 470.038 1123.229, 463.610 1130.890, 457.182 1138.550, 450.754 1146.211, 444.326 1153.871, 437.899 1161.532, 431.471 1166.846, 427.011 " />
            <path fill="none" stroke-width="3.0" stroke-linecap="butt" stroke-opacity="1.0" stroke="rgb(0, 0, 0)" stroke-linejoin="bevel" d=" M 982.747, 576.717 983.115, 576.279 989.543, 568.618 995.971, 560.958 1002.399, 553.297 1008.827, 545.637 1015.255, 537.977 1021.682, 530.316 1028.110, 522.656 1034.538, 514.995 1040.966, 507.335 1047.394, 499.674 1053.822, 492.014 1060.250, 484.353 1066.678, 476.693 1073.106, 469.032 1079.533, 461.372 1085.961, 453.712 1092.389, 446.051 1098.817, 438.391 1105.245, 430.730 1111.673, 423.070 1118.101, 415.409 1124.529, 407.749 1130.956, 400.089 1135.048, 395.213 " />
            <path fill="none" stroke-width="3.0" stroke-linecap="butt" stroke-opacity="1.0" stroke="rgb(0, 0, 0)" stroke-linejoin="bevel" d=" M 978.527, 576.717 978.780, 576.279 983.780, 567.618 988.780, 558.958 993.780, 550.298 998.780, 541.638 1003.780, 532.977 1008.780, 524.317 1013.780, 515.657 1018.780, 506.997 1023.780, 498.336 1028.780, 489.676 1033.780, 481.016 1038.780, 472.356 1043.780, 463.695 1048.780, 455.035 1053.780, 446.375 1058.780, 437.715 1063.780, 429.054 1068.780, 420.394 1073.780, 411.734 1078.780, 403.074 1083.780, 394.413 1088.780, 385.753 1093.780, 377.093 1098.210, 369.419 " />
            <path fill="none" stroke-width="3.0" stroke-linecap="butt" stroke-opacity="1.0" stroke="rgb(0, 0, 0)" stroke-linejoin="bevel" d=" M 975.086, 576.717 975.246, 576.279 978.666, 566.882 982.086, 557.485 985.506, 548.088 988.927, 538.691 992.347, 529.294 995.767, 519.897 999.187, 510.500 1002.607, 501.103 1006.028, 491.706 1009.448, 482.309 1012.868, 472.913 1016.288, 463.516 1019.708, 454.119 1023.129, 444.722 1026.549, 435.325 1029.969, 425.928 1033.389, 416.531 1036.809, 407.134 1040.230, 397.737 1043.650, 388.340 1047.070, 378.943 1050.490, 369.546 1053.910, 360.149 1057.454, 350.414 " />
            <path fill="none" stroke-width="3.0" stroke-linecap="butt" stroke-opacity="1.0" stroke="rgb(0, 0, 0)" stroke-linejoin="bevel" d=" M 972.060, 576.717 972.138, 576.279 973.874, 566.431 975.611, 556.583 977.347, 546.734 979.084, 536.886 980.820, 527.038 982.557, 517.190 984.293, 507.342 986.030, 497.494 987.766, 487.646 989.503, 477.798 991.239, 467.950 992.976, 458.102 994.712, 448.254 996.449, 438.406 998.185, 428.558 999.922, 418.709 1001.658, 408.861 1003.395, 399.013 1005.131, 389.165 1006.867, 379.317 1008.604, 369.469 1010.340, 359.621 1012.077, 349.773 1014.016, 338.775 " />
            <path fill="none" stroke-width="3.0" stroke-linecap="butt" stroke-opacity="1.0" stroke="rgb(0, 0, 0)" stroke-linejoin="bevel" d=" M 969.107, 411.040 969.107, 411.569 969.217, 411.030 969.217, 401.030 969.217, 391.030 969.217, 381.030 969.217, 371.030 969.217, 361.030 969.217, 351.030 969.217, 341.030 969.217, 334.856 " />
            <path fill="none" stroke-width="3.0" stroke-linecap="butt" stroke-opacity="1.0" stroke="rgb(0, 0, 0)" stroke-linejoin="bevel" d=" M 969.287, 411.023 969.217, 411.030 969.107, 411.040 967.714, 411.177 966.202, 411.636 964.808, 412.381 963.586, 413.384 962.583, 414.606 961.838, 416.000 961.378, 417.513 961.223, 419.087 961.224, 419.100 961.347, 420.557 961.836, 422.173 962.581, 423.568 963.583, 424.791 964.805, 425.794 966.198, 426.540 967.711, 426.999 969.217, 427.148 969.283, 427.155 970.856, 427.000 972.369, 426.542 973.763, 425.797 974.985, 424.794 975.964, 423.601 975.988, 423.572 976.733, 422.177 977.223, 420.561 977.347, 419.091 977.193, 417.517 976.734, 416.004 975.990, 414.609 974.987, 413.387 973.766, 412.383 972.372, 411.637 970.860, 411.178 969.287, 411.023 " />
            <path fill="none" stroke-width="3.0" stroke-linecap="butt" stroke-opacity="1.0" stroke="rgb(0, 0, 0)" stroke-linejoin="bevel" d=" M 969.217, 576.717 969.217, 576.279 969.217, 566.279 969.217, 556.279 969.217, 546.279 969.217, 536.279 969.217, 526.279 969.217, 523.943 969.107, 523.138 969.107, 523.932 " />
            <path fill="none" stroke-width="3.0" stroke-linecap="butt" stroke-opacity="1.0" stroke="rgb(0, 0, 0)" stroke-linejoin="bevel" d=" M 969.217, 523.943 969.261, 523.947 970.834, 523.792 972.346, 523.334 973.740, 522.589 974.962, 521.586 975.965, 520.364 976.710, 518.970 977.170, 517.457 977.325, 515.883 977.170, 514.309 976.712, 512.796 976.660, 512.699 975.967, 511.401 974.965, 510.179 973.743, 509.176 972.350, 508.430 970.837, 507.970 969.265, 507.815 969.217, 507.820 967.692, 507.970 966.179, 508.428 964.785, 509.173 963.563, 510.176 962.560, 511.398 961.815, 512.792 961.356, 514.305 961.215, 515.734 961.201, 515.879 961.355, 517.453 961.814, 518.966 962.558, 520.361 963.561, 521.583 964.782, 522.587 966.176, 523.332 967.688, 523.792 969.107, 523.932 969.217, 523.943 " />
            <path fill="none" stroke-width="3.0" stroke-linecap="butt" stroke-opacity="1.0" stroke="rgb(0, 0, 0)" stroke-linejoin="bevel" d=" M 969.107, 443.304 969.107, 443.447 969.217, 443.293 969.217, 433.293 969.217, 427.497 969.217, 427.148 " />
            <path fill="none" stroke-width="3.0" stroke-linecap="butt" stroke-opacity="1.0" stroke="rgb(0, 0, 0)" stroke-linejoin="bevel" d=" M 969.280, 443.287 969.217, 443.293 969.107, 443.304 967.707, 443.441 966.194, 443.900 964.800, 444.645 963.578, 445.648 962.575, 446.870 961.830, 448.264 961.826, 448.277 961.371, 449.777 961.216, 451.351 961.370, 452.924 961.829, 454.438 962.573, 455.832 963.576, 457.055 964.797, 458.058 966.191, 458.804 967.593, 459.230 967.703, 459.263 969.107, 459.402 969.217, 459.413 969.276, 459.419 970.849, 459.264 972.361, 458.806 973.755, 458.061 974.977, 457.058 975.980, 455.836 976.725, 454.441 977.185, 452.928 977.340, 451.355 977.185, 449.781 976.727, 448.268 975.982, 446.873 974.980, 445.651 973.758, 444.647 972.365, 443.902 970.852, 443.442 969.280, 443.287 " />
            <path fill="none" stroke-width="3.0" stroke-linecap="butt" stroke-opacity="1.0" stroke="rgb(0, 0, 0)" stroke-linejoin="bevel" d=" M 969.217, 475.556 969.217, 475.330 969.217, 465.330 969.217, 459.413 969.107, 459.380 969.107, 459.402 " />
            <path fill="none" stroke-width="3.0" stroke-linecap="butt" stroke-opacity="1.0" stroke="rgb(0, 0, 0)" stroke-linejoin="bevel" d=" M 969.272, 475.551 969.217, 475.556 967.699, 475.705 966.187, 476.164 964.793, 476.909 963.571, 477.912 962.568, 479.134 961.823, 480.528 961.363, 482.041 961.208, 483.615 961.333, 484.891 961.363, 485.188 961.821, 486.702 962.566, 488.096 963.568, 489.319 964.790, 490.322 966.183, 491.068 967.696, 491.528 969.107, 491.667 969.217, 491.678 969.268, 491.683 970.841, 491.528 972.354, 491.070 973.748, 490.325 974.970, 489.322 975.973, 488.100 976.718, 486.706 977.177, 485.193 977.332, 483.619 977.178, 482.045 976.719, 480.532 975.975, 479.137 975.766, 478.883 974.972, 477.915 973.751, 476.911 972.357, 476.166 970.845, 475.706 969.272, 475.551 " />
            <path fill="none" stroke-width="3.0" stroke-linecap="butt" stroke-opacity="1.0" stroke="rgb(0, 0, 0)" stroke-linejoin="bevel" d=" M 969.217, 507.820 969.217, 507.210 969.217, 497.210 969.217, 491.678 969.107, 491.259 969.107, 491.667 " />
            <path fill="none" stroke-width="3.0" stroke-linecap="butt" stroke-opacity="1.0" stroke="rgb(0, 0, 0)" stroke-linejoin="bevel" d=" M 961.224, 419.100 961.335, 417.978 961.789, 416.483 962.525, 415.105 963.516, 413.898 964.723, 412.907 966.101, 412.171 967.595, 411.718 969.107, 411.569 969.149, 411.565 970.703, 411.718 972.197, 412.172 973.574, 412.909 974.781, 413.901 975.772, 415.108 976.507, 416.487 976.960, 417.982 977.113, 419.536 976.990, 420.989 976.506, 422.586 975.964, 423.601 " />
            <path fill="none" stroke-width="3.0" stroke-linecap="butt" stroke-opacity="1.0" stroke="rgb(0, 0, 0)" stroke-linejoin="bevel" d=" M 976.660, 512.699 976.938, 513.617 977.091, 515.172 976.937, 516.727 976.484, 518.222 975.747, 519.600 974.756, 520.807 973.549, 521.798 972.172, 522.534 970.677, 522.987 969.123, 523.140 969.107, 523.138 967.569, 522.986 966.075, 522.532 964.698, 521.796 963.491, 520.804 962.501, 519.596 961.765, 518.218 961.312, 516.723 961.215, 515.734 " />
            <path fill="none" stroke-width="3.0" stroke-linecap="butt" stroke-opacity="1.0" stroke="rgb(0, 0, 0)" stroke-linejoin="bevel" d=" M 961.826, 448.277 962.518, 446.984 963.509, 445.776 964.716, 444.785 966.093, 444.049 967.588, 443.596 969.107, 443.447 969.142, 443.443 970.696, 443.597 972.190, 444.051 973.567, 444.788 974.774, 445.779 975.764, 446.987 976.500, 448.365 976.953, 449.860 977.106, 451.415 976.952, 452.970 976.499, 454.465 975.762, 455.842 974.771, 457.050 973.564, 458.041 972.187, 458.777 970.692, 459.230 969.138, 459.383 969.107, 459.380 967.593, 459.230 " />
            <path fill="none" stroke-width="3.0" stroke-linecap="butt" stroke-opacity="1.0" stroke="rgb(0, 0, 0)" stroke-linejoin="bevel" d=" M 975.766, 478.883 976.493, 480.244 976.946, 481.739 977.098, 483.294 976.945, 484.848 976.491, 486.343 975.755, 487.721 974.764, 488.928 973.557, 489.919 972.179, 490.655 970.685, 491.109 969.131, 491.261 969.107, 491.259 967.577, 491.108 966.082, 490.654 964.705, 489.917 963.499, 488.926 962.508, 487.718 961.772, 486.340 961.333, 484.891 " />
            <path fill="none" stroke-width="3.0" stroke-linecap="butt" stroke-opacity="1.0" stroke="rgb(0, 0, 0)" stroke-linejoin="bevel" d=" M 880.981, 350.414 882.093, 350.259 883.360, 350.341 884.735, 350.659 886.163, 351.199 887.590, 351.941 888.961, 352.856 890.224, 353.910 891.329, 355.061 897.822, 362.667 902.083, 367.657 902.659, 368.226 903.361, 368.734 904.161, 369.161 905.029, 369.491 905.930, 369.711 906.832, 369.812 907.698, 369.791 908.495, 369.649 910.208, 369.190 910.970, 368.914 911.730, 368.499 912.460, 367.961 913.131, 367.320 913.717, 366.601 914.197, 365.831 914.551, 365.040 914.765, 364.258 916.586, 354.426 917.780, 347.974 918.162, 346.424 918.729, 344.880 919.459, 343.402 920.324, 342.046 921.290, 340.864 922.321, 339.902 923.378, 339.196 924.419, 338.775 924.843, 341.180 926.579, 351.028 928.316, 360.876 930.052, 370.724 931.789, 380.572 933.525, 390.420 935.261, 400.268 936.998, 410.116 938.734, 419.964 940.471, 429.812 942.207, 439.661 943.944, 449.509 945.680, 459.357 947.417, 469.205 949.153, 479.053 950.890, 488.901 952.626, 498.749 954.363, 508.597 956.099, 518.445 957.836, 528.293 959.572, 538.141 961.309, 547.989 963.045, 557.837 964.782, 567.686 966.297, 576.279 966.374, 576.717 " />
            <path fill="none" stroke-width="3.0" stroke-linecap="butt" stroke-opacity="1.0" stroke="rgb(0, 0, 0)" stroke-linejoin="bevel" d=" M 840.224, 369.419 841.293, 369.073 842.555, 368.934 843.964, 369.008 845.464, 369.292 846.998, 369.775 848.507, 370.439 849.934, 371.257 851.222, 372.199 858.937, 378.561 864.000, 382.736 864.666, 383.196 865.446, 383.575 866.308, 383.856 867.219, 384.030 868.146, 384.090 869.051, 384.033 869.900, 383.862 870.661, 383.584 872.267, 382.835 872.970, 382.431 873.647, 381.890 874.272, 381.233 874.822, 380.485 875.274, 379.675 875.613, 378.834 875.824, 377.993 875.899, 377.187 875.985, 367.187 876.041, 360.626 876.148, 359.033 876.438, 357.414 876.900, 355.832 877.516, 354.346 878.263, 353.014 879.111, 351.888 880.029, 351.010 880.981, 350.414 881.828, 352.740 885.248, 362.137 888.668, 371.534 892.088, 380.931 895.508, 390.328 898.929, 399.725 902.349, 409.122 905.769, 418.519 909.189, 427.916 912.609, 437.313 916.030, 446.710 919.450, 456.107 922.870, 465.503 926.290, 474.900 929.710, 484.297 933.131, 493.694 936.551, 503.091 939.971, 512.488 943.391, 521.885 946.811, 531.282 950.232, 540.679 953.652, 550.076 957.072, 559.473 960.492, 568.870 963.189, 576.279 963.349, 576.717 " />
            <path fill="none" stroke-width="3.0" stroke-linecap="butt" stroke-opacity="1.0" stroke="rgb(0, 0, 0)" stroke-linejoin="bevel" d=" M 803.387, 395.213 804.379, 394.686 805.598, 394.331 806.998, 394.159 808.525, 394.178 810.120, 394.387 811.721, 394.779 813.268, 395.337 814.701, 396.041 823.403, 400.966 829.114, 404.198 829.850, 404.536 830.683, 404.773 831.581, 404.901 832.509, 404.914 833.432, 404.812 834.313, 404.599 835.120, 404.284 835.821, 403.877 837.273, 402.860 837.895, 402.341 838.468, 401.691 838.969, 400.935 839.380, 400.103 839.685, 399.227 839.873, 398.339 839.935, 397.475 839.869, 396.667 838.217, 386.805 837.133, 380.334 836.961, 378.747 836.966, 377.102 837.146, 375.463 837.495, 373.893 837.999, 372.452 838.639, 371.195 839.391, 370.171 840.224, 369.419 841.488, 371.608 846.488, 380.268 851.488, 388.929 856.488, 397.589 861.488, 406.249 866.488, 414.909 871.488, 423.570 876.488, 432.230 881.488, 440.890 886.488, 449.551 891.488, 458.211 896.488, 466.871 901.488, 475.531 906.488, 484.192 911.488, 492.852 916.488, 501.512 921.488, 510.172 926.488, 518.833 931.488, 527.493 936.488, 536.153 941.488, 544.813 946.488, 553.474 951.488, 562.134 956.488, 570.794 959.655, 576.279 959.908, 576.717 " />
            <path fill="none" stroke-width="3.0" stroke-linecap="butt" stroke-opacity="1.0" stroke="rgb(0, 0, 0)" stroke-linejoin="bevel" d=" M 771.589, 427.011 772.474, 426.321 773.613, 425.759 774.962, 425.346 776.469, 425.100 778.075, 425.029 779.721, 425.137 781.341, 425.418 782.874, 425.862 792.300, 429.202 798.485, 431.393 799.269, 431.598 800.130, 431.687 801.037, 431.657 801.953, 431.508 802.844, 431.248 803.675, 430.885 804.415, 430.434 805.034, 429.912 806.288, 428.658 806.810, 428.039 807.261, 427.299 807.624, 426.468 807.884, 425.577 808.032, 424.661 808.063, 423.755 807.974, 422.893 807.769, 422.109 804.429, 412.683 802.238, 406.498 801.794, 404.965 801.512, 403.345 801.405, 401.700 801.476, 400.093 801.722, 398.586 802.134, 397.237 802.697, 396.098 803.387, 395.213 805.056, 397.202 811.484, 404.862 817.912, 412.523 824.340, 420.183 830.768, 427.844 837.196, 435.504 843.624, 443.165 850.051, 450.825 856.479, 458.486 862.907, 466.146 869.335, 473.807 875.763, 481.467 882.191, 489.127 888.619, 496.788 895.047, 504.448 901.474, 512.109 907.902, 519.769 914.330, 527.430 920.758, 535.090 927.186, 542.750 933.614, 550.411 940.042, 558.071 946.470, 565.732 952.897, 573.392 955.319, 576.279 955.688, 576.717 " />
            <path fill="none" stroke-width="3.0" stroke-linecap="butt" stroke-opacity="1.0" stroke="rgb(0, 0, 0)" stroke-linejoin="bevel" d=" M 745.795, 463.849 746.547, 463.015 747.571, 462.263 748.828, 461.623 750.269, 461.119 751.839, 460.770 753.478, 460.590 755.122, 460.586 756.709, 460.757 766.572, 462.409 773.043, 463.493 773.851, 463.559 774.715, 463.497 775.602, 463.310 776.479, 463.005 777.311, 462.593 778.067, 462.092 778.716, 461.519 779.236, 460.897 780.253, 459.445 780.659, 458.744 780.975, 457.938 781.188, 457.056 781.290, 456.134 781.277, 455.206 781.149, 454.308 780.912, 453.474 780.574, 452.738 775.648, 444.035 772.416, 438.325 771.713, 436.892 771.154, 435.345 770.763, 433.744 770.554, 432.149 770.535, 430.622 770.706, 429.223 771.062, 428.003 771.589, 427.011 773.642, 428.734 781.302, 435.162 788.963, 441.590 796.623, 448.018 804.284, 454.446 811.944, 460.874 819.605, 467.302 827.265, 473.729 834.926, 480.157 842.586, 486.585 850.246, 493.013 857.907, 499.441 865.567, 505.869 873.228, 512.297 880.888, 518.725 888.549, 525.153 896.209, 531.580 903.870, 538.008 911.530, 544.436 919.190, 550.864 926.851, 557.292 934.511, 563.720 942.172, 570.148 949.832, 576.576 953.093, 579.312 953.176, 578.842 " />
            <path fill="none" stroke-width="3.0" stroke-linecap="butt" stroke-opacity="1.0" stroke="rgb(0, 0, 0)" stroke-linejoin="bevel" d=" M 953.176, 578.842 953.093, 578.773 " />
            <path fill="none" stroke-width="3.0" stroke-linecap="butt" stroke-opacity="1.0" stroke="rgb(0, 0, 0)" stroke-linejoin="bevel" d=" M 726.790, 504.605 727.386, 503.653 728.264, 502.736 729.390, 501.887 730.722, 501.140 732.208, 500.524 733.790, 500.062 735.409, 499.772 737.002, 499.665 747.001, 499.580 753.562, 499.524 754.369, 499.448 755.209, 499.237 756.051, 498.898 756.861, 498.446 757.609, 497.896 758.266, 497.271 758.807, 496.594 759.210, 495.892 759.959, 494.285 760.238, 493.524 760.409, 492.675 760.466, 491.770 760.406, 490.844 760.232, 489.932 759.950, 489.070 759.572, 488.291 759.111, 487.624 752.749, 479.909 748.575, 474.847 747.633, 473.558 746.815, 472.131 746.151, 470.622 745.668, 469.088 745.384, 467.588 745.310, 466.179 745.449, 464.917 745.795, 463.849 748.199, 465.237 756.860, 470.237 765.520, 475.237 774.180, 480.237 782.840, 485.237 791.501, 490.237 800.161, 495.237 808.821, 500.237 817.481, 505.237 826.142, 510.237 834.802, 515.237 843.462, 520.237 852.122, 525.237 860.783, 530.237 869.443, 535.237 878.103, 540.237 886.763, 545.237 895.424, 550.237 904.084, 555.237 912.744, 560.237 921.404, 565.237 930.065, 570.237 938.725, 575.237 947.385, 580.237 953.093, 583.532 953.176, 583.012 " />
            <path fill="none" stroke-width="3.0" stroke-linecap="butt" stroke-opacity="1.0" stroke="rgb(0, 0, 0)" stroke-linejoin="bevel" d=" M 953.176, 583.012 953.093, 582.965 " />
            <path fill="none" stroke-width="3.0" stroke-linecap="butt" stroke-opacity="1.0" stroke="rgb(0, 0, 0)" stroke-linejoin="bevel" d=" M 715.151, 548.043 715.572, 547.002 716.278, 545.946 717.240, 544.914 718.421, 543.948 719.777, 543.083 721.256, 542.353 722.800, 541.786 724.350, 541.405 734.182, 539.584 740.634, 538.389 741.416, 538.175 742.206, 537.821 742.976, 537.342 743.696, 536.755 744.337, 536.084 744.875, 535.354 745.290, 534.594 745.566, 533.832 746.024, 532.120 746.167, 531.322 746.188, 530.456 746.086, 529.555 745.867, 528.653 745.537, 527.785 745.110, 526.985 744.602, 526.284 744.033, 525.707 736.427, 519.214 731.437, 514.953 730.286, 513.848 729.232, 512.585 728.317, 511.214 727.575, 509.787 727.035, 508.359 726.717, 506.985 726.634, 505.717 726.790, 504.605 729.498, 505.591 738.895, 509.011 748.292, 512.431 757.689, 515.851 767.085, 519.272 776.482, 522.692 785.879, 526.112 795.276, 529.532 804.673, 532.952 814.070, 536.373 823.467, 539.793 832.864, 543.213 842.261, 546.633 851.658, 550.053 861.055, 553.474 870.452, 556.894 879.849, 560.314 889.245, 563.734 898.642, 567.154 908.039, 570.575 917.436, 573.995 926.833, 577.415 936.230, 580.835 945.627, 584.255 953.093, 586.973 953.176, 586.412 " />
            <path fill="none" stroke-width="3.0" stroke-linecap="butt" stroke-opacity="1.0" stroke="rgb(0, 0, 0)" stroke-linejoin="bevel" d=" M 953.176, 586.412 953.093, 586.382 " />
            <path fill="none" stroke-width="3.0" stroke-linecap="butt" stroke-opacity="1.0" stroke="rgb(0, 0, 0)" stroke-linejoin="bevel" d=" M 711.231, 592.842 711.466, 591.743 711.977, 590.581 712.745, 589.398 713.741, 588.241 714.927, 587.154 716.256, 586.178 717.678, 585.352 719.138, 584.707 728.505, 581.207 734.651, 578.910 735.384, 578.563 736.101, 578.077 736.776, 577.471 737.383, 576.769 737.897, 575.997 738.301, 575.184 738.578, 574.363 738.716, 573.565 738.871, 571.799 738.873, 570.989 738.743, 570.132 738.487, 569.262 738.114, 568.413 737.638, 567.616 737.079, 566.902 736.457, 566.299 735.796, 565.830 727.179, 560.756 721.524, 557.427 720.199, 556.538 718.942, 555.477 717.802, 554.286 716.824, 553.009 716.044, 551.697 715.492, 550.399 715.191, 549.165 715.151, 548.043 718.098, 548.563 727.946, 550.299 737.795, 552.036 747.643, 553.772 757.491, 555.508 767.339, 557.245 777.187, 558.981 787.035, 560.718 796.883, 562.454 806.731, 564.191 816.579, 565.927 826.427, 567.664 836.275, 569.400 846.123, 571.137 855.971, 572.873 865.820, 574.610 875.668, 576.346 885.516, 578.083 895.364, 579.819 905.212, 581.556 915.060, 583.292 924.908, 585.029 934.756, 586.765 944.604, 588.502 953.093, 589.998 953.176, 589.401 " />
            <path fill="none" stroke-width="3.0" stroke-linecap="butt" stroke-opacity="1.0" stroke="rgb(0, 0, 0)" stroke-linejoin="bevel" d=" M 953.176, 589.401 953.093, 589.386 " />
            <path fill="none" stroke-width="3.0" stroke-linecap="butt" stroke-opacity="1.0" stroke="rgb(0, 0, 0)" stroke-linejoin="bevel" d=" M 899.454, 592.842 900.009, 592.842 910.009, 592.842 920.009, 592.842 930.009, 592.842 940.009, 592.842 950.009, 592.842 953.093, 592.842 953.176, 592.210 " />
            <path fill="none" stroke-width="3.0" stroke-linecap="butt" stroke-opacity="1.0" stroke="rgb(0, 0, 0)" stroke-linejoin="bevel" d=" M 899.454, 592.842 899.346, 592.842 899.191, 591.269 898.732, 589.756 897.987, 588.363 896.985, 587.141 895.763, 586.138 894.369, 585.393 892.857, 584.934 891.284, 584.780 889.711, 584.934 888.199, 585.393 887.387, 585.827 886.805, 586.138 885.583, 587.141 884.581, 588.363 883.836, 589.756 883.377, 591.269 883.219, 592.214 883.115, 592.842 883.222, 592.842 883.377, 594.414 883.836, 595.927 884.581, 597.321 885.583, 598.542 886.805, 599.545 888.199, 600.290 889.711, 600.749 891.284, 600.904 892.857, 600.749 894.369, 600.290 895.763, 599.545 896.985, 598.542 897.190, 598.292 897.987, 597.321 898.732, 595.927 899.191, 594.414 899.454, 592.842 " />
            <path fill="none" stroke-width="3.0" stroke-linecap="butt" stroke-opacity="1.0" stroke="rgb(0, 0, 0)" stroke-linejoin="bevel" d=" M 867.205, 592.842 868.146, 592.842 878.146, 592.842 883.222, 592.842 884.111, 592.215 " />
            <path fill="none" stroke-width="3.0" stroke-linecap="butt" stroke-opacity="1.0" stroke="rgb(0, 0, 0)" stroke-linejoin="bevel" d=" M 867.205, 592.842 867.098, 592.842 866.943, 591.269 866.484, 589.756 865.739, 588.363 864.737, 587.141 863.515, 586.138 862.121, 585.393 860.609, 584.934 859.036, 584.780 857.463, 584.934 856.479, 585.233 855.951, 585.393 854.557, 586.138 853.335, 587.141 852.332, 588.363 851.587, 589.756 851.129, 591.269 850.972, 592.210 850.866, 592.842 850.974, 592.842 851.129, 594.414 851.587, 595.927 852.332, 597.321 853.335, 598.542 854.557, 599.545 855.951, 600.290 857.463, 600.749 859.036, 600.904 860.609, 600.749 862.121, 600.290 863.515, 599.545 863.848, 599.272 864.737, 598.542 865.739, 597.321 866.484, 595.927 866.943, 594.414 867.205, 592.842 " />
            <path fill="none" stroke-width="3.0" stroke-linecap="butt" stroke-opacity="1.0" stroke="rgb(0, 0, 0)" stroke-linejoin="bevel" d=" M 786.488, 592.735 786.477, 592.842 786.632, 594.414 787.091, 595.927 787.836, 597.321 788.839, 598.542 790.060, 599.545 791.454, 600.290 792.966, 600.749 794.539, 600.904 796.009, 600.779 797.625, 600.290 798.198, 599.984 799.018, 599.545 800.240, 598.542 801.243, 597.321 801.988, 595.927 802.446, 594.414 802.633, 592.842 802.601, 592.842 802.446, 591.269 801.988, 589.756 801.243, 588.363 800.240, 587.141 799.018, 586.138 797.625, 585.393 796.112, 584.934 794.432, 584.790 793.389, 584.893 792.966, 584.934 791.454, 585.393 790.060, 586.138 788.839, 587.141 787.836, 588.363 787.091, 589.756 786.632, 591.269 786.539, 592.210 786.488, 592.735 " />
            <path fill="none" stroke-width="3.0" stroke-linecap="butt" stroke-opacity="1.0" stroke="rgb(0, 0, 0)" stroke-linejoin="bevel" d=" M 715.151, 637.640 715.191, 636.518 715.492, 635.284 716.044, 633.986 716.824, 632.674 717.802, 631.397 718.942, 630.206 720.199, 629.145 721.524, 628.256 730.142, 623.183 735.796, 619.853 736.457, 619.384 737.079, 618.781 737.638, 618.068 738.114, 617.271 738.487, 616.421 738.743, 615.551 738.873, 614.694 738.871, 613.884 738.716, 612.118 738.578, 611.320 738.301, 610.499 737.898, 609.687 737.383, 608.915 736.776, 608.212 736.101, 607.606 735.384, 607.121 734.652, 606.773 725.284, 603.273 719.138, 600.976 717.678, 600.331 716.256, 599.505 714.927, 598.530 713.741, 597.442 712.745, 596.285 711.977, 595.103 711.466, 593.940 711.231, 592.842 714.339, 592.842 724.339, 592.842 734.339, 592.842 744.339, 592.842 754.339, 592.842 764.339, 592.842 774.339, 592.842 784.339, 592.842 786.477, 592.842 788.444, 592.210 " />
            <path fill="none" stroke-width="3.0" stroke-linecap="butt" stroke-opacity="1.0" stroke="rgb(0, 0, 0)" stroke-linejoin="bevel" d=" M 834.957, 592.842 836.283, 592.842 846.283, 592.842 850.974, 592.842 852.170, 592.210 " />
            <path fill="none" stroke-width="3.0" stroke-linecap="butt" stroke-opacity="1.0" stroke="rgb(0, 0, 0)" stroke-linejoin="bevel" d=" M 834.957, 592.842 834.850, 592.842 834.695, 591.269 834.236, 589.756 833.491, 588.363 832.488, 587.141 831.267, 586.138 829.873, 585.393 828.360, 584.934 826.788, 584.780 825.215, 584.934 825.122, 584.963 823.702, 585.393 822.308, 586.138 821.087, 587.141 820.084, 588.363 819.339, 589.756 818.880, 591.269 818.723, 592.210 818.618, 592.831 818.725, 592.842 818.880, 594.414 819.339, 595.927 820.084, 597.321 821.087, 598.542 822.308, 599.545 823.702, 600.290 825.215, 600.749 826.788, 600.904 828.360, 600.749 829.873, 600.290 830.949, 599.715 831.267, 599.545 832.488, 598.542 833.491, 597.321 834.236, 595.927 834.695, 594.414 834.957, 592.842 " />
            <path fill="none" stroke-width="3.0" stroke-linecap="butt" stroke-opacity="1.0" stroke="rgb(0, 0, 0)" stroke-linejoin="bevel" d=" M 802.633, 592.842 804.420, 592.842 814.420, 592.842 818.725, 592.842 820.307, 592.210 " />
            <path fill="none" stroke-width="3.0" stroke-linecap="butt" stroke-opacity="1.0" stroke="rgb(0, 0, 0)" stroke-linejoin="bevel" d=" M 788.444, 592.210 786.539, 592.210 " />
            <path fill="none" stroke-width="3.0" stroke-linecap="butt" stroke-opacity="1.0" stroke="rgb(0, 0, 0)" stroke-linejoin="bevel" d=" M 820.307, 592.210 818.723, 592.210 " />
            <path fill="none" stroke-width="3.0" stroke-linecap="butt" stroke-opacity="1.0" stroke="rgb(0, 0, 0)" stroke-linejoin="bevel" d=" M 953.176, 592.210 953.093, 592.210 " />
            <path fill="none" stroke-width="3.0" stroke-linecap="butt" stroke-opacity="1.0" stroke="rgb(0, 0, 0)" stroke-linejoin="bevel" d=" M 884.111, 592.215 883.219, 592.214 " />
            <path fill="none" stroke-width="3.0" stroke-linecap="butt" stroke-opacity="1.0" stroke="rgb(0, 0, 0)" stroke-linejoin="bevel" d=" M 852.170, 592.210 850.972, 592.210 " />
            <path fill="none" stroke-width="3.0" stroke-linecap="butt" stroke-opacity="1.0" stroke="rgb(0, 0, 0)" stroke-linejoin="bevel" d=" M 798.198, 599.984 797.969, 600.053 796.516, 600.176 794.962, 600.023 793.468, 599.570 792.091, 598.833 790.884, 597.843 789.893, 596.636 789.157, 595.259 788.704, 593.764 788.444, 592.210 788.551, 592.210 788.704, 590.656 789.157, 589.162 789.893, 587.785 790.884, 586.578 792.091, 585.587 793.389, 584.893 " />
            <path fill="none" stroke-width="3.0" stroke-linecap="butt" stroke-opacity="1.0" stroke="rgb(0, 0, 0)" stroke-linejoin="bevel" d=" M 830.949, 599.715 829.933, 600.023 828.379, 600.176 826.825, 600.023 825.331, 599.570 823.954, 598.833 822.747, 597.843 821.756, 596.636 821.020, 595.259 820.567, 593.764 820.307, 592.210 820.414, 592.210 820.567, 590.656 821.020, 589.162 821.756, 587.785 822.747, 586.578 823.954, 585.587 825.122, 584.963 " />
            <path fill="none" stroke-width="3.0" stroke-linecap="butt" stroke-opacity="1.0" stroke="rgb(0, 0, 0)" stroke-linejoin="bevel" d=" M 863.848, 599.272 863.291, 599.570 861.796, 600.023 860.242, 600.176 858.688, 600.023 857.194, 599.570 855.817, 598.833 854.610, 597.843 853.619, 596.636 852.883, 595.259 852.430, 593.764 852.170, 592.210 852.276, 592.210 852.430, 590.656 852.883, 589.162 853.619, 587.785 854.610, 586.578 855.817, 585.587 856.479, 585.233 " />
            <path fill="none" stroke-width="3.0" stroke-linecap="butt" stroke-opacity="1.0" stroke="rgb(0, 0, 0)" stroke-linejoin="bevel" d=" M 897.190, 598.292 896.531, 598.833 895.154, 599.570 893.659, 600.023 892.105, 600.176 890.551, 600.023 889.057, 599.570 887.680, 598.833 886.472, 597.843 885.482, 596.636 884.746, 595.259 884.292, 593.764 884.111, 592.215 884.139, 592.210 884.292, 590.656 884.746, 589.162 885.482, 587.785 886.472, 586.578 887.387, 585.827 " />
            <path fill="none" stroke-width="3.0" stroke-linecap="butt" stroke-opacity="1.0" stroke="rgb(0, 0, 0)" stroke-linejoin="bevel" d=" M 726.790, 681.078 726.634, 679.966 726.717, 678.698 727.035, 677.324 727.575, 675.896 728.317, 674.469 729.232, 673.098 730.286, 671.835 731.437, 670.730 739.042, 664.237 744.033, 659.976 744.602, 659.400 745.110, 658.698 745.537, 657.898 745.867, 657.030 746.086, 656.128 746.188, 655.227 746.167, 654.361 746.024, 653.564 745.566, 651.851 745.290, 651.089 744.875, 650.329 744.337, 649.599 743.696, 648.928 742.976, 648.342 742.206, 647.862 741.416, 647.508 740.634, 647.294 730.802, 645.473 724.350, 644.278 722.800, 643.897 721.256, 643.330 719.778, 642.600 718.421, 641.735 717.240, 640.769 716.278, 639.737 715.572, 638.681 715.151, 637.640 718.322, 637.081 728.170, 635.345 738.019, 633.608 747.867, 631.872 757.715, 630.135 767.563, 628.399 777.411, 626.662 787.259, 624.926 797.107, 623.189 806.955, 621.453 816.803, 619.716 826.651, 617.980 836.499, 616.243 846.347, 614.507 856.195, 612.770 866.044, 611.034 875.892, 609.297 885.740, 607.561 895.588, 605.824 905.436, 604.088 915.284, 602.352 925.132, 600.615 934.980, 598.879 944.828, 597.142 953.093, 595.685 953.176, 595.019 " />
            <path fill="none" stroke-width="3.0" stroke-linecap="butt" stroke-opacity="1.0" stroke="rgb(0, 0, 0)" stroke-linejoin="bevel" d=" M 953.176, 595.019 953.093, 595.034 " />
            <path fill="none" stroke-width="3.0" stroke-linecap="butt" stroke-opacity="1.0" stroke="rgb(0, 0, 0)" stroke-linejoin="bevel" d=" M 745.795, 721.835 745.449, 720.766 745.310, 719.504 745.384, 718.095 745.668, 716.595 746.151, 715.061 746.815, 713.552 747.633, 712.125 748.575, 710.837 754.937, 703.121 759.112, 698.059 759.572, 697.392 759.950, 696.613 760.232, 695.751 760.406, 694.839 760.466, 693.913 760.409, 693.008 760.238, 692.159 759.959, 691.398 759.210, 689.792 758.807, 689.089 758.266, 688.412 757.609, 687.787 756.861, 687.237 756.051, 686.785 755.210, 686.446 754.369, 686.235 753.563, 686.159 743.563, 686.074 737.002, 686.018 735.409, 685.911 733.790, 685.621 732.208, 685.159 730.722, 684.543 729.390, 683.796 728.264, 682.948 727.386, 682.030 726.790, 681.078 729.919, 679.939 739.316, 676.519 748.713, 673.099 758.110, 669.679 767.506, 666.258 776.903, 662.838 786.300, 659.418 795.697, 655.998 805.094, 652.578 814.491, 649.157 823.888, 645.737 833.285, 642.317 842.682, 638.897 852.079, 635.477 861.476, 632.056 870.873, 628.636 880.270, 625.216 889.667, 621.796 899.063, 618.376 908.460, 614.955 917.857, 611.535 927.254, 608.115 936.651, 604.695 946.048, 601.275 953.093, 598.710 953.176, 598.009 " />
            <path fill="none" stroke-width="3.0" stroke-linecap="butt" stroke-opacity="1.0" stroke="rgb(0, 0, 0)" stroke-linejoin="bevel" d=" M 953.176, 598.009 953.093, 598.039 " />
            <path fill="none" stroke-width="3.0" stroke-linecap="butt" stroke-opacity="1.0" stroke="rgb(0, 0, 0)" stroke-linejoin="bevel" d=" M 771.589, 758.672 771.062, 757.680 770.706, 756.461 770.535, 755.061 770.554, 753.534 770.763, 751.939 771.154, 750.338 771.713, 748.791 772.417, 747.358 777.342, 738.655 780.574, 732.945 780.912, 732.209 781.149, 731.375 781.277, 730.478 781.290, 729.550 781.188, 728.627 780.975, 727.746 780.659, 726.939 780.253, 726.238 779.236, 724.786 778.717, 724.164 778.067, 723.591 777.311, 723.090 776.479, 722.679 775.602, 722.374 774.715, 722.186 773.851, 722.124 773.043, 722.190 763.181, 723.842 756.709, 724.926 755.122, 725.097 753.478, 725.093 751.839, 724.913 750.269, 724.564 748.828, 724.060 747.571, 723.420 746.547, 722.668 745.795, 721.835 748.767, 720.119 757.427, 715.119 766.087, 710.119 774.747, 705.119 783.408, 700.119 792.068, 695.119 800.728, 690.119 809.388, 685.119 818.049, 680.119 826.709, 675.119 835.369, 670.119 844.029, 665.119 852.690, 660.119 861.350, 655.119 870.010, 650.119 878.670, 645.119 887.331, 640.119 895.991, 635.119 904.651, 630.119 913.311, 625.119 921.972, 620.119 930.632, 615.119 939.292, 610.119 947.952, 605.119 953.093, 602.151 953.176, 601.408 " />
            <path fill="none" stroke-width="3.0" stroke-linecap="butt" stroke-opacity="1.0" stroke="rgb(0, 0, 0)" stroke-linejoin="bevel" d=" M 953.176, 601.408 953.093, 601.456 " />
            <path fill="none" stroke-width="3.0" stroke-linecap="butt" stroke-opacity="1.0" stroke="rgb(0, 0, 0)" stroke-linejoin="bevel" d=" M 803.387, 790.470 802.697, 789.585 802.134, 788.446 801.722, 787.097 801.476, 785.590 801.405, 783.984 801.512, 782.338 801.794, 780.718 802.238, 779.185 805.578, 769.759 807.769, 763.574 807.974, 762.790 808.063, 761.928 808.032, 761.022 807.884, 760.106 807.624, 759.215 807.261, 758.384 806.810, 757.644 806.288, 757.025 805.034, 755.771 804.415, 755.249 803.675, 754.798 802.844, 754.435 801.953, 754.175 801.037, 754.026 800.130, 753.996 799.269, 754.085 798.485, 754.290 789.059, 757.630 782.874, 759.821 781.341, 760.265 779.721, 760.547 778.076, 760.654 776.469, 760.583 774.962, 760.337 773.613, 759.924 772.474, 759.362 771.589, 758.672 774.287, 756.408 781.947, 749.980 789.608, 743.552 797.268, 737.124 804.929, 730.696 812.589, 724.268 820.250, 717.840 827.910, 711.412 835.571, 704.985 843.231, 698.557 850.891, 692.129 858.552, 685.701 866.212, 679.273 873.873, 672.845 881.533, 666.417 889.194, 659.989 896.854, 653.562 904.515, 647.134 912.175, 640.706 919.835, 634.278 927.496, 627.850 935.156, 621.422 942.817, 614.994 950.477, 608.566 953.093, 606.371 953.176, 605.578 " />
            <path fill="none" stroke-width="3.0" stroke-linecap="butt" stroke-opacity="1.0" stroke="rgb(0, 0, 0)" stroke-linejoin="bevel" d=" M 953.176, 605.578 953.093, 605.648 " />
            <path fill="none" stroke-width="3.0" stroke-linecap="butt" stroke-opacity="1.0" stroke="rgb(0, 0, 0)" stroke-linejoin="bevel" d=" M 840.224, 816.264 839.391, 815.512 838.639, 814.488 837.999, 813.231 837.495, 811.790 837.146, 810.220 836.966, 808.581 836.962, 806.937 837.133, 805.350 838.785, 795.487 839.869, 789.016 839.935, 788.208 839.873, 787.344 839.685, 786.456 839.380, 785.580 838.969, 784.748 838.468, 783.992 837.895, 783.342 837.273, 782.823 835.821, 781.806 835.120, 781.400 834.313, 781.084 833.432, 780.871 832.509, 780.769 831.581, 780.782 830.684, 780.910 829.850, 781.147 829.114, 781.485 820.411, 786.410 814.701, 789.642 813.268, 790.346 811.721, 790.904 810.120, 791.296 808.525, 791.505 806.998, 791.524 805.598, 791.352 804.379, 790.997 803.387, 790.470 805.701, 787.712 812.129, 780.052 818.557, 772.392 824.985, 764.731 831.413, 757.071 837.841, 749.410 844.269, 741.750 850.696, 734.089 857.124, 726.429 863.552, 718.768 869.980, 711.108 876.408, 703.448 882.836, 695.787 889.264, 688.127 895.692, 680.466 902.119, 672.806 908.547, 665.145 914.975, 657.485 921.403, 649.824 927.831, 642.164 934.259, 634.504 940.687, 626.843 947.115, 619.183 953.542, 611.522 955.688, 608.966 955.739, 608.142 " />
            <path fill="none" stroke-width="3.0" stroke-linecap="butt" stroke-opacity="1.0" stroke="rgb(0, 0, 0)" stroke-linejoin="bevel" d=" M 955.739, 608.142 955.048, 608.966 " />
            <path fill="none" stroke-width="3.0" stroke-linecap="butt" stroke-opacity="1.0" stroke="rgb(0, 0, 0)" stroke-linejoin="bevel" d=" M 880.981, 835.269 880.029, 834.673 879.111, 833.795 878.263, 832.669 877.516, 831.337 876.900, 829.851 876.438, 828.269 876.148, 826.650 876.041, 825.057 875.956, 815.058 875.900, 808.496 875.824, 807.690 875.613, 806.849 875.274, 806.008 874.822, 805.198 874.272, 804.450 873.647, 803.793 872.970, 803.252 872.267, 802.849 870.661, 802.099 869.900, 801.821 869.051, 801.650 868.146, 801.593 867.220, 801.653 866.308, 801.827 865.446, 802.109 864.667, 802.487 864.000, 802.947 856.285, 809.310 851.222, 813.484 849.934, 814.426 848.507, 815.244 846.998, 815.908 845.464, 816.391 843.964, 816.675 842.555, 816.749 841.293, 816.610 840.224, 816.264 842.055, 813.093 847.055, 804.432 852.055, 795.772 857.055, 787.112 862.055, 778.452 867.055, 769.791 872.055, 761.131 877.055, 752.471 882.055, 743.811 887.055, 735.150 892.055, 726.490 897.055, 717.830 902.055, 709.169 907.055, 700.509 912.055, 691.849 917.055, 683.189 922.055, 674.528 927.055, 665.868 932.055, 657.208 937.055, 648.548 942.055, 639.887 947.055, 631.227 952.055, 622.567 957.055, 613.907 959.908, 608.966 959.909, 608.142 " />
            <path fill="none" stroke-width="3.0" stroke-linecap="butt" stroke-opacity="1.0" stroke="rgb(0, 0, 0)" stroke-linejoin="bevel" d=" M 959.909, 608.142 959.433, 608.966 " />
            <path fill="none" stroke-width="3.0" stroke-linecap="butt" stroke-opacity="1.0" stroke="rgb(0, 0, 0)" stroke-linejoin="bevel" d=" M 966.298, 608.142 966.374, 608.966 964.638, 618.814 962.901, 628.662 961.165, 638.510 959.428, 648.358 957.692, 658.206 955.955, 668.054 954.219, 677.902 952.482, 687.750 950.746, 697.598 949.009, 707.446 947.273, 717.295 945.536, 727.143 943.800, 736.991 942.064, 746.839 940.327, 756.687 938.591, 766.535 936.854, 776.383 935.118, 786.231 933.381, 796.079 931.645, 805.927 929.908, 815.775 928.172, 825.623 926.435, 835.471 925.067, 843.233 924.419, 846.908 923.378, 846.487 922.322, 845.781 921.290, 844.819 920.324, 843.638 919.459, 842.281 918.729, 840.803 918.162, 839.259 917.781, 837.709 915.960, 827.876 914.765, 821.425 914.551, 820.643 914.197, 819.852 913.717, 819.083 913.131, 818.363 912.460, 817.722 911.730, 817.184 910.970, 816.769 910.208, 816.493 908.495, 816.035 907.698, 815.892 906.832, 815.871 905.931, 815.972 905.029, 816.192 904.161, 816.522 903.361, 816.949 902.659, 817.457 902.083, 818.026 895.590, 825.632 891.329, 830.622 890.224, 831.773 888.961, 832.827 887.590, 833.742 886.163, 834.484 884.735, 835.024 883.361, 835.342 882.093, 835.424 880.981, 835.269 882.249, 831.786 885.669, 822.389 889.089, 812.992 892.509, 803.595 895.929, 794.198 899.350, 784.802 902.770, 775.405 906.190, 766.008 909.610, 756.611 913.030, 747.214 916.451, 737.817 919.871, 728.420 923.291, 719.023 926.711, 709.626 930.131, 700.229 933.552, 690.832 936.972, 681.435 940.392, 672.038 943.812, 662.642 947.232, 653.245 950.653, 643.848 954.073, 634.451 957.493, 625.054 960.913, 615.657 963.349, 608.966 963.309, 608.142 " />
            <path fill="none" stroke-width="3.0" stroke-linecap="butt" stroke-opacity="1.0" stroke="rgb(0, 0, 0)" stroke-linejoin="bevel" d=" M 963.309, 608.142 963.009, 608.966 " />
            <path fill="none" stroke-width="3.0" stroke-linecap="butt" stroke-opacity="1.0" stroke="rgb(0, 0, 0)" stroke-linejoin="bevel" d=" M 966.298, 608.142 966.153, 608.966 " />
            <path fill="none" stroke-width="3.0" stroke-linecap="butt" stroke-opacity="1.0" stroke="rgb(0, 0, 0)" stroke-linejoin="bevel" d=" M 985.341, 586.301 985.039, 586.412 " />
        </g>
    </g>
</svg>
